<svg width="587" height="110" viewBox="0 0 587 110" fill="none" xmlns="http://www.w3.org/2000/svg">
<path d="M109.358 41L123.182 1.58H133.928L148.184 41H141.488L129.014 5.9L131.66 7.142H125.126L127.934 5.9L115.838 41H109.358ZM118.322 29.876L120.374 24.26H136.898L139.004 29.876H118.322ZM172.07 28.094V22.424H180.278C182.006 22.424 183.428 22.1 184.544 21.452C185.696 20.768 186.578 19.85 187.19 18.698C187.802 17.51 188.108 16.178 188.108 14.702C188.108 13.19 187.802 11.858 187.19 10.706C186.578 9.518 185.696 8.6 184.544 7.952C183.428 7.304 182.006 6.98 180.278 6.98H172.07V1.31H179.522C182.798 1.31 185.552 1.85 187.784 2.93C190.052 3.974 191.762 5.468 192.914 7.412C194.102 9.32 194.696 11.606 194.696 14.27V15.134C194.696 17.762 194.102 20.048 192.914 21.992C191.762 23.936 190.052 25.448 187.784 26.528C185.552 27.572 182.798 28.094 179.522 28.094H172.07ZM166.67 41V1.31H173.15V41H166.67ZM201.738 41V1.58H208.218V41H201.738ZM207.138 41V35.222H224.688V41H207.138ZM227.852 41L241.676 1.58H252.422L266.678 41H259.982L247.508 5.9L250.154 7.142H243.62L246.428 5.9L234.332 41H227.852ZM236.816 29.876L238.868 24.26H255.392L257.498 29.876H236.816ZM277.751 41V6.224H284.231V41H277.751ZM266.087 7.304V1.58H295.949V7.304H266.087ZM302.514 41V1.58H308.994V41H302.514ZM307.914 23.99V18.374H324.276V23.99H307.914ZM307.914 7.196V1.58H325.086V7.196H307.914ZM350.662 41.972C347.098 41.972 344.02 41.36 341.428 40.136C338.872 38.876 336.748 37.22 335.056 35.168C333.364 33.116 332.104 30.92 331.276 28.58C330.484 26.204 330.088 23.936 330.088 21.776V20.588C330.088 18.212 330.502 15.836 331.33 13.46C332.194 11.084 333.472 8.924 335.164 6.98C336.892 5 339.034 3.416 341.59 2.228C344.182 1.04 347.206 0.445997 350.662 0.445997C354.118 0.445997 357.124 1.04 359.68 2.228C362.236 3.416 364.378 5 366.106 6.98C367.834 8.924 369.112 11.084 369.94 13.46C370.804 15.836 371.236 18.212 371.236 20.588V21.776C371.236 23.936 370.822 26.204 369.994 28.58C369.166 30.92 367.906 33.116 366.214 35.168C364.558 37.22 362.434 38.876 359.842 40.136C357.25 41.36 354.19 41.972 350.662 41.972ZM350.662 35.978C352.822 35.978 354.766 35.582 356.494 34.79C358.222 33.998 359.698 32.918 360.922 31.55C362.146 30.182 363.064 28.616 363.676 26.852C364.324 25.088 364.648 23.216 364.648 21.236C364.648 19.148 364.324 17.222 363.676 15.458C363.028 13.658 362.092 12.092 360.868 10.76C359.68 9.392 358.222 8.33 356.494 7.574C354.766 6.818 352.822 6.44 350.662 6.44C348.502 6.44 346.558 6.818 344.83 7.574C343.102 8.33 341.626 9.392 340.402 10.76C339.178 12.092 338.242 13.658 337.594 15.458C336.982 17.222 336.676 19.148 336.676 21.236C336.676 23.216 336.982 25.088 337.594 26.852C338.242 28.616 339.178 30.182 340.402 31.55C341.626 32.918 343.102 33.998 344.83 34.79C346.558 35.582 348.502 35.978 350.662 35.978ZM379.295 41V1.31H385.775V41H379.295ZM403.487 41L390.959 23.666H398.303L411.209 41H403.487ZM383.669 27.284V21.83H393.929C395.477 21.83 396.809 21.524 397.925 20.912C399.041 20.264 399.887 19.382 400.463 18.266C401.075 17.15 401.381 15.854 401.381 14.378C401.381 12.938 401.075 11.66 400.463 10.544C399.887 9.428 399.041 8.546 397.925 7.898C396.809 7.25 395.477 6.926 393.929 6.926H383.669V1.31H393.065C396.089 1.31 398.717 1.778 400.949 2.714C403.181 3.614 404.909 4.982 406.133 6.818C407.357 8.654 407.969 11.012 407.969 13.892V14.756C407.969 17.636 407.339 19.994 406.079 21.83C404.855 23.666 403.127 25.034 400.895 25.934C398.699 26.834 396.089 27.284 393.065 27.284H383.669ZM417.633 41V1.58H426.381L437.181 26.474H438.099L448.791 1.58H457.647V41H451.221V7.358L451.869 7.466L440.961 32.9H433.833L422.817 7.466L423.573 7.358V41H417.633ZM5.98175 109.216V103.816H16.4038C18.3478 103.816 19.8418 103.276 20.8858 102.196C21.9658 101.116 22.5058 99.64 22.5058 97.768C22.5058 95.86 21.9838 94.384 20.9398 93.34C19.8958 92.26 18.3838 91.72 16.4038 91.72H5.98175V87.616H15.7558C18.3478 87.616 20.6338 87.94 22.6137 88.588C24.5937 89.2 26.1598 90.226 27.3118 91.666C28.4638 93.106 29.0398 95.068 29.0398 97.552V98.308C29.0398 100.612 28.5358 102.592 27.5278 104.248C26.5558 105.868 25.0798 107.11 23.0997 107.974C21.1558 108.802 18.7078 109.216 15.7558 109.216H5.98175ZM0.63575 109.216V69.31H7.06175V109.216H0.63575ZM5.98175 90.586V86.536H14.9458C16.9978 86.536 18.4918 85.996 19.4278 84.916C20.3998 83.8 20.8858 82.378 20.8858 80.65C20.8858 78.886 20.3998 77.464 19.4278 76.384C18.4918 75.268 16.9978 74.71 14.9458 74.71H5.98175V69.31H14.1358C18.5278 69.31 21.8398 70.246 24.0718 72.118C26.3038 73.954 27.4198 76.6 27.4198 80.056V80.812C27.4198 83.26 26.8438 85.204 25.6918 86.644C24.5758 88.084 23.0098 89.11 20.9938 89.722C19.0138 90.298 16.7278 90.586 14.1358 90.586H5.98175ZM37.5498 109V69.31H44.0298V109H37.5498ZM61.7418 109L49.2138 91.666H56.5578L69.4638 109H61.7418ZM41.9238 95.284V89.83H52.1838C53.7318 89.83 55.0638 89.524 56.1798 88.912C57.2958 88.264 58.1418 87.382 58.7178 86.266C59.3298 85.15 59.6358 83.854 59.6358 82.378C59.6358 80.938 59.3298 79.66 58.7178 78.544C58.1418 77.428 57.2958 76.546 56.1798 75.898C55.0638 75.25 53.7318 74.926 52.1838 74.926H41.9238V69.31H51.3198C54.3438 69.31 56.9718 69.778 59.2038 70.714C61.4358 71.614 63.1638 72.982 64.3878 74.818C65.6118 76.654 66.2238 79.012 66.2238 81.892V82.756C66.2238 85.636 65.5938 87.994 64.3338 89.83C63.1098 91.666 61.3818 93.034 59.1498 93.934C56.9538 94.834 54.3438 95.284 51.3198 95.284H41.9238ZM93.3976 109.972C89.8336 109.972 86.7556 109.36 84.1636 108.136C81.6076 106.876 79.4836 105.22 77.7916 103.168C76.0996 101.116 74.8396 98.92 74.0116 96.58C73.2196 94.204 72.8236 91.936 72.8236 89.776V88.588C72.8236 86.212 73.2376 83.836 74.0656 81.46C74.9296 79.084 76.2076 76.924 77.8996 74.98C79.6276 73 81.7696 71.416 84.3256 70.228C86.9176 69.04 89.9416 68.446 93.3976 68.446C96.8536 68.446 99.8596 69.04 102.416 70.228C104.972 71.416 107.114 73 108.842 74.98C110.57 76.924 111.848 79.084 112.676 81.46C113.54 83.836 113.972 86.212 113.972 88.588V89.776C113.972 91.936 113.558 94.204 112.73 96.58C111.902 98.92 110.642 101.116 108.95 103.168C107.294 105.22 105.17 106.876 102.578 108.136C99.9856 109.36 96.9256 109.972 93.3976 109.972ZM93.3976 103.978C95.5576 103.978 97.5016 103.582 99.2296 102.79C100.958 101.998 102.434 100.918 103.658 99.55C104.882 98.182 105.8 96.616 106.412 94.852C107.06 93.088 107.384 91.216 107.384 89.236C107.384 87.148 107.06 85.222 106.412 83.458C105.764 81.658 104.828 80.092 103.604 78.76C102.416 77.392 100.958 76.33 99.2296 75.574C97.5016 74.818 95.5576 74.44 93.3976 74.44C91.2376 74.44 89.2936 74.818 87.5656 75.574C85.8376 76.33 84.3616 77.392 83.1376 78.76C81.9136 80.092 80.9776 81.658 80.3296 83.458C79.7176 85.222 79.4116 87.148 79.4116 89.236C79.4116 91.216 79.7176 93.088 80.3296 94.852C80.9776 96.616 81.9136 98.182 83.1376 99.55C84.3616 100.918 85.8376 101.998 87.5656 102.79C89.2936 103.582 91.2376 103.978 93.3976 103.978ZM137.96 109.972C134.324 109.972 131.264 109.288 128.78 107.92C126.332 106.516 124.46 104.554 123.164 102.034C121.904 99.514 121.274 96.58 121.274 93.232V69.58H127.754V93.772C127.754 95.788 128.15 97.57 128.942 99.118C129.734 100.666 130.886 101.872 132.398 102.736C133.91 103.564 135.764 103.978 137.96 103.978C140.156 103.978 141.992 103.564 143.468 102.736C144.98 101.908 146.132 100.72 146.924 99.172C147.716 97.624 148.112 95.824 148.112 93.772V69.58H154.592V93.232C154.592 96.58 153.962 99.514 152.702 102.034C151.442 104.554 149.57 106.516 147.086 107.92C144.638 109.288 141.596 109.972 137.96 109.972ZM182.411 109.972C179.171 109.972 176.291 109.45 173.771 108.406C171.251 107.326 169.109 105.85 167.345 103.978C165.581 102.106 164.231 99.928 163.295 97.444C162.395 94.96 161.945 92.332 161.945 89.56V88.372C161.945 85.888 162.377 83.458 163.241 81.082C164.105 78.706 165.365 76.564 167.021 74.656C168.713 72.748 170.765 71.236 173.177 70.12C175.625 69.004 178.415 68.446 181.547 68.446C184.895 68.446 187.883 69.094 190.511 70.39C193.139 71.65 195.245 73.414 196.829 75.682C198.413 77.914 199.331 80.506 199.583 83.458H192.995C192.779 81.514 192.113 79.876 190.997 78.544C189.917 77.212 188.549 76.204 186.893 75.52C185.273 74.8 183.491 74.44 181.547 74.44C179.603 74.44 177.821 74.8 176.201 75.52C174.617 76.204 173.249 77.194 172.097 78.49C170.945 79.75 170.063 81.28 169.451 83.08C168.839 84.844 168.533 86.824 168.533 89.02C168.533 91.468 168.857 93.628 169.505 95.5C170.189 97.372 171.143 98.956 172.367 100.252C173.591 101.512 175.049 102.484 176.741 103.168C178.469 103.816 180.359 104.14 182.411 104.14C185.255 104.14 187.739 103.564 189.863 102.412C192.023 101.224 193.643 99.694 194.723 97.822L193.049 104.14V93.178H199.097V102.25C197.333 104.698 195.029 106.606 192.185 107.974C189.377 109.306 186.119 109.972 182.411 109.972ZM181.061 94.474V89.398H202.391V94.474H181.061ZM235.656 109V69.58H242.136V109H235.656ZM209.358 109V69.58H215.838V109H209.358ZM214.596 92.206V86.428H236.898V92.206H214.596ZM260.428 109V74.224H266.908V109H260.428ZM248.764 75.304V69.58H278.626V75.304H248.764ZM304.883 109V74.224H311.363V109H304.883ZM293.219 75.304V69.58H323.081V75.304H293.219ZM346.575 109.972C343.011 109.972 339.933 109.36 337.341 108.136C334.785 106.876 332.661 105.22 330.969 103.168C329.277 101.116 328.017 98.92 327.189 96.58C326.397 94.204 326.001 91.936 326.001 89.776V88.588C326.001 86.212 326.415 83.836 327.243 81.46C328.107 79.084 329.385 76.924 331.077 74.98C332.805 73 334.947 71.416 337.503 70.228C340.095 69.04 343.119 68.446 346.575 68.446C350.031 68.446 353.037 69.04 355.593 70.228C358.149 71.416 360.291 73 362.019 74.98C363.747 76.924 365.025 79.084 365.853 81.46C366.717 83.836 367.149 86.212 367.149 88.588V89.776C367.149 91.936 366.735 94.204 365.907 96.58C365.079 98.92 363.819 101.116 362.127 103.168C360.471 105.22 358.347 106.876 355.755 108.136C353.163 109.36 350.103 109.972 346.575 109.972ZM346.575 103.978C348.735 103.978 350.679 103.582 352.407 102.79C354.135 101.998 355.611 100.918 356.835 99.55C358.059 98.182 358.977 96.616 359.589 94.852C360.237 93.088 360.561 91.216 360.561 89.236C360.561 87.148 360.237 85.222 359.589 83.458C358.941 81.658 358.005 80.092 356.781 78.76C355.593 77.392 354.135 76.33 352.407 75.574C350.679 74.818 348.735 74.44 346.575 74.44C344.415 74.44 342.471 74.818 340.743 75.574C339.015 76.33 337.539 77.392 336.315 78.76C335.091 80.092 334.155 81.658 333.507 83.458C332.895 85.222 332.589 87.148 332.589 89.236C332.589 91.216 332.895 93.088 333.507 94.852C334.155 96.616 335.091 98.182 336.315 99.55C337.539 100.918 339.015 101.998 340.743 102.79C342.471 103.582 344.415 103.978 346.575 103.978ZM394.793 93.772L382.589 69.58H389.285L399.113 89.452L397.223 88.858H402.947L400.949 89.452L410.075 69.58H416.393L404.999 93.772H394.793ZM396.737 109V92.638H403.055V109H396.737ZM439.23 109.972C435.666 109.972 432.588 109.36 429.996 108.136C427.44 106.876 425.316 105.22 423.624 103.168C421.932 101.116 420.672 98.92 419.844 96.58C419.052 94.204 418.656 91.936 418.656 89.776V88.588C418.656 86.212 419.07 83.836 419.898 81.46C420.762 79.084 422.04 76.924 423.732 74.98C425.46 73 427.602 71.416 430.158 70.228C432.75 69.04 435.774 68.446 439.23 68.446C442.686 68.446 445.692 69.04 448.248 70.228C450.804 71.416 452.946 73 454.674 74.98C456.402 76.924 457.68 79.084 458.508 81.46C459.372 83.836 459.804 86.212 459.804 88.588V89.776C459.804 91.936 459.39 94.204 458.562 96.58C457.734 98.92 456.474 101.116 454.782 103.168C453.126 105.22 451.002 106.876 448.41 108.136C445.818 109.36 442.758 109.972 439.23 109.972ZM439.23 103.978C441.39 103.978 443.334 103.582 445.062 102.79C446.79 101.998 448.266 100.918 449.49 99.55C450.714 98.182 451.632 96.616 452.244 94.852C452.892 93.088 453.216 91.216 453.216 89.236C453.216 87.148 452.892 85.222 452.244 83.458C451.596 81.658 450.66 80.092 449.436 78.76C448.248 77.392 446.79 76.33 445.062 75.574C443.334 74.818 441.39 74.44 439.23 74.44C437.07 74.44 435.126 74.818 433.398 75.574C431.67 76.33 430.194 77.392 428.97 78.76C427.746 80.092 426.81 81.658 426.162 83.458C425.55 85.222 425.244 87.148 425.244 89.236C425.244 91.216 425.55 93.088 426.162 94.852C426.81 96.616 427.746 98.182 428.97 99.55C430.194 100.918 431.67 101.998 433.398 102.79C435.126 103.582 437.07 103.978 439.23 103.978ZM483.792 109.972C480.156 109.972 477.096 109.288 474.612 107.92C472.164 106.516 470.292 104.554 468.996 102.034C467.736 99.514 467.106 96.58 467.106 93.232V69.58H473.586V93.772C473.586 95.788 473.982 97.57 474.774 99.118C475.566 100.666 476.718 101.872 478.23 102.736C479.742 103.564 481.596 103.978 483.792 103.978C485.988 103.978 487.824 103.564 489.3 102.736C490.812 101.908 491.964 100.72 492.756 99.172C493.548 97.624 493.944 95.824 493.944 93.772V69.58H500.424V93.232C500.424 96.58 499.794 99.514 498.534 102.034C497.274 104.554 495.402 106.516 492.918 107.92C490.47 109.288 487.428 109.972 483.792 109.972ZM527.577 109.216V103.816H537.999C539.943 103.816 541.437 103.276 542.481 102.196C543.561 101.116 544.101 99.64 544.101 97.768C544.101 95.86 543.579 94.384 542.535 93.34C541.491 92.26 539.979 91.72 537.999 91.72H527.577V87.616H537.351C539.943 87.616 542.229 87.94 544.209 88.588C546.189 89.2 547.755 90.226 548.907 91.666C550.059 93.106 550.635 95.068 550.635 97.552V98.308C550.635 100.612 550.131 102.592 549.123 104.248C548.151 105.868 546.675 107.11 544.695 107.974C542.751 108.802 540.303 109.216 537.351 109.216H527.577ZM522.231 109.216V69.31H528.657V109.216H522.231ZM527.577 90.586V86.536H536.541C538.593 86.536 540.087 85.996 541.023 84.916C541.995 83.8 542.481 82.378 542.481 80.65C542.481 78.886 541.995 77.464 541.023 76.384C540.087 75.268 538.593 74.71 536.541 74.71H527.577V69.31H535.731C540.123 69.31 543.435 70.246 545.667 72.118C547.899 73.954 549.015 76.6 549.015 80.056V80.812C549.015 83.26 548.439 85.204 547.287 86.644C546.171 88.084 544.605 89.11 542.589 89.722C540.609 90.298 538.323 90.586 535.731 90.586H527.577ZM565.23 93.772L553.026 69.58H559.722L569.55 89.452L567.66 88.858H573.384L571.386 89.452L580.512 69.58H586.83L575.436 93.772H565.23ZM567.174 109V92.638H573.492V109H567.174Z" fill="white"/>
</svg>
