<svg width="729" height="728" viewBox="0 0 729 728" fill="none" xmlns="http://www.w3.org/2000/svg">
<g filter="url(#filter0_d_1_46)">
<path fill-rule="evenodd" clip-rule="evenodd" d="M475.681 86.8644C506.417 99.2149 534.182 116.287 558.341 137.011L553.432 155.33L543.622 152.702L548.386 134.923C548.573 134.226 548.099 133.486 547.323 133.278L488.488 117.514C488.457 117.505 488.431 117.507 488.408 117.5C488.353 117.486 488.296 117.479 488.239 117.472C488.198 117.469 488.157 117.467 488.115 117.464C488.064 117.467 488.015 117.462 487.964 117.465C487.92 117.471 487.877 117.476 487.834 117.481C487.782 117.484 487.737 117.497 487.691 117.51C487.656 117.517 487.618 117.532 487.573 117.545C487.525 117.566 487.48 117.579 487.44 117.602C487.402 117.617 487.371 117.642 487.333 117.657C487.293 117.68 487.253 117.703 487.212 117.734C487.18 117.759 487.146 117.792 487.114 117.817C487.082 117.842 487.048 117.875 487.022 117.91C486.988 117.943 486.959 117.986 486.933 118.021C486.917 118.05 486.895 118.069 486.881 118.091L478.404 132.145L476.815 134.784L463.777 131.291L475.685 86.8488L475.681 86.8644ZM578.845 156.362C579.535 157.076 580.233 157.792 580.92 158.522L561.467 175.866L558.646 175.11C558.63 175.106 558.615 175.102 558.597 175.105C558.581 175.101 558.566 175.097 558.55 175.093L578.842 156.37L578.845 156.362ZM582.835 160.589C584.313 162.186 585.764 163.792 587.21 165.414L571.606 178.583L564.726 176.739L582.843 160.591L582.835 160.589ZM589.084 167.512C589.925 168.476 590.745 169.46 591.577 170.43L579.075 180.576L574.914 179.461L589.084 167.512ZM593.402 172.582C594.978 174.474 596.521 176.391 598.048 178.311L590.914 183.748L582.428 181.474L593.404 172.574L593.402 172.582ZM599.773 180.521C601.197 182.355 602.594 184.19 603.976 186.055L589.299 196.609L592.024 186.439L599.781 180.523L599.773 180.521ZM605.634 188.297C609.082 193.042 612.385 197.891 615.539 202.825L585.193 222.021L582.663 221.343L588.149 200.869L605.634 188.297ZM617.026 205.172C618.021 206.757 619.011 208.358 619.976 209.96L595.317 224.733L588.853 223.001L617.026 205.172ZM621.386 212.345C622.276 213.851 623.145 215.369 624.013 216.895L605.432 227.444L599.046 225.733L621.394 212.347L621.386 212.345ZM626.893 222.101C627.377 222.986 627.852 223.878 628.327 224.769L626.211 232.667L617.911 236.91L619.103 232.459C619.29 231.762 618.817 231.022 618.041 230.814L615.479 230.127L616.012 228.137L623.838 223.785L626.887 222.091L626.893 222.101ZM630.299 228.598C630.562 229.122 630.835 229.64 631.095 230.172L629.684 230.894L630.299 228.598ZM632.325 232.634C634.422 236.908 636.409 241.245 638.303 245.615L624.016 252.049L628.725 234.474L632.325 232.634ZM639.39 248.14C640.697 251.253 641.957 254.387 643.161 257.54L642.876 258.606L634.347 262.039C634.347 262.039 634.347 262.039 634.337 262.045L625.517 265.594L619.764 267.915L623.1 255.465L639.382 248.138L639.39 248.14ZM644.489 261.045C645.459 263.665 646.372 266.303 647.266 268.953L634.831 273.489L621.856 270.013L626.781 268.024L635.601 264.475C635.601 264.475 635.601 264.475 635.609 264.477L644.27 260.986L644.481 261.043L644.489 261.045ZM648.118 271.541C648.775 273.539 649.405 275.547 650.014 277.566L639.405 274.723L648.118 271.541ZM650.901 280.525C651.027 280.962 651.152 281.406 651.276 281.851L630.935 288.376L614.246 283.904L635.105 276.292L650.901 280.525ZM652.013 284.459C652.587 286.519 653.14 288.59 653.666 290.671L646.88 292.649L635.769 289.671L652.013 284.459ZM654.322 293.299C654.511 294.097 654.701 294.895 654.89 295.693L649.005 297.316L649.723 294.636L654.314 293.297L654.322 293.299ZM655.518 298.331C656.103 300.914 656.647 303.521 657.166 306.129L654.33 316.714L645.017 318.687L643.411 318.256L648.21 300.345L655.526 298.333L655.518 298.331ZM658.395 312.731C658.571 313.736 658.739 314.738 658.907 315.741L657.509 316.038L658.395 312.731ZM659.62 320.29L659.786 321.393L657.085 321.912L650.739 320.211L655.547 319.19L659.622 320.282L659.62 320.29ZM660.352 325.516C663.302 348.074 663.674 371.192 661.27 394.49L561.793 367.835C562.015 356.163 561.214 344.611 559.419 333.289L568.121 300.812L599.211 309.142L644.695 321.33L656.746 324.559L660.342 325.522L660.352 325.516ZM660.89 398.008C660.182 404.159 659.288 410.318 658.19 416.482L648.208 413.807L649.495 409.004L652.504 397.776L660.892 398L660.89 398.008ZM645.403 413.056L629.309 408.743L646.262 409.851L645.403 413.056ZM616.264 405.248L593.808 399.231L648.546 401.326L646.959 407.25L616.264 405.248ZM582.298 396.147L581.224 395.859L637.621 397.374L643.634 397.533L645.402 397.578L649.52 397.691L649.249 398.701L582.3 396.139L582.298 396.147ZM570.247 392.918L560.093 390.197C560.129 389.904 560.165 389.612 560.204 389.311L574.041 393.019L570.255 392.92L570.247 392.918ZM560.524 386.676C560.768 384.575 560.97 382.471 561.145 380.376L612.145 394.042L603.775 393.814L585.33 393.323L560.524 386.676ZM561.363 377.714C561.527 375.314 561.641 372.917 561.726 370.53L653.642 395.159L651.331 395.102L637.557 394.729L623.432 394.353L561.361 377.722L561.363 377.714ZM558.224 326.528C556.859 319.494 555.122 312.562 553.015 305.758L554.29 305.293L558.127 303.886L562.187 302.396L564.963 301.376L558.222 326.535L558.224 326.528ZM552.191 303.161C551.702 301.661 551.198 300.157 550.674 298.665L554.779 297.01L562.959 299.202L556.952 301.405L555.547 301.918L552.195 303.145L552.191 303.161ZM549.75 296.099C548.948 293.919 548.119 291.749 547.242 289.599L555.752 285.765L553.375 294.635L549.752 296.091L549.75 296.099ZM546.19 287.067C545.869 286.292 545.528 285.529 545.196 284.76L557.613 278.849L556.675 282.351L546.198 287.069L546.19 287.067ZM544.08 282.252C543.053 280.003 541.991 277.762 540.887 275.551L593.938 247.492L608.723 251.453L587.958 261.35L584.607 262.946L577.772 266.204L574.249 267.88L566.267 271.687L565.008 272.281L559.087 275.104L554.36 277.356L553.503 277.765L548.217 280.287L544.087 282.254L544.08 282.252ZM539.629 273.098C537.1 268.213 534.367 263.433 531.449 258.78L562.487 239.064L590.021 246.442L539.629 273.098ZM529.949 256.446C528.077 253.56 526.134 250.721 524.119 247.931L543.62 234.009L558.836 238.086L529.949 256.446ZM522.462 245.681C521.492 244.38 520.511 243.092 519.509 241.816L544.344 222.874L541.966 231.752L522.464 245.673L522.462 245.681ZM517.761 239.626C515.807 237.205 513.798 234.828 511.728 232.493L512.379 231.945L513.13 231.306L525.02 221.249C525.042 221.229 525.064 221.21 525.08 221.181C525.124 221.142 525.158 221.109 525.194 221.069C525.22 221.034 525.247 220.999 525.265 220.962C525.291 220.927 525.317 220.892 525.336 220.855C525.356 220.81 525.378 220.757 525.391 220.71C525.399 220.679 525.414 220.657 525.42 220.634L526.711 215.815L552.121 193.819L545.523 218.445L517.753 239.624L517.761 239.626ZM509.835 230.407C506.958 227.259 503.976 224.192 500.883 221.222L505.593 216.682L521.139 220.847L517.512 223.915L516.598 224.694L511.278 229.189L510.845 229.552L509.833 230.414L509.835 230.407ZM498.816 219.283C496.505 217.127 494.148 215.017 491.733 212.968L502.405 215.827L498.816 219.283ZM486.78 208.92C481.078 204.402 475.115 200.176 468.88 196.271L489.203 120.426L545.241 135.441L523.112 218.025L522.957 218.605L486.782 208.912L486.78 208.92ZM466.303 194.699L466.274 194.683L466.326 194.613L466.303 194.699ZM463.796 193.213C461.668 191.971 459.506 190.762 457.324 189.598L461.565 173.77L479.654 144.875L468.428 186.77L463.794 193.221L463.796 193.213ZM454.699 188.206C454.153 187.925 453.605 187.652 453.056 187.379L456.32 182.157L454.699 188.206ZM450.463 186.088C450.151 185.937 449.828 185.792 449.516 185.641L454.564 177.269L460.082 168.116L458.862 172.668L450.463 186.088ZM446.893 184.401C444.419 183.259 441.922 182.17 439.388 181.13L441.116 174.682L451.137 177.367L449.809 179.564L449.188 180.598L449.186 180.606C449.186 180.606 449.186 180.606 449.184 180.614L446.902 184.395L446.893 184.401ZM644.875 466.114C644.429 467.339 643.972 468.543 643.513 469.755L616.019 462.388L608.659 458.703C608.643 458.699 608.627 458.695 608.614 458.682L601.447 455.091C601.361 455.034 601.264 454.991 601.166 454.949L598.694 453.707L644.671 466.026L644.867 466.112L644.875 466.114ZM642.592 472.221C642.48 472.51 642.364 472.79 642.253 473.079L631.753 470.266L627.697 468.23L642.599 472.223L642.592 472.221ZM641.267 475.536C640.492 477.486 639.688 479.421 638.871 481.343L634.145 478.859L631.194 477.304L632.311 473.136L641.267 475.536ZM637.83 483.785C637.521 484.5 637.204 485.213 636.887 485.926L620.864 481.633L596.076 467.71L618.955 473.84L620.971 474.901L628.868 479.058L632.812 481.139L637.75 483.739L637.838 483.787L637.83 483.785ZM635.782 488.359C630.512 499.939 624.55 511.064 617.967 521.687L609.755 519.486L609.747 519.484L523.591 496.399L530.322 471.279C532.346 468.143 534.289 464.935 536.14 461.66L569.534 470.608L569.542 470.61L569.55 470.612L619.978 484.125C619.978 484.125 619.978 484.124 619.986 484.127C619.986 484.127 619.986 484.127 619.994 484.129L635.79 488.361L635.782 488.359ZM614.971 526.443C614.181 527.668 613.379 528.872 612.578 530.076L598.09 519.082L600.323 519.68L608.793 521.949L614.973 526.435L614.971 526.443ZM611.084 532.296C610.116 533.717 609.148 535.137 608.158 536.543L580.208 514.298L591.256 517.259L611.084 532.296ZM606.595 538.71C605.7 539.949 604.804 541.195 603.896 542.421L600.471 541.504L562.328 509.507L565.297 510.303L573.736 512.564L606.602 538.712L606.595 538.71ZM602.183 544.675C591.868 558.287 580.46 570.9 568.118 582.424L579.837 538.687L599.441 543.94C599.441 543.94 599.441 543.94 599.449 543.942L602.183 544.675ZM564.131 586.083C563.058 587.047 561.987 588.003 560.911 588.949L543.767 568.215L545.906 560.231L547.554 554.08L566.988 575.42L564.129 586.091L564.131 586.083ZM558.846 590.731C555.662 593.463 552.427 596.132 549.139 598.719L524.181 565.621L541.701 570.315C541.803 570.342 541.907 570.362 542.007 570.363L558.838 590.728L558.846 590.731ZM541.694 604.408C540.981 604.939 540.258 605.476 539.531 605.995L518.281 600.302L520.836 590.766L520.918 590.46L534.168 594.011L537.519 598.646L541.552 604.219L541.686 604.406L541.694 604.408ZM536.758 607.973C533.877 610.015 530.969 611.998 528.024 613.93L515.527 610.581L517.601 602.84L536.758 607.973ZM525.062 615.866C520.775 618.605 516.416 621.241 511.996 623.76L514.164 615.667L514.845 613.128L525.062 615.866ZM508.464 625.753C507.508 626.278 506.537 626.799 505.584 627.316L484.068 621.551L452.351 613.053C452.351 613.053 452.351 613.053 452.343 613.051L436.093 608.696L438.73 598.855L448.885 601.576C449.66 601.784 450.438 601.388 450.627 600.683L454.37 586.712L486.589 595.345C486.675 595.368 486.764 595.384 486.854 595.391C486.887 595.392 486.921 595.392 486.954 595.393C487.013 595.392 487.063 595.396 487.124 595.388C487.159 595.38 487.195 595.373 487.238 595.368C487.291 595.357 487.335 595.352 487.388 595.341C487.424 595.334 487.461 595.319 487.507 595.306C487.534 595.296 487.562 595.287 487.59 595.277C487.608 595.274 487.62 595.26 487.637 595.257C487.685 595.236 487.725 595.213 487.765 595.19C487.804 595.167 487.836 595.142 487.866 595.125C487.906 595.102 487.932 595.067 487.972 595.044C488.006 595.011 488.037 594.986 488.064 594.951C488.098 594.918 488.116 594.881 488.142 594.846C488.168 594.811 488.194 594.776 488.213 594.739C488.231 594.702 488.25 594.665 488.268 594.628C488.288 594.583 488.299 594.544 488.319 594.499C488.323 594.483 488.335 594.469 488.34 594.454L492.337 579.535L518.953 586.667L508.479 625.757L508.464 625.753ZM502.193 629.129C493.592 633.618 484.767 637.686 475.763 641.328L480.583 623.338L502.193 629.129ZM472.395 642.676C470.042 643.591 467.682 644.47 465.31 645.33L464.393 642.925L464.332 642.775L470.282 620.57L477.78 622.579L472.397 642.669L472.395 642.676ZM462.656 646.273L462.404 646.365L458.267 645.256L447.181 614.388L450.888 615.381L452.751 620.273L454.566 625.034L461.484 643.187L461.682 643.702L462.669 646.285L462.656 646.273ZM457.932 647.887C438.101 654.482 417.5 659.031 396.439 661.349L395.044 660.975L396.994 653.696L396.997 653.688L402.527 633.05L414.781 636.333C414.781 636.333 414.781 636.333 414.789 636.336L426.338 639.43C426.338 639.43 426.338 639.43 426.346 639.432L457.93 647.895L457.932 647.887ZM370.081 663.062C354.214 663.387 338.162 662.428 322.064 660.139L333.972 615.697L379.503 627.897L370.081 663.062ZM323.926 612.039L332.599 579.672L332.48 583.377L323.626 616.418L323.776 614.199L323.926 612.039ZM335.889 567.394L336.193 566.258L336.151 568.64L336.007 576.042L335.94 579.425L335.88 582.625L335.877 582.859L335.391 582.729L335.525 578.751L335.527 578.743L335.691 573.9L335.693 573.892C335.693 573.892 335.693 573.892 335.695 573.884L335.846 569.247C335.846 569.247 335.848 569.239 335.84 569.237C335.84 569.237 335.842 569.229 335.844 569.221L335.847 569.18L335.902 567.406L335.889 567.394ZM339.196 560.537C341.324 560.805 343.443 561.045 345.565 561.245L338.674 586.96L338.712 584.719L338.708 584.702L338.77 581.527L338.876 576.24L338.905 574.753L338.998 570.083L339.049 567.636L339.191 560.553L339.196 560.537ZM348.504 561.495C353.118 561.858 357.715 562.065 362.289 562.106L363.719 577.832C363.722 577.85 363.726 577.868 363.728 577.893C363.735 577.929 363.736 577.954 363.746 577.982C363.757 578.036 363.77 578.081 363.788 578.136C363.798 578.164 363.809 578.184 363.819 578.212C363.843 578.277 363.877 578.337 363.912 578.396C363.918 578.406 363.923 578.416 363.937 578.428C363.977 578.498 364.027 578.561 364.085 578.627C364.099 578.639 364.12 578.654 364.139 578.676C364.178 578.719 364.227 578.758 364.275 578.796C364.302 578.82 364.324 578.834 364.353 578.85C364.404 578.881 364.454 578.911 364.505 578.941C364.526 578.956 364.548 578.97 364.579 578.978C364.661 579.017 364.745 579.048 364.831 579.071L364.839 579.073L407.565 590.521L401.101 614.646L390.868 611.904L338.763 597.943L348.524 561.517L348.504 561.495ZM365.18 562.1C366.079 562.097 366.972 562.085 367.876 562.066L365.863 569.58L365.18 562.1ZM370.896 561.985C388.3 561.375 405.35 558.453 421.655 553.45L457.682 563.103L448.157 598.652L410.649 588.602L366.905 576.88L370.896 561.985ZM426.3 551.973C427.766 551.484 429.231 550.97 430.68 550.451L431.894 553.472L426.292 551.971L426.3 551.973ZM433.317 549.478C438.426 547.555 443.446 545.432 448.369 543.107L450.801 548.008L456.842 560.157L435.279 554.379L433.309 549.476L433.317 549.478ZM450.876 541.897C452.519 541.095 454.158 540.274 455.79 539.418L457.238 542.099L459.171 545.665C459.171 545.665 459.171 545.665 459.177 545.675L459.215 545.752C459.215 545.752 459.221 545.762 459.227 545.772L459.822 546.872L452.363 544.874L450.884 541.899L450.876 541.897ZM458.232 538.107C459.038 537.668 459.837 537.227 460.627 536.784L463.097 541.107L462.022 545.119L461.741 544.599C461.741 544.599 461.741 544.599 461.734 544.597L459.8 541.03C459.8 541.03 459.8 541.03 459.802 541.022L458.224 538.105L458.232 538.107ZM463.043 535.416C463.858 534.946 464.677 534.459 465.488 533.971L464.444 537.866L463.815 536.765L463.043 535.416ZM469.084 531.769C470.609 530.809 472.121 529.837 473.624 528.837L469.045 545.926L466.491 541.446L469.084 531.769ZM477.294 526.327C484.888 521.022 492.121 515.184 498.928 508.836L552.811 523.274L540.989 567.395L471.294 548.72L477.296 526.319L477.294 526.327ZM501.175 506.718C501.819 506.101 502.449 505.472 503.085 504.853L546.03 516.36L549.675 519.713L501.175 506.718ZM505.225 502.697C507.836 500.037 510.385 497.294 512.852 494.479L518.556 496.007L520.845 498.182C520.859 498.194 520.873 498.206 520.888 498.211C520.956 498.271 521.032 498.333 521.112 498.38C521.141 498.396 521.17 498.412 521.191 498.426C521.287 498.477 521.393 498.522 521.51 498.554L528.86 500.523L541.863 512.514L505.217 502.695L505.225 502.697ZM516.431 490.273C519.536 486.52 522.514 482.648 525.357 478.649L521.064 494.672L516.431 490.273ZM537.459 459.276C538.61 457.174 539.719 455.044 540.8 452.89L541.442 453.062L561.733 465.78L537.459 459.276ZM542.067 450.324C542.956 448.48 543.815 446.619 544.648 444.734L554.466 447.365L576.472 459.728L542.585 450.648L542.067 450.324ZM546.706 439.97C546.751 439.864 546.798 439.751 546.843 439.645L561.471 443.565L564.908 445.376L566.681 446.313L571.221 448.705L572.893 449.581L555.53 444.929L546.706 439.97ZM573.028 446.662L584.875 449.836L584.155 452.524L579.076 449.853L573.018 446.667L573.028 446.662ZM206.378 618.291L206.084 618.103L206.096 618.056L213.054 608.793L213.321 608.864L211.881 610.822L206.573 618.032L206.388 618.285L206.378 618.291ZM203.51 616.489C184.125 604.182 166.432 589.792 150.646 573.705L181.596 581.998C181.596 581.998 181.596 581.998 181.604 582L197.008 586.127L192.754 602.002C192.567 602.699 193.041 603.439 193.817 603.647L206.071 606.93L203.51 616.489ZM147.088 570.03C146.053 568.939 145.039 567.835 144.024 566.732L144.501 566.331L148.399 563.101L164.5 567.415L158.355 573.049L147.088 570.03ZM127.121 546.667C126.6 545.981 126.068 545.301 125.549 544.608L125.57 544.53L128.853 545.409L127.114 546.665L127.121 546.667ZM122.514 540.545C121.033 538.519 119.586 536.46 118.157 534.397L118.415 533.434L124.017 534.935L122.514 540.545ZM115.029 529.805C105.047 514.811 96.4482 498.92 89.3027 482.367L93.7976 465.592L154.035 481.733L139.406 536.329L132.707 534.534L115.031 529.798L115.029 529.805ZM87.467 478.029C86.6824 476.131 85.9155 474.229 85.1706 472.308L89.4447 470.649L87.467 478.029ZM84.1981 469.763C83.4012 467.66 82.6319 465.548 81.8805 463.432L90.7422 465.806L90.3181 467.389L84.1981 469.763ZM80.8291 460.429C80.1522 458.442 79.4931 456.452 78.8596 454.46L99.4585 459.979L92.1358 462.737C92.1159 462.748 92.096 462.76 92.0683 462.769C92.0207 462.79 91.9732 462.811 91.9334 462.834C91.8937 462.857 91.8618 462.882 91.8242 462.897C91.7844 462.92 91.7504 462.953 91.7185 462.978C91.7065 462.991 91.6866 463.003 91.6746 463.016C91.6746 463.016 91.6646 463.022 91.6625 463.03C91.6505 463.043 91.6385 463.057 91.6264 463.071C91.6003 463.105 91.5663 463.138 91.5401 463.173C91.5281 463.187 91.516 463.2 91.5019 463.222C91.4977 463.238 91.4878 463.243 91.4836 463.259C91.4815 463.267 91.4794 463.275 91.4673 463.288L80.8192 460.435L80.8291 460.429ZM77.602 450.377C66.586 413.952 62.4403 375.11 66.2371 335.742L106.91 346.64L79.0124 450.755L77.6099 450.379L77.602 450.377ZM66.4942 333.09C66.546 332.583 66.59 332.074 66.6496 331.569L114.539 344.401L108.781 344.42L66.4942 333.09ZM66.9694 328.934L67.0174 328.536L73.9101 328.888L93.4517 329.891L147.194 344.291L141.269 344.308L141.261 344.306L124.577 344.362L66.9715 328.926L66.9694 328.934ZM147.5 332.65L167.621 338.041C167.564 338.471 167.514 338.911 167.457 339.341L141.288 332.329L144.435 332.492L147.5 332.65ZM167.128 341.982C167.044 342.732 166.971 343.477 166.897 344.221L157.232 344.252L106.004 330.525L111.985 330.835L128.727 331.693L167.128 341.982ZM166.632 346.871C165.038 364.919 165.959 382.793 169.157 400.068L169.056 400.444L155.407 403.681L155.397 403.687L150.573 404.83C149.99 404.968 149.609 405.42 149.561 405.944L148.908 408.381C148.883 408.442 148.861 408.494 148.844 408.557C148.827 408.62 148.82 408.677 148.811 408.741L143.01 430.39L135.195 432.949L158.254 346.894L166.626 346.861L166.632 346.871ZM169.735 403.053C170.437 406.541 171.239 410.006 172.124 413.443L152.003 408.051L152.227 407.213L156.253 406.26L156.263 406.254C156.271 406.256 156.273 406.248 156.281 406.25L156.309 406.241C156.317 406.243 156.327 406.237 156.327 406.237L169.725 403.058L169.735 403.053ZM174.348 421.345C177.153 430.62 180.635 439.657 184.747 448.384L184.327 449.951L178.557 452.68L177.732 453.063L171.682 455.927L170.855 456.318L165.401 458.904L164.121 459.511L174.352 421.329L174.348 421.345ZM186.481 451.973C186.797 452.612 187.115 453.243 187.44 453.876L185.569 454.811L182.325 453.941L186.288 452.064L186.481 451.973ZM189.99 458.716C190.299 459.286 190.616 459.858 190.933 460.43L190.059 460.901C190.049 460.907 190.049 460.907 190.039 460.913L190.029 460.918L189.285 461.315C189.285 461.315 189.285 461.315 189.283 461.323C189.283 461.323 189.283 461.323 189.275 461.321L183.449 464.446C183.449 464.446 183.449 464.446 183.441 464.444L183.431 464.45L183.187 464.577L175.995 462.65L186.027 457.646L189.992 458.708L189.99 458.716ZM192.288 462.834C192.649 463.459 193.02 464.08 193.382 464.705L192.552 467.8L182.984 473.298L184.695 466.913L184.891 466.806C184.949 466.779 184.998 466.751 185.056 466.724L190.742 463.679C190.79 463.658 190.83 463.635 190.872 463.605L191.569 463.229L192.276 462.847L192.288 462.834ZM198.75 473.316C199.349 474.215 199.958 475.109 200.566 476.003L197.323 488.108L188.5 494.142L194.459 471.906C194.654 472.117 194.903 472.285 195.216 472.369L198.758 473.318L198.75 473.316ZM202.739 479.113C203.587 480.306 204.447 481.485 205.318 482.651L201.001 485.6L202.739 479.113ZM207.007 484.875C207.132 485.034 207.255 485.202 207.38 485.361L206.431 488.903L201.713 492.283L201.163 492.673L198.606 494.507L199.887 489.727L207.001 484.865L207.007 484.875ZM210.561 489.38C211.965 491.099 213.4 492.794 214.867 494.464L188.672 514.847L178.783 512.197L179.158 511.928L184.462 508.117L185.233 507.56L190.909 503.488L195.496 500.19L197.097 499.041L197.255 498.923L203.256 494.611L203.557 494.397L208.641 490.746L209.243 490.32L210.563 489.372L210.561 489.38ZM216.731 496.567C217.662 497.606 218.618 498.643 219.571 499.663L198.105 517.374L192.072 515.758L216.731 496.567ZM221.508 501.71C221.872 502.076 222.234 502.45 222.59 502.814L218.659 506.17C218.637 506.189 218.621 506.219 218.599 506.238C218.565 506.271 218.529 506.311 218.495 506.344C218.469 506.379 218.442 506.414 218.424 506.451C218.398 506.486 218.38 506.523 218.361 506.56C218.347 506.582 218.339 506.613 218.325 506.635L198.818 523.335L199.821 519.589L221.503 501.7L221.508 501.71ZM224.581 504.817C225.663 505.888 226.757 506.946 227.86 507.997L222.532 506.57L224.581 504.817ZM232.032 511.828C242.52 521.205 254.081 529.518 266.595 536.566L245.628 614.817L195.897 601.492L218.966 515.398L220.734 508.8L232.032 511.828ZM269.211 538.023C270.186 538.553 271.171 539.077 272.168 539.588L256.865 596.699L250.763 606.871L269.211 538.023ZM274.803 540.94C276.07 541.574 277.348 542.193 278.634 542.815L270.125 574.571L263.655 585.367L262.289 587.646L274.801 540.948L274.803 540.94ZM281.299 544.058C282.481 544.601 283.66 545.119 284.848 545.639L282.734 553.529L276.598 563.768L275.551 565.511L281.299 544.058ZM85.3728 255.362C86.4793 252.518 87.6385 249.696 88.8326 246.901L154.679 281.567L120.784 272.484L85.3728 255.362ZM89.8733 244.459C91.6107 240.482 93.4202 236.549 95.3132 232.681L119.071 246.597L118.08 250.295C118.073 250.318 118.075 250.344 118.069 250.368C118.056 250.415 118.053 250.456 118.049 250.505C118.046 250.546 118.043 250.588 118.049 250.631C118.054 250.674 118.051 250.716 118.056 250.759C118.061 250.802 118.067 250.846 118.082 250.883C118.087 250.927 118.102 250.964 118.117 251.002C118.132 251.04 118.145 251.085 118.168 251.125C118.18 251.145 118.191 251.165 118.193 251.19C118.193 251.19 118.193 251.19 118.2 251.192C118.212 251.212 118.218 251.222 118.231 251.234C118.254 251.274 118.277 251.314 118.302 251.345C118.325 251.385 118.358 251.419 118.383 251.451C118.416 251.485 118.449 251.519 118.482 251.553C118.517 251.579 118.549 251.613 118.584 251.639C118.627 251.668 118.67 251.696 118.713 251.724C118.734 251.738 118.756 251.753 118.783 251.777L158.092 274.033L160.949 275.655L162.633 276.61L181.438 287.259C181.254 287.696 181.061 288.132 180.875 288.577L166.238 284.656L89.8754 244.451L89.8733 244.459ZM96.4808 230.298C98.7655 225.721 101.163 221.224 103.665 216.805L123.543 229.874L120.654 240.655L119.775 243.938L96.4829 230.291L96.4808 230.298ZM104.976 214.486C109.706 206.297 114.792 198.38 120.224 190.766L131.611 199.797L125.126 224L124.273 227.181L104.981 214.496L104.976 214.486ZM121.79 188.591C124.453 184.921 127.191 181.313 130.009 177.785L136.081 183.082L134.943 187.329L132.357 196.982L121.788 188.599L121.79 188.591ZM131.69 175.682C133.92 172.938 136.203 170.249 138.518 167.594L139.885 168.884L136.854 180.198L131.682 175.68L131.69 175.682ZM145.239 160.157C146.062 159.278 146.893 158.4 147.723 157.531L171.228 163.829L185.285 167.596L181.802 180.594L170.318 223.453C170.129 224.159 170.605 224.891 171.38 225.099L199.391 232.604L211.998 235.982L211.568 237.588C203.69 247.058 196.644 257.339 190.571 268.342L121.221 249.759L145.235 160.14L145.239 160.157ZM149.813 155.37C151.157 153.992 152.512 152.633 153.882 151.279L170.54 155.742L176.539 162.531L154.068 156.51L149.821 155.372L149.813 155.37ZM156.075 149.146C157.627 147.647 159.198 146.17 160.783 144.705L167.381 152.175L156.075 149.146ZM162.772 142.861C165.134 140.723 167.534 138.628 169.95 136.572L170.368 137.078C170.376 137.08 170.382 137.09 170.382 137.09L176.99 145.117C176.99 145.117 176.997 145.12 176.995 145.127L183.451 152.971C183.451 152.971 183.451 152.971 183.457 152.981L183.507 153.045C183.507 153.045 183.513 153.054 183.521 153.057L187.157 157.474L172.113 153.443L162.756 142.857L162.772 142.861ZM172.028 134.802C175.382 131.998 178.801 129.269 182.275 126.614L187.602 133.718L187.226 135.121C187.222 135.137 187.218 135.152 187.214 135.168C187.209 135.184 187.205 135.199 187.199 135.223C187.191 135.254 187.2 135.282 187.192 135.313C187.189 135.354 187.186 135.396 187.184 135.437C187.179 135.453 187.175 135.468 187.181 135.478C187.18 135.512 187.19 135.539 187.191 135.565C187.196 135.608 187.202 135.652 187.207 135.695C187.21 135.713 187.208 135.721 187.212 135.738C187.221 135.766 187.231 135.794 187.24 135.822C187.255 135.859 187.268 135.905 187.283 135.942C187.289 135.952 187.293 135.97 187.306 135.982C187.31 136 187.323 136.012 187.329 136.022C187.335 136.032 187.341 136.042 187.346 136.052C187.369 136.091 187.39 136.139 187.423 136.173C187.435 136.193 187.44 136.203 187.446 136.213L187.781 136.655L193.55 144.273L190.176 156.864L185.735 151.467C185.735 151.467 185.735 151.467 185.727 151.465C185.727 151.465 185.727 151.465 185.73 151.457L179.274 143.613L179.255 143.591C179.235 143.569 179.224 143.549 179.204 143.527L172.654 135.566C172.654 135.566 172.646 135.564 172.649 135.556C172.641 135.554 172.635 135.544 172.629 135.534L172.598 135.493C172.591 135.491 172.593 135.483 172.585 135.481L172.033 134.812L172.028 134.802ZM184.469 124.976C186.717 123.295 188.982 121.642 191.272 120.022L189.626 126.165L188.505 130.349L184.471 124.969L184.469 124.976ZM194.955 117.465C210.328 106.947 226.651 97.8674 243.709 90.3703L265.24 96.1397L258.01 123.124L239.448 118.151C238.672 117.943 237.894 118.339 237.705 119.044L231.325 142.856L230.645 145.394L190.364 134.601L194.953 117.473L194.955 117.465ZM247.609 88.6946C250.8 87.3493 254.019 86.0536 257.257 84.8134L288.097 93.0768L290.973 101.742L293.217 108.507L271.521 102.693L268.324 94.8496L268.318 94.8397C268.306 94.8198 268.295 94.7999 268.286 94.7722C268.259 94.7147 268.232 94.6572 268.196 94.6054C268.184 94.5855 268.173 94.5657 268.151 94.5515C268.14 94.5317 268.126 94.5196 268.115 94.4998C268.082 94.4658 268.059 94.426 268.026 94.392C267.993 94.358 267.958 94.3319 267.926 94.2979C267.891 94.2717 267.858 94.2377 267.823 94.2115C267.78 94.1832 267.743 94.1649 267.7 94.1366C267.663 94.1183 267.628 94.0921 267.583 94.0717C267.525 94.0392 267.454 94.0203 267.391 94.0036C267.368 93.9973 267.346 93.9831 267.323 93.9768L267.307 93.9726L247.609 88.6946ZM261.479 83.2237C271.663 79.503 282.06 76.3349 292.643 73.7287L288.182 90.3786L261.479 83.2237ZM295.845 72.966C298.678 72.2974 301.526 71.6665 304.379 71.0789L295.169 105.452L293.717 101.091L290.721 92.0584L295.835 72.9717L295.845 72.966ZM310.161 69.9661C336.911 65.066 364.596 63.7923 392.536 66.5173L382.387 104.393L335.446 91.8152L306.393 84.0304L310.161 69.9661ZM393.778 153.491L389.926 167.868C388.921 167.733 387.911 167.614 386.902 167.495L384.898 106.242L394.423 70.6929L393.778 153.491ZM384.013 167.183C381.946 166.965 379.887 166.783 377.828 166.634L373.462 104.731L382.042 107.03L384.013 167.183ZM374.936 166.455C374.274 166.421 373.613 166.378 372.951 166.343L371.882 154.568C371.878 154.551 371.875 154.533 371.869 154.523C371.866 154.472 371.853 154.426 371.842 154.373C371.835 154.337 371.822 154.292 371.806 154.254C371.793 154.209 371.771 154.169 371.755 154.132C371.732 154.092 371.717 154.054 371.694 154.014C371.671 153.975 371.646 153.943 371.623 153.903C371.601 153.863 371.568 153.829 371.543 153.797C371.51 153.763 371.477 153.729 371.442 153.703C371.409 153.669 371.374 153.643 371.339 153.617C371.304 153.591 371.261 153.562 371.226 153.536C371.183 153.508 371.149 153.482 371.104 153.461C371.067 153.443 371.022 153.423 370.982 153.412C370.93 153.39 370.885 153.369 370.83 153.354C370.814 153.35 370.799 153.346 370.783 153.342L361.357 150.816L354.665 99.6943L370.524 103.944L374.936 166.455ZM370.058 166.232C369.651 166.215 369.25 166.208 368.843 166.191L369.748 162.814L370.058 166.232ZM365.849 166.145C341.657 165.886 318.004 170.104 295.917 178.193L229.623 160.43L240.168 121.073L303.759 138.112L319.837 142.42L329.365 144.973L344.957 149.151L359.687 153.098L368.682 155.508L365.833 166.141L365.849 166.145ZM291.711 179.787C286.727 181.744 281.825 183.898 277.022 186.248L270.501 174.104L291.711 179.787ZM274.532 187.487C271.172 189.181 267.869 190.975 264.611 192.857L249.721 168.536L266.818 173.117L274.524 187.485L274.532 187.487ZM259.816 195.737C258.176 196.751 256.547 197.784 254.938 198.839L251.292 193.453L259.824 195.74L259.816 195.737ZM252.653 200.377C251.616 201.081 250.585 201.796 249.559 202.521L238.95 199.678L235.191 194.715L230.921 189.087L229.874 187.698L229.732 187.508L229.023 186.579L228.731 186.199L246.211 190.883L249.778 196.155L252.643 200.382L252.653 200.377ZM246.802 204.503C245.904 205.161 245.011 205.828 244.116 206.504L243.137 205.209L241.537 203.092L246.802 204.503ZM241.95 208.166C240.249 209.499 238.567 210.854 236.919 212.243L239.041 204.321L241.871 208.052L241.957 208.168L241.95 208.166ZM234.104 214.629C233.359 215.278 232.604 215.932 231.865 216.591L231.796 216.505L228.988 213.258L234.104 214.629ZM229.847 218.418C228.087 220.037 226.361 221.683 224.658 223.368L211.735 209.542L214.212 200.297L218.761 205.572L224.009 211.655L229.066 217.512L229.849 218.41L229.847 218.418ZM222.743 225.282C219.94 228.125 217.221 231.066 214.582 234.08L214.561 234.066C214.518 234.037 214.481 234.019 214.438 233.991C214.393 233.97 214.358 233.944 214.314 233.924C214.261 233.901 214.216 233.881 214.161 233.866C214.13 233.858 214.1 233.841 214.077 233.835L205.811 231.62L210.902 212.62L222.737 225.272L222.743 225.282ZM189.282 270.742C187.762 273.593 186.306 276.487 184.921 279.433L162.183 273.34L159.491 271.821L152.17 267.676L141.78 261.793L131.099 255.74L129.146 254.629L189.282 270.742ZM183.794 281.852C183.344 282.84 182.895 283.828 182.461 284.82L180.368 283.638L171.304 278.505L183.786 281.85L183.794 281.852ZM275.381 112.201L276.331 114.547L278.542 119.993L298.812 125.424L296.817 119.423L294.197 111.524L272.752 105.778L275.369 112.215L275.381 112.201ZM299.589 118.763L300.781 122.366L307.055 98.9544L304.72 90.4935L304.631 90.1674L303.438 85.8421L296.842 110.461L299.585 118.745C299.585 118.745 299.583 118.753 299.591 118.755L299.589 118.763ZM277.424 124.665L276.122 121.469L276.116 121.459L272.806 113.317L269.704 105.683L267.277 99.7255L260.805 123.882L279.1 128.784L277.439 124.703L277.418 124.655L277.424 124.665ZM336.916 94.9468L346.57 146.862L358.362 150.022L351.67 98.9001L336.908 94.9447L336.916 94.9468ZM280.143 123.89L282.108 128.716L282.503 129.687L301.973 134.904L299.82 128.399L279.801 123.034L280.145 123.882L280.143 123.89ZM306.648 86.8366L307.515 89.966L309.941 98.7451L312.341 107.433L314.624 115.712L316.792 123.574L318.852 131.021L320.796 138.058L321.366 140.101L327.799 141.824L315.003 89.0668L306.651 86.8288L306.648 86.8366ZM302.446 127.372L304.947 134.903C304.947 134.903 304.947 134.903 304.944 134.911L305.239 135.788L306.343 136.084L311.745 115.924L308.583 104.47L302.446 127.372ZM336.125 144.064L343.522 146.046L333.868 94.1302L318.135 89.9144L330.931 142.672L336.125 144.064ZM309.148 136.835L318.19 139.258L313.274 121.439L309.148 136.835ZM232.385 195.534L227.684 189.32L224.129 184.63L220.358 179.647L218.751 177.529L215.915 188.114L220.837 194.094C220.87 194.128 220.901 194.17 220.934 194.204L226.186 200.583C226.186 200.583 226.186 200.583 226.194 200.585L231.186 206.65C231.268 206.723 231.337 206.808 231.389 206.898L234.38 210.529L236.83 201.386L232.395 195.528L232.385 195.534ZM211.925 197.643L207.76 192.815L201.96 186.097L198.994 182.657L192.959 175.656L189.888 172.104L187.753 169.634L184.785 180.714L209.412 207.056L211.931 197.653L211.925 197.643ZM219.94 202.772L225.938 209.72L231.368 211.175L229.012 208.31C229.012 208.31 229.004 208.308 229.006 208.3C229.006 208.3 228.998 208.298 228.993 208.288L223.912 202.115L218.645 195.724L213.501 189.474L206.943 187.717L208.263 189.247L214.618 196.618L219.943 202.79L219.94 202.772ZM173.465 222.961L194.73 228.659L176.37 212.117L173.465 222.961ZM209.583 165.423L204.347 158.511L201.723 155.045L199.956 152.707L195.8 147.219L192.473 159.637L198.074 166.437C198.127 166.493 198.171 166.547 198.213 166.609L204.092 173.752C204.092 173.752 204.1 173.754 204.106 173.764L209.808 180.692C209.827 180.714 209.839 180.734 209.858 180.756L209.877 180.778L213.653 185.367L216.537 174.601L214.67 172.136L214.634 172.084L209.59 165.425L209.583 165.423ZM237.651 178.201L233.579 172.18L214.202 166.988L218.587 172.782L220.186 174.898L224.577 180.702L226.151 182.787L243.969 187.561L241.857 184.442L237.641 178.207L237.651 178.201ZM203.027 230.883L208.586 210.135L183.96 183.793L177.151 209.203L200.449 230.192L203.027 230.883ZM227.306 157.919L229.976 147.953L192.085 137.8L195.634 142.48L201.261 149.908L206.697 157.075L208.123 158.96L211.621 163.584L231.334 168.866L228.717 164.999L228.667 164.935L226.688 162.011L226.682 162.002C226.653 161.952 226.625 161.902 226.598 161.845C226.581 161.815 226.564 161.785 226.554 161.757C226.533 161.71 226.528 161.666 226.515 161.621C226.508 161.585 226.485 161.546 226.478 161.51C226.47 161.475 226.473 161.433 226.466 161.398C226.463 161.347 226.458 161.303 226.455 161.252C226.455 161.219 226.463 161.187 226.462 161.162C226.469 161.105 226.474 161.056 226.49 160.993C226.49 160.993 226.492 160.985 226.495 160.977L227.311 157.929L227.306 157.919ZM181.291 163.822L187.371 165.451C187.387 165.455 187.395 165.457 187.403 165.459C187.457 165.474 187.502 165.494 187.547 165.515C187.592 165.535 187.631 165.546 187.668 165.564C187.713 165.584 187.748 165.61 187.793 165.631C187.836 165.659 187.871 165.685 187.914 165.714C187.949 165.74 187.976 165.764 188.001 165.796C188.042 165.832 188.082 165.868 188.113 165.91C188.119 165.92 188.127 165.922 188.14 165.934L195.017 173.899L195.177 174.084L198.248 177.636L201.215 181.076L201.722 181.658L203.882 184.159L210.62 185.965L207.605 182.302L207.597 182.299L201.839 175.298C201.839 175.298 201.833 175.288 201.825 175.286L195.875 168.065C195.875 168.065 195.875 168.065 195.869 168.055C195.869 168.055 195.869 168.055 195.861 168.053L190.046 160.986L175.284 157.03L181.283 163.819L181.291 163.822ZM231.04 163.539L235.6 170.278L235.684 170.401L239.432 175.94L249.039 190.137L261.803 193.557L245.864 167.511L231.04 163.539ZM585.183 224.756L580.599 223.528C579.824 223.32 579.348 222.588 579.537 221.882L589.148 186.013L579.174 183.34L571.723 181.343L561.607 178.633L559.39 178.039L545.017 231.679L611.562 249.51L614.314 239.238L615.983 233.009L585.199 224.76L585.183 224.756ZM471.021 93.0983L465.176 105.103L462.984 113.283L468.581 102.203L471.021 93.0983ZM464.192 155.755L467.018 151.071L467.515 150.247L471.578 143.517L472.333 142.266L475.406 137.161L462.838 133.793L452.776 152.696L464.2 155.757L464.192 155.755ZM452.557 175.043L453.415 173.627L453.962 172.716L457.577 166.714L458.316 165.493L460.569 161.755L462.763 158.11L451.488 155.089L442.312 172.315L452.545 175.057L452.557 175.043ZM464.922 115.86L459.325 126.94L455.382 141.655L460.673 131.718L464.922 115.86ZM555.647 180.723L529.84 204.199L528.022 210.985L553.432 188.989L555.647 180.723ZM538.773 170.86L551.86 157.655L542.951 155.268L538.773 170.86ZM602.144 277.983L602.136 277.981L598.126 279.594L609.691 282.692L630.551 275.08L617.818 271.669L610.07 274.791L602.162 277.979L602.144 277.983ZM458.497 118.841L453.654 128.796L451.951 135.151L456.586 125.971L458.495 118.849L458.497 118.841ZM452.931 139.612L448.296 148.792L444.962 161.234L449.343 153.003L452.933 139.604L452.931 139.612ZM602.417 297.556L587.718 293.617L572.667 299.107L586.246 302.746L602.425 297.558L602.417 297.556ZM606.369 304.493L613.658 302.365L616.865 301.427L607.243 298.849L591.065 304.037L599.84 306.388L606.361 304.491L606.369 304.493ZM623.716 304.942L624.499 302.02L622.32 302.662L614.658 304.9L607.362 307.026L604.52 307.852L621.703 312.456L623.714 304.95L623.716 304.942ZM575.023 285.958L578.95 284.373L585.945 281.553C585.953 281.555 585.963 281.549 585.963 281.549C585.963 281.549 585.963 281.549 585.973 281.544L585.983 281.538L592.647 278.856L595.591 267.871L577.695 275.924L575.006 285.961L575.023 285.958ZM644.978 301.251L634.841 304.043L631.857 315.177L640.617 317.524L644.976 301.258L644.978 301.251ZM556.754 293.307L559.783 292.094L559.793 292.089L559.803 292.083C559.811 292.085 559.821 292.079 559.821 292.079L565.865 289.643C565.865 289.643 565.865 289.643 565.875 289.637L571.664 287.308L574.305 277.451L559.189 284.251L556.764 293.301L556.754 293.307ZM583.134 292.389L573.058 289.689L567.137 292.074C567.137 292.074 567.137 292.074 567.129 292.072L561.049 294.516C561.049 294.516 561.041 294.514 561.039 294.522L561.029 294.528C561.027 294.536 561.019 294.533 561.009 294.539L558.854 295.406L568.084 297.879L583.134 292.389ZM576.31 269.969L572.67 271.706L567.713 274.064L561.072 277.223L560.106 280.827L575.222 274.027L576.312 269.961L576.31 269.969ZM597.788 259.734L593.235 261.899L590.857 263.033L579.747 268.328L578.63 272.497L596.526 264.443L597.788 259.734ZM646.494 295.593L643.049 296.602L638.74 297.858L636.316 298.569L635.661 301.013L645.798 298.22L646.501 295.596L646.494 295.593ZM624.512 313.192L629.064 314.412L631.607 304.924L626.339 306.376L624.512 313.192ZM634.596 296.243L642.039 294.072L631.171 291.16L611.877 297.353L621.741 299.996L629.348 297.776L631.061 297.278L634.586 296.249L634.596 296.243ZM633.058 299.509L632.057 299.796L627.764 301.055L627.149 303.351L632.417 301.899L633.055 299.517L633.058 299.509ZM613.903 251.775C613.882 251.82 613.848 251.852 613.822 251.887C613.796 251.922 613.778 251.959 613.754 251.987C613.727 252.022 613.695 252.047 613.664 252.072C613.63 252.105 613.596 252.137 613.564 252.162C613.532 252.188 613.502 252.205 613.464 252.22C613.422 252.251 613.381 252.281 613.333 252.302C613.323 252.308 613.323 252.308 613.313 252.314L611.937 252.969L608.452 254.63L601.231 258.07L599.942 262.881L620.615 253.582L625.259 236.25L616.959 240.492L614.008 251.509C614.005 251.517 614.003 251.524 614.003 251.524C614.001 251.532 613.999 251.54 613.999 251.54C613.987 251.587 613.968 251.624 613.95 251.661C613.934 251.691 613.923 251.73 613.907 251.759L613.903 251.775ZM479.094 136.621L474.874 143.627L474.663 143.974L469.342 152.802L466.049 158.26L465.504 159.164L464.131 164.288L482.22 135.392L484.12 128.301L479.855 135.38L479.1 136.631L479.094 136.621ZM587.379 283.911C587.29 283.962 587.197 283.996 587.096 284.028L580.234 286.791L577.137 288.036L587.456 290.801L605.411 284.25L594.089 281.216L587.397 283.907L587.379 283.911ZM596.039 277.481L600.754 275.586C600.833 275.54 600.916 275.512 601.007 275.486L608.801 272.351L616.424 269.288L619.712 257.018L599.036 266.325L596.045 277.49L596.039 277.481ZM592.022 292.033L607.042 296.057L626.337 289.865L609.969 285.479L592.014 292.031L592.022 292.033ZM208.094 610.663L210.081 608.013L208.89 607.694L208.094 610.663ZM175.029 557.799L159.766 553.709L157.358 555.709L153.265 559.106L150.9 561.067L166.822 565.333L175.037 557.801L175.029 557.799ZM168.423 553.308L186.507 558.154L196.798 519.745L176.035 514.181L174.071 515.587L172.45 516.748L163.943 522.858L163.475 523.195L158.454 526.795L155.98 528.568L155.909 528.616L149.464 533.238L148.099 534.224L141.381 539.05C141.361 539.062 141.342 539.073 141.322 539.084C141.26 539.127 141.2 539.161 141.135 539.186C141.097 539.201 141.06 539.216 141.032 539.225C140.975 539.252 140.911 539.268 140.842 539.275C140.807 539.282 140.771 539.29 140.736 539.297C140.665 539.312 140.59 539.308 140.515 539.305C140.482 539.304 140.456 539.306 140.43 539.308C140.322 539.304 140.226 539.286 140.117 539.257L126.812 535.692L125.196 541.725L159.632 550.952L168.399 553.302L168.423 553.308ZM116.414 441.957L113.231 442.994L108.084 444.68L105.362 445.563L160.883 460.44L172.705 416.319L151.346 410.596L145.663 431.806C145.654 431.838 145.638 431.867 145.632 431.891C145.611 431.935 145.599 431.982 145.578 432.027C145.56 432.064 145.534 432.099 145.515 432.136C145.489 432.171 145.471 432.209 145.445 432.244C145.419 432.279 145.385 432.311 145.353 432.336C145.319 432.369 145.292 432.404 145.261 432.429C145.229 432.454 145.187 432.485 145.147 432.508C145.107 432.531 145.075 432.556 145.038 432.571C144.99 432.592 144.941 432.621 144.885 432.639C144.857 432.649 144.835 432.668 144.808 432.677L133.698 436.31L116.422 441.959L116.414 441.957ZM114.783 454.218L120.06 452.231L100.786 447.066L100.234 447.246L95.0617 448.934L114.775 454.216L114.783 454.218ZM141.431 346.963L141.415 346.959L125.589 347.009L99.4251 444.653L100.133 444.423L106.999 442.181L112.143 440.502L115.326 439.466L131.92 434.045L155.264 346.924L141.437 346.973L141.431 346.963ZM153.787 470.657L121.952 462.126L109.58 467.117L142.951 476.059L153.787 470.657ZM155.511 520.07L144.82 527.375L142.904 534.528L153.716 526.769L155.509 520.078L155.511 520.07ZM161.332 476.315C161.352 476.303 161.382 476.286 161.402 476.274L162.629 475.612C162.629 475.612 162.629 475.612 162.636 475.614L165.853 473.89L157.798 471.732L146.962 477.133L155.534 479.43L161.33 476.322L161.332 476.315ZM167.247 476.27L164.218 477.894C164.18 477.909 164.148 477.934 164.11 477.949L162.895 478.598L162.893 478.606L157.05 481.734L155.005 489.366L165.326 483.44L167.25 476.263L167.247 476.27ZM109.257 456.289L110.526 455.815L110.561 455.808L90.4952 450.431L83.0599 452.856L103.698 458.386L109.264 456.292L109.257 456.289ZM105.194 465.933L117.566 460.943L110.005 458.917L104.439 461.011L97.1163 463.769L105.187 465.931L105.194 465.933ZM82.1507 450.295L96.1388 445.729L122.588 347.02L109.813 347.057L82.1528 450.287L82.1507 450.295ZM164.322 487.218L154.003 493.137L145.939 523.232L156.63 515.927L164.322 487.218ZM182.039 456.577L178.678 455.677L172.801 458.46L168.308 460.59L171.999 461.579L182.039 456.577ZM120.613 454.932L119.344 455.406L114.421 457.262L114.243 457.332L121.631 459.311L131.572 455.307L124.591 453.437L120.613 454.932ZM174.945 503.426L184.855 496.651L191.576 471.57L182.007 477.068L174.945 503.426ZM168.458 463.352L164.65 462.331L162.669 463.27C162.631 463.285 162.596 463.292 162.566 463.31C162.528 463.325 162.481 463.345 162.443 463.361C162.398 463.374 162.344 463.384 162.293 463.388C162.258 463.395 162.214 463.4 162.179 463.407C162.118 463.416 162.068 463.411 162.009 463.412C161.976 463.412 161.943 463.411 161.901 463.409C161.811 463.401 161.715 463.384 161.629 463.361L135.968 456.485L126.027 460.489L157.36 468.885L168.466 463.354L168.458 463.352ZM208.605 542.971L209.174 540.848L209.118 540.9L208.79 541.215L205.956 543.958L208.173 544.552L208.597 542.969L208.605 542.971ZM206.155 552.115L207.499 547.1L203.761 546.099L201.697 548.099L198.895 550.816L198.394 551.304L195.604 554.007L194.416 555.15L202.58 557.338L205.606 554.193L206.167 552.101L206.155 552.115ZM211.257 533.075L191.188 551.934L190.321 555.17L193.449 552.145L193.777 551.83L196.24 549.441L196.74 548.954L197.716 548.006L202.114 543.751L202.192 543.68L204.667 541.278L206.653 539.349L210.599 535.528L211.257 533.075ZM169.753 471.811C169.753 471.811 169.76 471.813 169.762 471.805L175.842 468.546L175.852 468.541L175.862 468.535L176.853 468.003L179.815 466.411L172.45 464.438L161.344 469.969L169.234 472.083L169.735 471.814L169.753 471.811ZM161.62 573.933L181.443 579.244L187.024 573.459L167.765 568.298L161.62 573.933ZM198.651 580.118L199.537 576.812L190.159 574.299L184.577 580.084L197.717 583.605L198.651 580.118ZM178.281 558.67L170.065 566.202L189.113 571.306L200.484 559.522L192.202 557.303L191.66 557.821L188.643 560.742C188.631 560.755 188.621 560.761 188.604 560.765C188.528 560.828 188.444 560.89 188.363 560.943C188.353 560.949 188.343 560.955 188.341 560.963C188.341 560.963 188.333 560.961 188.331 560.969C188.233 561.018 188.13 561.058 188.014 561.085C188.006 561.083 187.994 561.097 187.978 561.092C187.96 561.096 187.945 561.092 187.927 561.096C187.838 561.114 187.754 561.116 187.669 561.119C187.651 561.122 187.633 561.126 187.61 561.12C187.602 561.118 187.594 561.115 187.579 561.111C187.463 561.105 187.349 561.092 187.231 561.06L178.268 558.658L178.281 558.67ZM214.599 520.601L217.043 511.481L197.558 528.162L192.576 546.755L212.644 527.896L214.599 520.601ZM200.65 572.659L203.923 560.444L203.61 560.36L192.239 572.144L200.216 574.281L200.65 572.659ZM174.759 511.673L176.589 510.358L176.702 510.279L177.328 509.825L182.267 506.278L183.735 500.801L173.824 507.576L172.241 513.484L172.916 513.002L174.757 511.681L174.759 511.673ZM185.99 503.606L189.151 501.337L189.639 500.989L193.682 498.092L194.909 497.211L196.233 492.267L187.411 498.301L185.986 503.621L185.99 503.606ZM162.717 520.321L168.528 516.151L170.153 510.086L159.196 517.572L157.445 524.106L162.103 520.761L162.717 520.321ZM178.451 479.121L167.871 485.196L160.302 513.443L171.26 505.957L178.448 479.129L178.451 479.121ZM181.216 468.802L178.43 470.298C178.4 470.315 178.38 470.327 178.35 470.344L177.449 470.824C177.407 470.855 177.359 470.876 177.312 470.897L171.369 474.083C171.317 474.119 171.268 474.148 171.212 474.167L170.762 474.407L168.883 481.42L179.462 475.345L181.218 468.794L181.216 468.802ZM622.334 472.638L628.598 475.929L629.612 472.144L622.705 468.681L622.697 468.679L622.631 468.644L616.582 465.613L615.644 469.115L620.179 471.498L622.349 472.642L622.334 472.638ZM610.558 478.88L585.77 464.957L550.206 455.427L570.497 468.145L610.558 478.88ZM534.497 502.05L540.759 507.826L546.921 513.508L555.58 521.497C555.593 521.509 555.599 521.519 555.613 521.531C555.653 521.567 555.676 521.607 555.709 521.641C555.734 521.673 555.767 521.707 555.79 521.746C555.813 521.786 555.836 521.826 555.861 521.858C555.884 521.898 555.907 521.937 555.922 521.975C555.937 522.013 555.95 522.058 555.965 522.096C555.98 522.133 555.993 522.179 555.998 522.222C556.004 522.266 556.009 522.309 556.014 522.352C556.019 522.396 556.024 522.439 556.022 522.48C556.019 522.522 556.016 522.563 556.016 522.596C556.011 522.645 556.006 522.695 555.994 522.742C555.989 522.757 555.987 522.765 555.983 522.781L553.05 533.727L572.922 553.429L577.207 537.437L538.694 503.183L534.495 502.058L534.497 502.05ZM504.944 560.474L506.269 562.391L512.506 564.063L512.254 563.718L511.102 562.125L504.951 560.476L504.944 560.474ZM594.376 539.87L556.24 507.876L544.487 504.727L579.52 535.89L594.384 539.872L594.376 539.87ZM550.556 543.035L548.425 550.988L567.859 572.327L572.116 556.437L552.244 536.735L550.554 543.043L550.556 543.035ZM406.645 605.206L403.573 616.669C403.387 617.366 402.606 617.77 401.831 617.563L400.17 617.118L402.742 630.395L413.249 633.211L406.637 605.204L406.645 605.206ZM387.453 613.71L393.714 654.874L394.163 653.198L387.735 613.786L387.453 613.71ZM394.191 615.516L390.76 614.596L395.955 646.481L400.019 631.312L397.106 616.297L394.184 615.514L394.191 615.516ZM377.961 612.527L377.776 611.117L336.696 600.11C336.61 600.087 336.518 600.054 336.436 600.015C336.415 600.001 336.385 599.985 336.362 599.978C336.311 599.948 336.261 599.918 336.21 599.887C336.183 599.863 336.153 599.847 336.134 599.825C336.115 599.803 336.084 599.795 336.064 599.773C336.045 599.751 336.031 599.739 336.012 599.717C335.985 599.693 335.966 599.671 335.938 599.647C335.9 599.603 335.869 599.561 335.838 599.519C335.819 599.497 335.802 599.467 335.79 599.447C335.754 599.396 335.733 599.348 335.714 599.292C335.703 599.273 335.693 599.245 335.682 599.225C335.657 599.16 335.635 599.087 335.628 599.018C335.623 599.008 335.617 598.998 335.621 598.982C335.609 598.903 335.596 598.824 335.599 598.749L335.606 598.726L335.669 595.292L335.749 591.484L335.866 585.594L335.349 585.456L335.23 589.035C335.227 589.076 335.226 589.11 335.224 589.151L335.047 594.478L335.046 594.545L334.857 600.205C334.855 600.213 334.855 600.213 334.852 600.221L334.666 606.057C334.662 606.073 334.665 606.091 334.661 606.106L334.433 613.1L379.611 625.205L378.765 618.646L377.973 612.514L377.961 612.527ZM331.772 605.887L331.774 605.879L331.776 605.871L331.969 600.011C331.969 600.011 331.972 600.003 331.974 599.995L332.105 596.184L322.613 631.607L322.176 637.847L321.732 644.203L321.262 651.005L321.153 652.538L331.52 613.847L331.776 605.904L331.772 605.887ZM510.445 568.465L514.102 573.778L514.361 574.158L521.123 575.97L520.136 574.606L517.2 570.552L514.944 567.437L508.558 565.726L510.431 568.453L510.445 568.465ZM517.928 579.338L519.56 581.707L521.053 583.879L521.917 585.135C521.925 585.137 521.923 585.145 521.928 585.155C521.959 585.197 521.98 585.244 522.009 585.294C522.024 585.332 522.041 585.362 522.058 585.391C522.079 585.439 522.084 585.482 522.097 585.528C522.112 585.565 522.125 585.611 522.133 585.646C522.14 585.682 522.143 585.733 522.142 585.767C522.148 585.81 522.153 585.853 522.148 585.902C522.147 585.936 522.137 585.975 522.136 586.009C522.132 586.058 522.127 586.107 522.112 586.162C522.11 586.169 522.108 586.177 522.108 586.177L521.631 587.956L531.755 590.668L530.039 588.294L526.559 583.482L523.574 579.356L516.672 577.507L517.935 579.34L517.928 579.338ZM481.913 581.865L485.006 587.59L486.466 590.29L489.749 578.036L486.709 572.896L486.703 572.886C486.703 572.886 486.705 572.879 486.698 572.876L483.51 567.504C483.51 567.504 483.512 567.496 483.504 567.494L482.249 565.378L479.184 576.817L481.907 581.855L481.913 581.865ZM458.07 573.032L455.076 584.205L484.247 592.022L482.445 588.684C482.445 588.684 482.445 588.684 482.437 588.682L479.344 582.957L476.684 578.029L458.075 573.042L458.07 573.032ZM583.455 455.166L564.831 450.176L586.838 462.539L608.455 468.331L605.799 466.931L600.67 464.229L598.499 463.085L591.39 459.341L584.48 455.701L583.45 455.156L583.455 455.166ZM599.84 460.808L602.01 461.952L607.14 464.653L613.005 467.745L613.926 464.305L607.419 461.041L607.411 461.039L607.403 461.037C607.403 461.037 607.396 461.035 607.388 461.033L600.057 457.364L600.028 457.348C600.028 457.348 600.028 457.348 600.02 457.346L600.004 457.341C600.004 457.341 600.004 457.341 599.996 457.339L592.912 453.786L592.904 453.784L592.896 453.782L592.859 453.764L587.579 451.123L586.815 453.975L592.732 457.089L599.841 460.833L599.84 460.808ZM473.533 572.204L470.828 567.197L468.307 562.532C468.265 562.47 468.232 562.403 468.2 562.335L465.803 557.897L463.477 553.604C463.477 553.604 463.479 553.596 463.471 553.594L461.586 550.1L453.962 548.057L454.689 549.511L456.796 553.746L459.023 558.222L460.78 561.758C460.783 561.776 460.787 561.794 460.801 561.806C460.822 561.853 460.842 561.901 460.855 561.946C460.87 561.984 460.886 562.022 460.891 562.065C460.904 562.11 460.909 562.154 460.914 562.197C460.919 562.241 460.924 562.284 460.922 562.325C460.919 562.366 460.916 562.408 460.914 562.449C460.909 562.498 460.906 562.539 460.894 562.586C460.89 562.602 460.893 562.62 460.889 562.636L458.779 570.51L474.982 574.852L473.561 572.228C473.561 572.228 473.561 572.228 473.563 572.221L473.533 572.204ZM434.222 604.584L435.95 598.135L433.498 597.478L432.78 600.158L434.222 604.584ZM424.742 636.298L412.718 591.911L410.383 591.285L408.202 599.426L416.381 634.058L424.742 636.298ZM443.523 641.331L433.508 610.632C433.479 610.616 433.468 610.596 433.441 610.572C433.413 610.548 433.386 610.524 433.367 610.502C433.301 610.434 433.235 610.366 433.18 610.292C433.166 610.28 433.153 610.268 433.149 610.25C433.089 610.159 433.04 610.062 433 609.959C432.995 609.949 432.989 609.939 432.991 609.931L428.501 596.131L415.878 592.749L427.894 637.135L443.509 641.319L443.523 641.331ZM474.726 552.68L474.515 552.338L469.25 550.927C469.148 550.9 469.056 550.867 468.974 550.828C468.966 550.826 468.96 550.816 468.96 550.816C468.878 550.777 468.799 550.731 468.731 550.67L468.723 550.668L468.717 550.658C468.696 550.644 468.684 550.624 468.671 550.612C468.616 550.564 468.568 550.526 468.521 550.48C468.494 550.456 468.477 550.426 468.46 550.396C468.421 550.352 468.385 550.3 468.348 550.249C468.342 550.239 468.337 550.229 468.331 550.219L466.947 547.799L465.655 545.538L465.192 544.726L464.082 548.87L466.047 552.504L466.053 552.514L468.38 556.807L470.822 561.325C470.822 561.325 470.822 561.325 470.82 561.333C470.82 561.333 470.82 561.333 470.826 561.343L473.404 566.106L476.112 571.107C476.112 571.107 476.112 571.107 476.11 571.114L477.182 573.098L480.187 561.886L477.536 557.422L477.531 557.412C477.531 557.412 477.531 557.412 477.533 557.404C477.533 557.404 477.525 557.402 477.519 557.392L474.795 552.799C474.764 552.757 474.735 552.707 474.712 552.668L474.726 552.68ZM504.173 564.198L501.929 560.943L500.857 559.396L478.331 553.36L479.992 556.157C480.023 556.199 480.051 556.248 480.08 556.298L482.665 560.66L506.045 566.925L504.165 564.196L504.173 564.198ZM455.002 644.407L443.916 613.538L436.809 611.634L446.782 642.204L455.002 644.407ZM458.276 626.826L461.186 634.458L462.613 638.191L467.523 619.864L454.274 616.314L457.315 624.301L458.276 626.826ZM515.374 580.468L512.28 575.969C512.28 575.969 512.28 575.969 512.272 575.967L509.339 571.713L508.348 570.272L484.592 563.906L485.996 566.281C486.013 566.311 486.03 566.34 486.047 566.37L489.17 571.641C489.212 571.703 489.247 571.762 489.279 571.83L492.245 576.84L517.513 583.611L515.36 580.489L515.374 580.468Z" fill="#F29100"/>
<path fill-rule="evenodd" clip-rule="evenodd" d="M381.356 222.456C397.069 224.354 411.994 228.799 425.695 235.378V244.439H420.844V235.645C420.844 235.297 420.536 235.021 420.147 235.021H391.05C391.034 235.021 391.026 235.021 391.009 235.021C390.985 235.021 390.953 235.021 390.928 235.029C390.912 235.029 390.888 235.037 390.871 235.045C390.847 235.053 390.823 235.061 390.798 235.061C390.782 235.07 390.758 235.078 390.742 235.086C390.717 235.094 390.693 235.102 390.677 235.118C390.661 235.126 390.644 235.143 390.628 235.151C390.612 235.167 390.588 235.183 390.571 235.191C390.555 235.207 390.547 235.224 390.531 235.232C390.515 235.248 390.498 235.264 390.482 235.28C390.466 235.297 390.458 235.313 390.45 235.329C390.442 235.345 390.425 235.362 390.417 235.386C390.409 235.402 390.401 235.426 390.393 235.451C390.393 235.467 390.377 235.475 390.377 235.491L388.203 243.027L387.797 244.447H381.348V222.464L381.356 222.456ZM437.554 241.77C437.96 242.013 438.373 242.256 438.779 242.508L431.949 252.915H430.554C430.546 252.915 430.538 252.915 430.529 252.915C430.521 252.915 430.513 252.915 430.505 252.915L437.554 241.77ZM439.915 243.222C440.791 243.773 441.667 244.333 442.535 244.901L436.962 252.907H433.555L439.915 243.214V243.222ZM443.654 245.647C444.165 245.988 444.66 246.337 445.163 246.685L440.645 252.915H438.593L443.646 245.647H443.654ZM446.274 247.448C447.24 248.129 448.189 248.819 449.13 249.516L446.51 252.907H442.308L446.266 247.44L446.274 247.448ZM450.2 250.328C451.076 251.001 451.952 251.674 452.82 252.364L447.353 259.048V254.018L450.2 250.328ZM453.867 253.199C456.041 254.959 458.166 256.793 460.234 258.675L448.61 271.288H447.361V261.157L453.875 253.199H453.867ZM461.208 259.575C461.865 260.183 462.522 260.8 463.163 261.424L453.607 271.288H450.411L461.208 259.575ZM464.104 262.349C464.704 262.933 465.288 263.525 465.88 264.126L458.612 271.296H455.449L464.104 262.357V262.349ZM467.851 266.17C468.184 266.519 468.516 266.867 468.841 267.224V271.126L465.54 274.111V271.913C465.54 271.564 465.231 271.288 464.842 271.288H463.576V270.299L466.651 267.322L467.851 266.162V266.17ZM470.228 268.749C470.415 268.96 470.601 269.163 470.788 269.374L470.228 269.885V268.749ZM471.664 270.363C473.156 272.075 474.616 273.827 476.028 275.612L470.228 280.341V271.653L471.664 270.355V270.363ZM476.839 276.642C477.829 277.915 478.794 279.205 479.743 280.511V281.038L476.231 283.675L472.605 286.4L470.236 288.185V282.028L476.847 276.634L476.839 276.642ZM480.789 281.963C481.56 283.058 482.306 284.161 483.045 285.273L477.869 288.907H471.453L473.481 287.382L477.115 284.656L480.684 281.971H480.789V281.963ZM483.766 286.36C484.318 287.203 484.853 288.047 485.389 288.907H480.141L483.766 286.36ZM486.159 290.156C486.273 290.343 486.387 290.529 486.5 290.724L477.918 296.248H469.668L478.348 290.156H486.159ZM487.165 291.835C487.684 292.719 488.195 293.603 488.698 294.496L485.811 296.248H480.311L487.165 291.835ZM489.323 295.631C489.51 295.972 489.696 296.321 489.883 296.662L487.368 298.138V296.816L489.323 295.631ZM490.491 297.805C491.083 298.925 491.651 300.06 492.219 301.196V306.436L488.163 308.496H487.368V299.639L490.491 297.805ZM493.598 304.092C493.801 304.53 494.012 304.976 494.206 305.414L493.598 305.722V304.084V304.092ZM495.098 307.434L495.309 307.921L494.125 308.496H490.986L493.079 307.434H495.09H495.098ZM496.088 309.754C500.233 319.796 503.267 330.422 505.043 341.462H455.846C454.508 336.052 452.707 330.82 450.484 325.815V309.754H465.856H488.35H494.312H496.088ZM505.295 343.133C505.725 346.062 506.082 349.014 506.333 351.999H501.401V349.623V344.074L505.303 343.141L505.295 343.133ZM500.006 351.999H492.048L500.006 350.41V351.999ZM485.592 351.999H474.487L500.006 346.2V349.128L485.592 351.999ZM468.792 351.999H468.265L494.474 345.721L497.264 345.056L498.084 344.861L499.998 344.399V344.902L468.792 351.999ZM462.83 351.999H457.801C457.785 351.862 457.76 351.716 457.744 351.578H464.59L462.83 351.999ZM457.574 350.32C457.428 349.323 457.266 348.333 457.079 347.335H482.298L478.405 348.268L469.831 350.32H457.566H457.574ZM456.852 346.078C456.633 344.95 456.39 343.831 456.13 342.72H501.588L500.517 342.979L494.117 344.512L487.547 346.086H456.852V346.078ZM449.073 322.854C447.572 319.772 445.917 316.795 444.1 313.915L444.628 313.542L446.226 312.414L447.913 311.222L449.065 310.411V322.854H449.073ZM443.403 312.82C442.989 312.187 442.575 311.555 442.145 310.938L443.841 309.665H447.889L445.39 311.425L444.806 311.839L443.411 312.82H443.403ZM441.399 309.859C440.758 308.951 440.109 308.058 439.444 307.174L442.9 304.351V308.74L441.407 309.859H441.399ZM438.641 306.136C438.398 305.82 438.146 305.503 437.895 305.195L442.892 300.928V302.664L438.641 306.136ZM437.068 304.173C436.321 303.264 435.551 302.356 434.772 301.472L455.781 281.963H463.098L454.743 289.093L453.396 290.245L450.646 292.598L449.227 293.806L446.015 296.548L445.504 296.978L443.119 299.014L441.213 300.636L440.864 300.936L438.739 302.753L437.076 304.173H437.068ZM433.88 300.498C432.111 298.56 430.262 296.694 428.331 294.901L440.215 281.963H453.834L433.88 300.498ZM427.358 294.009C426.141 292.906 424.892 291.835 423.61 290.805L430.886 281.971H438.414L427.358 294.009ZM422.572 289.969C421.964 289.491 421.355 289.02 420.731 288.55L429.848 276.739V281.136L422.572 289.969ZM419.652 287.763C418.451 286.887 417.234 286.035 415.985 285.216L416.22 284.883L416.488 284.494L420.731 278.386C420.739 278.378 420.747 278.362 420.747 278.353C420.763 278.329 420.771 278.305 420.779 278.289C420.787 278.272 420.795 278.248 420.804 278.232C420.804 278.216 420.82 278.191 420.82 278.175C420.828 278.151 420.828 278.126 420.828 278.102C420.828 278.086 420.828 278.07 420.828 278.061V275.677L429.832 262.39V274.573L419.635 287.779L419.652 287.763ZM414.858 284.486C413.138 283.391 411.386 282.344 409.593 281.355L411.207 278.678H418.897L417.599 280.544L417.275 281.014L415.377 283.74L415.223 283.959L414.866 284.486H414.858ZM408.401 280.714C407.07 280.008 405.724 279.327 404.353 278.678H409.634L408.401 280.714ZM401.571 277.421C398.383 276.042 395.106 274.833 391.748 273.803V236.294H419.457V277.137V277.429H401.571V277.421ZM390.36 273.389H390.344L390.36 273.357V273.397V273.389ZM389.022 273.016C387.886 272.708 386.743 272.416 385.591 272.14V264.312L390.36 248.738V269.455L389.022 273V273.016ZM384.204 271.832C383.92 271.767 383.628 271.71 383.344 271.653L384.204 268.838V271.832ZM381.981 271.377C381.819 271.345 381.657 271.321 381.486 271.288L382.784 266.802L384.204 261.903V264.15L381.981 271.377ZM380.132 271.037C378.85 270.818 377.56 270.623 376.262 270.453V267.265H381.219L380.878 268.441L380.716 268.993V269.001L380.132 271.029V271.037ZM506.317 376.554C506.268 377.17 506.203 377.786 506.138 378.395H492.543L488.69 377.608C488.682 377.608 488.674 377.608 488.666 377.608L484.918 376.837C484.87 376.821 484.821 376.813 484.772 376.805L483.474 376.537H506.211L506.309 376.554H506.317ZM506.017 379.652C506.001 379.798 505.984 379.944 505.968 380.09H500.769L498.643 379.652H506.017ZM505.814 381.348C505.692 382.345 505.571 383.335 505.425 384.324L502.942 383.757L501.385 383.4V381.339H505.814V381.348ZM505.246 385.574C505.189 385.947 505.133 386.312 505.076 386.685H497.151L483.994 383.327H495.309L496.372 383.57L500.533 384.511L502.61 384.982L505.206 385.566L505.254 385.574H505.246ZM504.865 387.934C503.859 393.929 502.488 399.802 500.769 405.52H496.705H454.094V393.093C454.637 391.398 455.14 389.67 455.587 387.934H472.102H497.037H504.849H504.865ZM499.974 408.084C499.755 408.749 499.544 409.398 499.317 410.055L491.27 406.77H492.373H496.567L499.974 408.075V408.084ZM498.903 411.263C498.635 412.034 498.359 412.813 498.075 413.583L482.428 406.778H487.895L498.903 411.263ZM497.621 414.776C497.362 415.457 497.102 416.139 496.834 416.82H495.139L473.586 406.77H475.055H479.232L497.629 414.768L497.621 414.776ZM496.323 418.077C493.249 425.629 489.542 432.865 485.267 439.711V418.077H494.969H496.323ZM483.888 441.893C483.515 442.469 483.134 443.045 482.753 443.613L472.28 436.166V432.216V429.174L483.888 436.62V441.901V441.893ZM482.022 444.684C480.895 446.338 479.727 447.969 478.534 449.575L462.928 437.383H471.591C471.64 437.383 471.688 437.375 471.737 437.367L482.022 444.684ZM475.793 453.12C475.533 453.452 475.265 453.785 474.99 454.117H464.477V449.405V449.25H471.031L473.148 450.978L475.703 453.047L475.785 453.12H475.793ZM473.959 455.375C472.881 456.673 471.786 457.946 470.666 459.203H464.485V455.375H473.959ZM469.539 460.461C467.9 462.253 466.213 464.006 464.485 465.717V461.718V460.461H469.539ZM463.106 467.072C462.725 467.437 462.352 467.794 461.97 468.151H451.328H435.64H427.601V463.284H432.622C433.004 463.284 433.32 463 433.32 462.651V455.748H449.251C449.292 455.748 449.34 455.748 449.381 455.732C449.397 455.732 449.413 455.724 449.43 455.724C449.454 455.715 449.478 455.707 449.511 455.699C449.527 455.691 449.543 455.683 449.56 455.675C449.584 455.667 449.6 455.659 449.624 455.642C449.641 455.634 449.657 455.618 449.673 455.61C449.689 455.602 449.697 455.594 449.706 455.586C449.714 455.578 449.714 455.569 449.722 455.569C449.738 455.553 449.754 455.537 449.77 455.521C449.787 455.505 449.803 455.488 449.811 455.472C449.827 455.456 449.835 455.44 449.843 455.415C449.86 455.399 449.868 455.383 449.876 455.367C449.884 455.35 449.892 455.326 449.9 455.31C449.908 455.294 449.916 455.269 449.925 455.253C449.925 455.237 449.933 455.212 449.933 455.196C449.933 455.172 449.941 455.148 449.941 455.131C449.941 455.123 449.941 455.115 449.941 455.107V447.734H463.106V467.064V467.072ZM460.632 469.408C457.217 472.547 453.648 475.516 449.941 478.306V469.408H460.632ZM448.562 479.345C447.588 480.059 446.607 480.756 445.617 481.446L444.895 480.448L444.847 480.383V469.408H448.554V479.345H448.562ZM444.514 482.208L444.409 482.281H442.364L433.434 469.408H435.267L436.735 471.436L438.163 473.407L443.597 480.927L443.752 481.137L444.522 482.208H444.514ZM442.535 483.53C434.196 489.022 425.257 493.678 415.823 497.345H415.134V493.743V483.53H421.193H426.904H442.519H442.535ZM403.875 501.392C396.59 503.501 389.071 505.043 381.356 505.983V484.001H403.875V501.392ZM376.262 483.555V467.55L376.668 469.278V485.623L376.465 484.577L376.262 483.563V483.555ZM376.262 461.475V460.915L376.538 462.018L377.39 465.458L377.779 467.031L378.152 468.516L378.177 468.621H377.941L377.512 466.772L376.984 464.517L376.481 462.359C376.481 462.359 376.481 462.359 376.481 462.351L376.473 462.335L376.279 461.507L376.262 461.475ZM376.944 457.897C377.958 457.76 378.964 457.605 379.969 457.435V470.154L379.71 469.116V469.108L379.345 467.631L378.736 465.182L378.566 464.492L378.031 462.326L377.755 461.191L376.944 457.906V457.897ZM381.356 457.192C383.53 456.786 385.68 456.316 387.797 455.764L390.401 462.846C390.401 462.854 390.409 462.862 390.417 462.87C390.425 462.886 390.433 462.894 390.433 462.91C390.45 462.935 390.458 462.959 390.474 462.975C390.482 462.983 390.49 462.992 390.498 463.008C390.515 463.032 390.539 463.056 390.563 463.081C390.563 463.081 390.571 463.089 390.579 463.097C390.612 463.121 390.644 463.146 390.677 463.17C390.685 463.178 390.693 463.178 390.709 463.186C390.734 463.202 390.758 463.211 390.79 463.227C390.807 463.227 390.815 463.235 390.831 463.243C390.863 463.251 390.888 463.259 390.912 463.267C390.928 463.267 390.936 463.276 390.944 463.276C390.993 463.284 391.034 463.292 391.074 463.292H412.205V475.224H407.144H381.373V457.208L381.356 457.192ZM389.127 455.407C389.541 455.294 389.955 455.172 390.369 455.058V458.774L389.127 455.407ZM391.756 454.653C399.713 452.219 407.217 448.764 414.128 444.44H431.941V462.018H413.39H391.756V454.653ZM416.083 443.183C416.699 442.777 417.316 442.355 417.916 441.934L418.849 443.183H416.074H416.083ZM419.011 441.163C421.128 439.646 423.188 438.048 425.168 436.361L426.895 438.316L431.187 443.175H420.52L419.011 441.155V441.163ZM426.174 435.493C426.839 434.917 427.488 434.333 428.128 433.741L429.126 434.795L430.456 436.207L430.481 436.239C430.481 436.239 430.481 436.247 430.489 436.247L430.903 436.677H427.212L426.165 435.485L426.174 435.493ZM429.102 432.832C429.418 432.532 429.735 432.232 430.043 431.924L431.714 433.619V435.607L431.519 435.404L430.189 434L429.102 432.849V432.832ZM430.992 430.999C431.308 430.683 431.625 430.358 431.941 430.034V431.964L431.511 431.534L430.992 431.007V430.999ZM433.328 428.574C433.912 427.941 434.488 427.308 435.056 426.659V435.112L433.328 433.36V428.574ZM436.443 425.045C439.29 421.663 441.902 418.069 444.263 414.297H470.909V436.118H436.443V425.037V425.045ZM445.041 413.048C445.26 412.683 445.471 412.318 445.69 411.953H466.935L469.028 413.048H445.041ZM446.412 410.696C447.288 409.146 448.124 407.564 448.919 405.958H451.742L453.064 406.68C453.072 406.68 453.08 406.688 453.088 406.688C453.129 406.705 453.169 406.721 453.21 406.737C453.226 406.737 453.242 406.745 453.258 406.753C453.307 406.761 453.364 406.77 453.421 406.77H457.055L464.534 410.696H446.412ZM450.046 403.574C451.02 401.456 451.912 399.307 452.723 397.109V405.034L450.046 403.574ZM455.919 386.677C456.195 385.566 456.438 384.446 456.673 383.319H456.998L467.932 386.677H455.927H455.919ZM456.933 381.972C457.12 381.015 457.282 380.042 457.436 379.076H462.287L473.976 382.061H457.217L456.933 381.972ZM457.793 376.618C457.801 376.562 457.809 376.513 457.817 376.448H465.053L466.862 376.862L467.803 377.073L470.196 377.616L471.072 377.819H462.481L457.793 376.618ZM470.763 376.448H476.62V377.778L473.951 377.17L470.763 376.448ZM322.798 500.979L322.636 500.93V500.906L324.704 495.771H324.834L324.412 496.85L322.855 500.833L322.806 500.97L322.798 500.979ZM321.257 500.5C310.793 497.215 300.848 492.77 291.568 487.294H306.875H314.492V495.138C314.492 495.487 314.8 495.771 315.189 495.771H321.249V500.5H321.257ZM289.475 486.037C288.867 485.664 288.259 485.282 287.658 484.893L287.829 484.65L289.232 482.679H297.19L295.048 486.037H289.475ZM277.373 477.73C277.048 477.479 276.724 477.228 276.399 476.976V476.936H278.022L277.373 477.73ZM274.493 475.475C273.56 474.721 272.636 473.95 271.719 473.18V472.701H274.493V475.475ZM269.715 471.444C263.258 465.758 257.321 459.495 251.983 452.738V444.44H281.777V471.444H278.46H269.715ZM250.596 450.962C250.004 450.183 249.412 449.396 248.828 448.61L250.596 447.312V450.962ZM248.065 447.555C247.441 446.679 246.816 445.803 246.216 444.919H250.596V445.697L248.065 447.555ZM245.348 443.661C244.796 442.826 244.245 441.99 243.701 441.147H253.889L250.856 443.321C250.848 443.329 250.839 443.337 250.831 443.345C250.815 443.361 250.799 443.378 250.775 443.394C250.758 443.41 250.75 443.426 250.734 443.442C250.718 443.459 250.702 443.475 250.693 443.491C250.693 443.499 250.685 443.507 250.677 443.515V443.524C250.677 443.532 250.669 443.54 250.669 443.548C250.661 443.564 250.653 443.588 250.637 443.605C250.637 443.613 250.629 443.621 250.629 443.629C250.629 443.637 250.629 443.645 250.62 443.645C250.62 443.645 250.62 443.653 250.62 443.661H245.356H245.348ZM242.622 439.419C233.034 423.974 226.318 406.559 223.203 387.926H243.32V439.419H242.622ZM223 386.669C222.96 386.425 222.919 386.19 222.879 385.947H246.565L243.912 386.669H223ZM222.708 384.69L222.676 384.503L225.896 383.813L235.038 381.859H261.62L258.886 382.597L251.196 384.681H222.708V384.69ZM260.33 376.448H270.275C270.299 376.659 270.332 376.862 270.364 377.073H257.418L258.894 376.756L260.33 376.448ZM270.543 378.33C270.591 378.687 270.656 379.036 270.713 379.393L266.26 380.601H240.927L243.726 380.001L251.561 378.322H270.551L270.543 378.33ZM270.916 380.65C272.408 389.175 275.045 397.311 278.663 404.888V405.074L272.765 408.254L270.681 409.381C270.429 409.519 270.308 409.771 270.356 410.022V411.231C270.348 411.263 270.348 411.288 270.348 411.32C270.348 411.353 270.348 411.385 270.356 411.409V422.109L267.063 424.25V381.688L270.924 380.642L270.916 380.65ZM279.295 406.194C280.05 407.719 280.853 409.219 281.688 410.696H271.735V410.282L273.479 409.341C273.479 409.341 273.479 409.341 273.487 409.333L273.504 409.325H273.512L279.295 406.202V406.194ZM283.684 414.062C286.125 417.996 288.851 421.736 291.828 425.256V426.027L289.5 427.998L289.167 428.274L286.734 430.35L286.401 430.634L284.203 432.5L283.684 432.938V414.054V414.062ZM293.069 426.692C293.296 426.943 293.523 427.203 293.75 427.446L293.004 428.111H291.398L292.996 426.757L293.077 426.692H293.069ZM295.519 429.369C295.73 429.596 295.949 429.815 296.168 430.042L295.827 430.366L295.819 430.375L295.811 430.383L295.519 430.658L293.215 432.816C293.215 432.816 293.215 432.816 293.207 432.816L293.109 432.905H289.548L293.556 429.361H295.519V429.369ZM297.092 430.983C297.336 431.226 297.587 431.47 297.83 431.705V433.238L294.099 436.953V433.79L294.18 433.717C294.205 433.7 294.229 433.676 294.245 433.66L296.492 431.551C296.508 431.534 296.524 431.518 296.541 431.502L296.817 431.242L297.1 430.983H297.092ZM301.367 435.023C301.757 435.363 302.146 435.704 302.535 436.036V442.023L299.209 445.892V434.893C299.323 434.974 299.461 435.014 299.615 435.014H301.367V435.023ZM303.922 437.205C304.458 437.651 305.001 438.081 305.553 438.519L303.922 440.417V437.213V437.205ZM306.607 439.33C306.688 439.395 306.761 439.451 306.843 439.508V441.26L305.082 443.402L304.88 443.645L303.93 444.805V442.445L306.615 439.322L306.607 439.33ZM308.806 440.968C309.665 441.585 310.541 442.193 311.426 442.785L301.854 455.432H296.963L297.1 455.261L299.072 452.844L299.364 452.487L301.481 449.907L303.192 447.815L303.784 447.093L303.841 447.02L306.08 444.294L306.194 444.156L308.092 441.844L308.319 441.569L308.806 440.968ZM312.545 443.524C313.105 443.889 313.673 444.245 314.24 444.602L306.526 455.423H303.541L312.545 443.524ZM315.384 445.308C315.595 445.438 315.806 445.56 316.017 445.681L314.622 447.717C314.614 447.734 314.605 447.742 314.605 447.758C314.589 447.774 314.581 447.798 314.573 447.823C314.565 447.839 314.557 447.863 314.557 447.88C314.549 447.896 314.541 447.92 314.541 447.936C314.541 447.953 314.532 447.969 314.532 447.977L307.597 458.092V456.243L315.392 445.308H315.384ZM317.185 446.363C317.818 446.72 318.45 447.076 319.091 447.425H316.455L317.177 446.363H317.185ZM321.492 448.674C327.487 451.7 333.854 454.109 340.498 455.813V494.514H315.903V451.935V448.674H321.492ZM341.885 456.162C342.404 456.283 342.915 456.405 343.442 456.518V484.763L341.885 490.214V456.17V456.162ZM344.83 456.811C345.495 456.948 346.16 457.078 346.825 457.2V472.904L345.178 478.688L344.83 479.904V456.811ZM348.212 457.451C348.821 457.557 349.429 457.654 350.045 457.743V461.645L348.48 467.129L348.212 468.061V457.451ZM222.108 348.463C222.27 347.011 222.457 345.567 222.659 344.131L257.329 351.991H240.57L222.116 348.471L222.108 348.463ZM222.83 342.874C223.138 340.822 223.495 338.785 223.884 336.766L236.571 340.254V342.087C236.571 342.095 236.571 342.111 236.571 342.119C236.571 342.144 236.571 342.168 236.579 342.184C236.579 342.201 236.587 342.225 236.595 342.241C236.603 342.265 236.612 342.282 236.612 342.306C236.62 342.322 236.628 342.347 236.644 342.363C236.652 342.379 236.66 342.395 236.676 342.411C236.693 342.428 236.701 342.444 236.717 342.46C236.725 342.468 236.725 342.476 236.733 342.493C236.741 342.501 236.75 342.501 236.75 342.509C236.766 342.525 236.782 342.541 236.798 342.549C236.814 342.566 236.831 342.582 236.847 342.59C236.863 342.598 236.887 342.614 236.904 342.622C236.92 342.63 236.944 342.639 236.96 342.655C236.985 342.663 237.009 342.671 237.025 342.679C237.042 342.679 237.05 342.687 237.066 342.695L257.953 348.106L259.478 348.503L260.371 348.739L270.364 351.326C270.332 351.553 270.299 351.772 270.275 352.008H263.039L222.83 342.898V342.874ZM224.128 335.517C224.623 333.124 225.166 330.755 225.774 328.403L236.563 331.98V337.309V338.932L224.128 335.517ZM226.091 327.17C227.259 322.805 228.63 318.523 230.195 314.337L236.563 317.095V329.06V330.633L226.091 327.161V327.17ZM230.65 313.136C231.428 311.117 232.239 309.113 233.107 307.134L236.563 308.829V310.93V315.7L230.65 313.136ZM233.618 305.958C234.308 304.416 235.03 302.891 235.768 301.383L236.563 301.812V307.41L233.618 305.966V305.958ZM237.95 297.124C238.218 296.613 238.494 296.11 238.769 295.607H250.393H257.345V302.04V323.235C257.345 323.584 257.653 323.868 258.043 323.868H271.897H278.135V324.663C275.669 330.009 273.69 335.622 272.246 341.454H237.95V297.132V297.124ZM239.467 294.35C239.913 293.547 240.375 292.752 240.838 291.957H249.071L252.681 294.35H241.568H239.467ZM241.592 290.708C242.119 289.823 242.663 288.947 243.215 288.079L247.181 290.708H241.592ZM243.904 286.976C244.731 285.695 245.575 284.437 246.443 283.188L246.703 283.366C246.703 283.366 246.711 283.367 246.711 283.375L250.75 286.262L254.701 289.085L254.733 289.11C254.733 289.11 254.741 289.11 254.741 289.118L256.964 290.708H249.525L243.896 286.976H243.904ZM247.181 282.117C248.382 280.406 249.623 278.727 250.896 277.072L254.23 279.692V280.381C254.23 280.39 254.23 280.398 254.23 280.406C254.23 280.414 254.23 280.422 254.23 280.43C254.23 280.446 254.238 280.463 254.238 280.471C254.238 280.487 254.246 280.511 254.255 280.527C254.255 280.536 254.255 280.544 254.255 280.544C254.255 280.56 254.263 280.568 254.271 280.584C254.279 280.6 254.287 280.625 254.295 280.641C254.295 280.649 254.303 280.657 254.303 280.657C254.311 280.673 254.319 280.682 254.328 280.69C254.344 280.706 254.352 280.722 254.36 280.738C254.368 280.746 254.368 280.755 254.376 280.755C254.384 280.763 254.392 280.763 254.392 280.771C254.392 280.771 254.401 280.779 254.401 280.787C254.417 280.803 254.433 280.819 254.449 280.836C254.457 280.836 254.457 280.844 254.465 280.852L254.676 281.014L258.278 283.813V290.042L255.56 288.104L251.61 285.281L251.594 285.273C251.586 285.265 251.578 285.257 251.561 285.248L247.554 282.385C247.554 282.385 247.546 282.385 247.538 282.377L247.522 282.361C247.522 282.361 247.522 282.361 247.514 282.361L247.173 282.117H247.181ZM251.707 276.042C252.535 274.987 253.378 273.949 254.238 272.919V275.952V278.021L251.707 276.034V276.042ZM255.625 271.28C261.417 264.531 267.825 258.318 274.769 252.745H285.42V266.089H276.237C275.848 266.089 275.54 266.364 275.54 266.713V278.491V279.749H255.617V271.28H255.625ZM276.359 251.496C277.665 250.482 278.987 249.484 280.334 248.511H295.592L297.985 252.153L299.858 255H289.127L286.685 251.771C286.677 251.763 286.669 251.755 286.661 251.747C286.644 251.723 286.62 251.698 286.596 251.682C286.588 251.674 286.58 251.666 286.571 251.666C286.563 251.658 286.555 251.65 286.547 251.65C286.531 251.634 286.515 251.625 286.49 251.609C286.474 251.601 286.45 251.593 286.425 251.577C286.409 251.569 286.385 251.561 286.369 251.552C286.344 251.544 286.32 251.536 286.304 251.536C286.288 251.528 286.263 251.52 286.239 251.52C286.206 251.512 286.174 251.512 286.142 251.512C286.133 251.512 286.117 251.512 286.109 251.512H276.367L276.359 251.496ZM282.078 247.253C286.32 244.276 290.725 241.526 295.283 239.02V247.253H282.078ZM296.671 238.266C297.895 237.608 299.128 236.96 300.378 236.335V253.337L299.169 251.504L296.671 247.708V238.266ZM302.908 235.11C314.646 229.545 327.26 225.53 340.498 223.332V242.062H317.282H302.917V235.102L302.908 235.11ZM351.822 263.314V270.428C351.343 270.493 350.857 270.558 350.378 270.631L341.885 242.613V225.027L351.822 263.314ZM349.007 270.842C348.034 270.996 347.052 271.167 346.087 271.353L336.418 243.327H340.66L349.007 270.842ZM344.732 271.629C344.424 271.694 344.108 271.751 343.799 271.824L341.844 266.519C341.844 266.51 341.836 266.502 341.836 266.502C341.828 266.478 341.82 266.462 341.804 266.437C341.796 266.421 341.788 266.405 341.771 266.389C341.755 266.373 341.747 266.356 341.731 266.34C341.715 266.324 341.698 266.308 341.69 266.291C341.674 266.275 341.658 266.267 341.642 266.251C341.625 266.235 341.609 266.218 341.593 266.21C341.577 266.194 341.552 266.186 341.536 266.178C341.52 266.17 341.496 266.153 341.479 266.145C341.463 266.137 341.439 266.129 341.415 266.121C341.39 266.113 341.366 266.105 341.35 266.105C341.333 266.105 341.309 266.097 341.285 266.097C341.26 266.097 341.236 266.089 341.204 266.089C341.196 266.089 341.187 266.089 341.179 266.089H336.515L327.106 243.327H334.95L344.716 271.629H344.732ZM342.453 272.132C342.266 272.18 342.072 272.221 341.885 272.262V270.591L342.453 272.132ZM340.498 272.61C329.304 275.482 318.913 280.349 309.714 286.814H276.927V267.346H308.376H316.333H321.046H328.752H336.036H340.482V272.602L340.498 272.61ZM307.97 288.071C305.91 289.588 303.914 291.186 301.992 292.865L297.482 288.071H307.97ZM300.994 293.741C299.656 294.942 298.35 296.175 297.076 297.448L287.204 288.071H295.657L300.994 293.741ZM295.218 299.371C294.586 300.044 293.961 300.717 293.353 301.407L291 299.371H295.218ZM292.493 302.396C292.104 302.851 291.714 303.305 291.333 303.767H286.085L283.732 301.942L281.064 299.874L280.407 299.363L280.317 299.29L279.879 298.949L279.701 298.811H288.348L290.644 300.798L292.493 302.396ZM290.303 305.025C289.97 305.438 289.638 305.86 289.313 306.274L288.705 305.803L287.699 305.025H290.303ZM288.518 307.312C287.894 308.131 287.293 308.967 286.701 309.811V305.893L288.47 307.264L288.526 307.304L288.518 307.312ZM285.695 311.263C285.428 311.652 285.168 312.049 284.909 312.447L284.86 312.414L283.165 311.263H285.695ZM284.203 313.534C283.594 314.499 283.002 315.473 282.418 316.462L274.745 311.684V307.109L277.494 308.975L280.674 311.133L283.732 313.217L284.203 313.542V313.534ZM281.777 317.582C280.837 319.236 279.944 320.932 279.101 322.651H279.084C279.06 322.643 279.044 322.635 279.019 322.635C278.995 322.635 278.979 322.627 278.955 322.619C278.93 322.619 278.906 322.611 278.873 322.611C278.857 322.611 278.841 322.603 278.833 322.603H274.745V313.201L281.769 317.582H281.777ZM271.954 342.695C271.605 344.196 271.289 345.713 271.013 347.246H259.77L258.343 346.873L254.449 345.867L248.925 344.439L243.247 342.971L242.209 342.703H271.946L271.954 342.695ZM270.794 348.495C270.713 349.006 270.624 349.517 270.551 350.028L269.44 349.744L264.621 348.495H270.794ZM292.079 258.885L292.809 259.851L294.505 262.09H304.531L302.868 259.567L300.678 256.241H290.068L292.071 258.885H292.079ZM304.06 258.918L305.058 260.435V248.859L302.933 245.25L302.852 245.112L301.765 243.262V255.446L304.052 258.926L304.06 258.918ZM294.561 264.385L293.564 263.071V263.063L291.025 259.713L288.648 256.574L286.799 254.124V266.072H295.851L294.578 264.393L294.561 264.377V264.385ZM318.337 243.319L329.215 266.08H335.047L325.637 243.319H318.337ZM295.721 263.696L297.23 265.683L297.53 266.08H307.159L305.358 263.339H295.462L295.721 263.688V263.696ZM303.371 243.319L304.158 244.658L306.364 248.405L308.546 252.12L310.631 255.657L312.602 259.015L314.468 262.195L316.236 265.204L316.747 266.08H319.935L307.508 243.319H303.379H303.371ZM306.445 262.544L308.53 265.707L308.773 266.08H309.325V256.103L306.445 251.212V262.536V262.544ZM324.047 266.08H327.706L316.828 243.319H309.049L321.476 266.08H324.047ZM310.704 266.08H315.173L310.704 258.464V266.08ZM282.54 302.656L279.604 300.369L277.381 298.641L275.02 296.808L274.015 296.029V301.261L277.024 303.41C277.048 303.427 277.065 303.443 277.081 303.451L280.293 305.747L283.351 307.929C283.4 307.953 283.44 307.985 283.473 308.018L285.298 309.324V304.806L282.524 302.648L282.54 302.656ZM273.358 306.16L270.835 304.449L267.331 302.064L265.538 300.847L261.888 298.365L260.038 297.108L258.748 296.232V301.707L273.366 310.816V306.168L273.358 306.16ZM277.689 307.531L281.315 309.997H284L282.564 308.967H282.556L279.449 306.744L276.229 304.449L273.082 302.202H269.845L270.64 302.745L274.485 305.357L277.705 307.547L277.689 307.531ZM258.74 322.595H269.253L258.74 317.233V322.595ZM268.288 291.584L265.019 289.037L263.38 287.755L262.277 286.895L259.681 284.875V291.016L263.104 293.466C263.137 293.482 263.161 293.506 263.185 293.53L266.787 296.102C266.787 296.102 266.787 296.102 266.795 296.11L270.283 298.6C270.291 298.608 270.299 298.616 270.316 298.616L270.332 298.625L272.644 300.271V294.95L271.476 294.041L271.451 294.025L268.304 291.576L268.288 291.584ZM282.816 294.009L280.188 291.738H270.608L273.349 293.863L274.355 294.642L277.097 296.775L278.087 297.546H286.896L285.533 296.37L282.816 294.009ZM273.349 322.595V312.333L258.732 303.224V315.789L272.076 322.586H273.349V322.595ZM275.531 285.922V280.99H256.793L259.008 282.709L262.52 285.435L265.911 288.071L266.803 288.761L268.993 290.464H278.744L277.056 289.004L277.024 288.98L275.75 287.877C275.75 287.877 275.75 287.877 275.742 287.868C275.726 287.852 275.702 287.828 275.686 287.804C275.677 287.795 275.661 287.779 275.653 287.771C275.637 287.755 275.629 287.731 275.621 287.706C275.613 287.69 275.604 287.674 275.588 287.658C275.58 287.641 275.58 287.625 275.572 287.609C275.564 287.585 275.556 287.568 275.548 287.544C275.548 287.528 275.548 287.512 275.54 287.495C275.54 287.471 275.531 287.447 275.531 287.414C275.531 287.414 275.531 287.414 275.531 287.406V285.897V285.922ZM255.025 294.333H258.035C258.043 294.333 258.043 294.333 258.051 294.333C258.075 294.333 258.099 294.333 258.124 294.342C258.148 294.342 258.164 294.342 258.189 294.35C258.205 294.35 258.229 294.358 258.254 294.366C258.278 294.374 258.302 294.382 258.318 294.39C258.335 294.398 258.351 294.406 258.367 294.415C258.391 294.423 258.416 294.439 258.432 294.447C258.432 294.447 258.44 294.455 258.448 294.455L262.61 297.278L262.707 297.343L264.564 298.608L266.357 299.825L266.665 300.036L267.971 300.92H271.305L269.464 299.606L265.935 297.091C265.935 297.091 265.935 297.091 265.927 297.091L262.293 294.496L258.732 291.957H251.432L255.041 294.35L255.025 294.333ZM277.949 288.055L280.885 290.602L280.942 290.651L283.359 292.744L289.548 298.105H295.859L285.282 288.055H277.957H277.949ZM448.927 272.513H446.656C446.274 272.513 445.966 272.229 445.966 271.88V254.14H441.034H437.351H432.347H431.251V280.673H464.161V275.595V272.513H448.935H448.927ZM379.969 225.879L378.753 232.141V236.189L379.969 230.381V225.879ZM384.561 255.633L385.283 253.126L385.404 252.688L386.451 249.078L386.645 248.405L387.432 245.672H381.219L378.907 255.633H384.552H384.561ZM381.576 265.975L381.795 265.221L381.932 264.734L382.857 261.522L383.044 260.865L383.62 258.861L384.179 256.906H378.607L376.506 265.991H381.559L381.576 265.975ZM379.961 237.138L378.745 242.946V250.222L379.961 244.982V237.138ZM429.848 255.852L420.844 269.877V273.235L429.848 259.948V255.86V255.852ZM420.844 253.386L425.249 245.672H420.844V253.386ZM463.333 294.982L461.686 296.224H467.405L476.085 290.132H469.79L466.602 292.533L463.349 294.982H463.333ZM377.374 239.312L376.368 244.503V247.643L377.374 242.832V239.312ZM377.374 249.589L376.368 254.4V260.556L377.374 256.217V249.589ZM465.88 303.986H458.612L452.342 308.383H459.058L465.88 303.986ZM468.565 306.704L471.664 304.822L473.027 303.994H468.265L461.443 308.391H465.783L468.557 306.712L468.565 306.704ZM476.628 304.765V303.313L475.703 303.881L472.443 305.86L469.344 307.742L468.135 308.472H476.636V304.757L476.628 304.765ZM451.815 302.023L453.429 300.807L456.308 298.641H456.317L459.058 296.58V291.146L451.798 297.075V302.04L451.815 302.023ZM485.981 300.433L481.649 302.981V308.488H485.981V300.442V300.433ZM444.295 307.677L445.544 306.744C445.544 306.744 445.552 306.744 445.552 306.736L448.035 304.871L450.419 303.078V298.203L444.287 303.216V307.685L444.295 307.677ZM456.349 303.994H451.368L448.935 305.828L446.436 307.71C446.436 307.71 446.436 307.71 446.428 307.71L446.42 307.718L445.536 308.383H450.103L456.365 303.986L456.349 303.994ZM450.427 294.496L448.959 295.745L446.964 297.448L444.295 299.728V301.512L450.427 296.499V294.488V294.496ZM459.075 287.122L457.241 288.68L456.284 289.499L451.815 293.311V295.372L459.075 289.442V287.114V287.122ZM485.981 297.651L484.513 298.543L482.68 299.655L481.649 300.279V301.488L485.981 298.949V297.651ZM478.015 308.488H480.262V303.8L478.015 305.122V308.496V308.488ZM480.57 299.42L483.734 297.497H478.356L470.22 302.737H475.095L478.332 300.774L479.062 300.328L480.562 299.42H480.57ZM480.262 301.115L479.84 301.374L478.015 302.486V303.613L480.262 302.291V301.115ZM465.523 281.46C465.515 281.485 465.507 281.501 465.499 281.525C465.491 281.541 465.491 281.566 465.483 281.582C465.475 281.598 465.467 281.614 465.45 281.631C465.434 281.647 465.426 281.671 465.418 281.687C465.402 281.704 465.393 281.72 465.385 281.728C465.369 281.744 465.353 281.768 465.329 281.785C465.329 281.785 465.329 281.785 465.321 281.793L464.769 282.263L463.366 283.464L460.462 285.946V288.331L468.849 281.485V272.911L465.548 275.896V281.347V281.355V281.363C465.548 281.379 465.54 281.403 465.54 281.428C465.54 281.444 465.54 281.46 465.531 281.476L465.523 281.46ZM389.079 244.99L387.992 248.746L387.943 248.932L386.572 253.662L385.729 256.582L385.591 257.068V259.599L390.36 244.025V240.521L389.265 244.317L389.071 244.99H389.079ZM457.258 299.566C457.225 299.598 457.184 299.63 457.136 299.655L454.313 301.78L453.031 302.737H458.134L465.613 297.497H460.015L457.258 299.566ZM460.462 295.526L462.4 294.066C462.433 294.033 462.465 294.009 462.506 293.985L465.718 291.576L468.849 289.215V283.147L460.462 289.994V295.518V295.526ZM460.405 302.737H467.835L475.971 297.497H467.876L460.397 302.737H460.405ZM322.644 497.239L323.236 495.771H322.644V497.239ZM300.848 476.936H293.296L292.436 478.152L290.968 480.221L290.116 481.421H297.985L300.848 476.936ZM297.246 475.678H306.186V456.681H295.916L295.186 457.573L294.586 458.311L291.414 462.18L291.244 462.391L289.37 464.671L288.453 465.798L288.429 465.831L286.028 468.759L285.517 469.375L283.01 472.434C283.002 472.442 282.994 472.45 282.986 472.458C282.962 472.482 282.937 472.507 282.913 472.523C282.897 472.539 282.881 472.547 282.873 472.555C282.848 472.572 282.816 472.588 282.791 472.604C282.775 472.612 282.759 472.62 282.743 472.628C282.71 472.645 282.678 472.653 282.637 472.661C282.621 472.661 282.613 472.669 282.597 472.669C282.548 472.677 282.499 472.685 282.451 472.685H275.864V475.67H292.899H297.238L297.246 475.678ZM259.478 430.731L258.14 431.607L255.974 433.019L254.83 433.765H282.288V411.945H271.719V422.433C271.719 422.449 271.719 422.458 271.719 422.474C271.719 422.498 271.719 422.522 271.711 422.547C271.711 422.563 271.703 422.587 271.695 422.604C271.687 422.62 271.678 422.644 271.678 422.66C271.67 422.677 271.662 422.701 271.646 422.717C271.63 422.733 271.622 422.75 271.614 422.766C271.597 422.782 271.581 422.798 271.573 422.814C271.557 422.831 271.549 422.847 271.532 422.863C271.516 422.879 271.492 422.896 271.467 422.912C271.451 422.92 271.443 422.928 271.435 422.936L266.763 425.986L259.487 430.723L259.478 430.731ZM260.241 436.588L262.431 435.014H252.9L252.665 435.169L250.491 436.588H260.241ZM259.276 383.797H259.268L251.975 385.776V434.065L252.275 433.871L255.163 431.989L257.329 430.577L258.667 429.701L265.651 425.151V382.061L259.276 383.789V383.797ZM280.269 439.346H264.524L259.43 443.175H275.937L280.269 439.346ZM287.172 461.937L283.14 466.626V470.162L287.172 465.247V461.937ZM284.446 441.025C284.454 441.017 284.462 441.009 284.471 440.993L284.957 440.538L286.223 439.346H282.24L277.908 443.175H282.151L284.446 441.025ZM287.172 440.271L285.971 441.398C285.955 441.415 285.947 441.423 285.931 441.439L285.452 441.885L283.14 444.051V447.831L287.172 443.824V440.279V440.271ZM257.937 438.219L258.464 437.845L258.481 437.837H248.552L245.421 439.873H255.625L257.937 438.219ZM257.256 443.167L262.35 439.338H258.61L256.299 440.993L253.265 443.167H257.256ZM244.691 438.803L250.58 434.966V386.15L244.691 387.748V438.803ZM287.172 445.681L283.14 449.688V464.573L287.172 459.885V445.681ZM291.552 429.352H289.889L287.521 431.364L285.712 432.905H287.537L291.544 429.361L291.552 429.352ZM263.007 436.182L262.48 436.564L260.436 438.024L260.363 438.081H264.013L268.101 435.006H264.646L262.999 436.191L263.007 436.182ZM294.075 451.838L297.806 447.49V435.087L294.075 438.803V451.838ZM286.125 434.155H284.243L283.44 434.836C283.424 434.852 283.408 434.852 283.392 434.868C283.375 434.885 283.359 434.893 283.343 434.909C283.319 434.925 283.302 434.933 283.278 434.941C283.262 434.949 283.246 434.958 283.229 434.966C283.205 434.974 283.173 434.982 283.148 434.99C283.132 434.99 283.116 434.998 283.1 435.006C283.051 435.014 283.01 435.023 282.962 435.023H270.275L266.187 438.097H281.68L286.117 434.171L286.125 434.155ZM314.492 465.928V464.882L314.476 464.914L314.362 465.101L313.397 466.723H314.492V465.936V465.928ZM314.492 470.446V467.964H312.642L311.937 469.14L310.98 470.746L310.809 471.038L309.852 472.628L309.446 473.302H313.486L314.5 471.476V470.446H314.492ZM314.492 461.029L307.564 472.215V473.813L308.635 472.028L308.749 471.841L309.592 470.438L309.763 470.154L310.095 469.603L311.596 467.096L311.628 467.047L312.472 465.636L313.153 464.508L314.5 462.262V461.045L314.492 461.029ZM287.764 437.886L290.165 435.631C290.165 435.631 290.165 435.631 290.173 435.631L290.562 435.258L291.73 434.163H288.088L283.651 438.089H287.553L287.756 437.902L287.764 437.886ZM296.638 486.013H306.445L308.303 482.654H298.78L296.638 486.013ZM314.492 484.285V482.654H309.852L307.994 486.013H314.492V484.285ZM302.438 476.903L299.583 481.389H309L312.788 474.543H308.692L308.505 474.851L307.475 476.571C307.475 476.579 307.467 476.579 307.459 476.587C307.435 476.627 307.402 476.668 307.37 476.7C307.37 476.7 307.37 476.708 307.362 476.708C307.321 476.741 307.281 476.773 307.232 476.798C307.232 476.798 307.224 476.806 307.216 476.806C307.208 476.814 307.199 476.814 307.191 476.814C307.159 476.83 307.11 476.846 307.078 476.863C307.07 476.863 307.062 476.871 307.053 476.871C307.045 476.871 307.037 476.871 307.037 476.871C306.98 476.879 306.932 476.887 306.867 476.887H302.438V476.903ZM314.492 454.839V450.329L307.564 460.436V469.627L314.492 458.441V454.831V454.839ZM314.492 480.586V474.543H314.338L310.55 481.389H314.492V480.586ZM295.008 455.642L295.689 454.807L295.73 454.758L295.965 454.466L297.806 452.219V449.51L294.075 453.858V456.778L294.326 456.47L295.008 455.634V455.642ZM299.193 450.532L300.369 449.088L300.548 448.869L302.057 447.036L302.511 446.476V444.035L299.185 447.904V450.54L299.193 450.532ZM290.522 461.118L292.688 458.473V455.472L288.559 460.282V463.511L290.295 461.394L290.522 461.11V461.118ZM292.688 440.165L288.559 444.278V458.246L292.688 453.436V440.165ZM292.688 435.063L291.584 436.101C291.576 436.109 291.568 436.118 291.552 436.126L291.195 436.458C291.179 436.475 291.163 436.491 291.138 436.507L288.794 438.713C288.778 438.73 288.753 438.754 288.729 438.77L288.551 438.94V442.412L292.68 438.3V435.063H292.688ZM496.713 382.288L500.006 383.035V381.161L496.388 380.423L496.356 380.415L493.192 379.766V381.494L495.577 382.037L496.721 382.297L496.713 382.288ZM492.048 386.628L478.891 383.27H461.297L472.232 386.628H492.048ZM459.813 406.721L463.422 408.611L466.967 410.468L471.948 413.08C471.956 413.08 471.964 413.089 471.964 413.089C471.98 413.105 472.005 413.113 472.021 413.129C472.037 413.137 472.053 413.153 472.069 413.162C472.086 413.178 472.102 413.194 472.118 413.21C472.134 413.226 472.151 413.243 472.159 413.259C472.175 413.275 472.183 413.291 472.191 413.308C472.199 413.324 472.215 413.34 472.224 413.364C472.232 413.381 472.24 413.405 472.248 413.421C472.256 413.437 472.264 413.462 472.264 413.478C472.272 413.494 472.272 413.518 472.28 413.535C472.28 413.559 472.288 413.583 472.288 413.608C472.288 413.616 472.288 413.624 472.288 413.624V419.034L483.896 425.67V417.761L461.889 406.721H459.813ZM453.396 437.334L454.248 438.056H457.33L457.176 437.926L456.446 437.334H453.404H453.396ZM492.113 416.771L470.561 406.721H464.745L484.756 416.771H492.113ZM472.288 423.65V427.584L483.896 435.031V427.17L472.288 420.535V423.65ZM413.568 470.13V475.8C413.568 476.149 413.26 476.425 412.878 476.425H412.059L414.89 482.233H420.09L413.576 470.13H413.568ZM405.765 476.425L413.738 494.651V493.816L405.902 476.425H405.765ZM409.098 476.425H407.403L413.746 490.498V482.995L410.542 476.425H409.098ZM401.238 477.057L400.979 476.425H380.659C380.618 476.425 380.57 476.425 380.529 476.416C380.513 476.416 380.505 476.408 380.489 476.408C380.456 476.4 380.432 476.392 380.407 476.384C380.391 476.384 380.375 476.376 380.359 476.368C380.343 476.36 380.334 476.36 380.318 476.352C380.31 476.343 380.302 476.335 380.286 476.335C380.27 476.327 380.253 476.319 380.245 476.311C380.229 476.295 380.205 476.279 380.18 476.262C380.172 476.254 380.156 476.246 380.148 476.23C380.132 476.214 380.107 476.189 380.091 476.165C380.083 476.157 380.075 476.149 380.067 476.133C380.05 476.108 380.034 476.076 380.018 476.043C380.018 476.035 380.01 476.035 380.01 476.027C379.994 475.995 379.977 475.962 379.969 475.922V475.913L379.58 474.324L379.142 472.555L378.469 469.822H378.209L378.598 471.485C378.598 471.501 378.607 471.517 378.615 471.541L379.191 474.023L379.199 474.056L379.815 476.692C379.815 476.692 379.815 476.692 379.815 476.7L380.448 479.418C380.448 479.426 380.448 479.434 380.448 479.442L381.202 482.695H403.55L402.35 479.775L401.222 477.049L401.238 477.057ZM379.101 479.702C379.101 479.702 379.101 479.702 379.101 479.694L378.469 476.968C378.469 476.968 378.469 476.968 378.469 476.96L378.055 475.183V492.697L378.623 495.633L379.207 498.618L379.831 501.814L379.969 502.536V483.401L379.11 479.702H379.101ZM456.917 440.344L459.261 442.339L459.431 442.485H462.773L462.149 441.974L460.291 440.465L458.864 439.305H455.708L456.909 440.336L456.917 440.344ZM461.711 444.432L462.757 445.324L463.714 446.144L464.266 446.614C464.266 446.614 464.274 446.614 464.274 446.622C464.298 446.638 464.315 446.655 464.331 446.679C464.347 446.695 464.355 446.703 464.363 446.72C464.38 446.736 464.388 446.76 464.396 446.776C464.404 446.793 464.42 446.809 464.428 446.825C464.436 446.841 464.444 446.857 464.453 446.882C464.461 446.898 464.469 446.922 464.469 446.947C464.469 446.963 464.477 446.979 464.477 446.995C464.477 447.02 464.485 447.044 464.485 447.068V447.076V447.953H469.498L468.411 447.068L466.205 445.284L464.315 443.751H460.9L461.711 444.44V444.432ZM445.398 450.045L447.54 452.309L448.546 453.371V447.312L446.501 445.316L444.368 443.232L443.524 442.412V448.074L445.406 450.062L445.398 450.045ZM433.304 448.918V454.442H447.734L446.493 453.128L444.352 450.865L442.519 448.918H433.312H433.304ZM476.588 379.028H467.381L479.062 382.013H489.753L488.35 381.696L485.648 381.08L484.505 380.82L480.765 379.969L477.131 379.141L476.588 379.019V379.028ZM484.845 379.603L485.989 379.863L488.69 380.471L491.773 381.169V379.474L488.366 378.776C488.366 378.776 488.366 378.776 488.358 378.776C488.358 378.776 488.358 378.776 488.35 378.776L484.513 377.989H484.496H484.488L480.781 377.227C480.781 377.227 480.781 377.227 480.773 377.227H480.757L477.999 376.659V378.07L481.114 378.776L484.853 379.628L484.845 379.603ZM440.337 446.622L438.471 444.643L436.727 442.802C436.694 442.777 436.678 442.753 436.646 442.72L434.991 440.968L433.385 439.273L432.079 437.894H428.307L428.818 438.478L430.31 440.173L431.892 441.958L433.141 443.369C433.15 443.378 433.15 443.386 433.158 443.394C433.174 443.41 433.19 443.426 433.198 443.451C433.206 443.467 433.214 443.483 433.231 443.499C433.239 443.515 433.247 443.54 433.255 443.556C433.263 443.572 433.271 443.597 433.271 443.613C433.279 443.629 433.279 443.653 433.287 443.67C433.287 443.694 433.296 443.718 433.296 443.734C433.296 443.743 433.296 443.751 433.296 443.759V447.652H441.31L440.328 446.614L440.337 446.622ZM426.198 466.423V463.235H424.989V464.557L426.198 466.423ZM425.744 482.224L414.712 463.227H413.552V467.25L421.607 482.224H425.735H425.744ZM435.031 482.224L426.612 469.302C426.595 469.294 426.587 469.286 426.571 469.286C426.555 469.278 426.539 469.27 426.53 469.27C426.49 469.246 426.449 469.221 426.425 469.197C426.417 469.189 426.409 469.189 426.409 469.181C426.368 469.148 426.336 469.108 426.303 469.067C426.303 469.059 426.295 469.059 426.295 469.051L422.515 463.235H416.269L427.301 482.233H435.023L435.031 482.224ZM438.471 437.464L438.333 437.326H435.729C435.68 437.326 435.632 437.326 435.591 437.31H435.583C435.542 437.302 435.502 437.294 435.461 437.278C435.461 437.278 435.461 437.278 435.453 437.278C435.453 437.278 435.453 437.278 435.445 437.278C435.437 437.269 435.429 437.269 435.421 437.261C435.388 437.245 435.364 437.237 435.34 437.221C435.324 437.213 435.315 437.205 435.299 437.188C435.275 437.172 435.25 437.156 435.226 437.132C435.226 437.132 435.218 437.123 435.21 437.123L434.269 436.174L433.393 435.29L433.077 434.974V437.026L434.431 438.462C434.431 438.462 434.431 438.462 434.439 438.462L436.045 440.157L437.733 441.942C437.733 441.942 437.733 441.942 437.733 441.95L439.509 443.832L441.375 445.803L442.113 446.59V441.041L440.337 439.314L438.511 437.529C438.495 437.513 438.479 437.497 438.463 437.48L438.471 437.464ZM453.486 439.135L452.05 437.91L451.368 437.326H440.231L441.342 438.413C441.359 438.429 441.383 438.446 441.399 438.47L443.135 440.165H454.694L453.494 439.135H453.486ZM440.71 482.224L431.779 469.351H428.266L436.646 482.224H440.71ZM440.044 473.707L442.332 476.871L443.451 478.42V469.351H436.897L439.29 472.661L440.044 473.707ZM460.656 445.259L458.669 443.564L456.787 441.958L456.154 441.415H444.4L445.341 442.339C445.358 442.347 445.366 442.364 445.374 442.372L447.467 444.416C447.499 444.44 447.515 444.465 447.54 444.489L449.527 446.428H462.027L460.648 445.251L460.656 445.259Z" fill="#F29100"/>
</g>
<defs>
<filter id="filter0_d_1_46" x="60.8608" y="61.1095" width="605.987" height="606.014" filterUnits="userSpaceOnUse" color-interpolation-filters="sRGB">
<feFlood flood-opacity="0" result="BackgroundImageFix"/>
<feColorMatrix in="SourceAlpha" type="matrix" values="0 0 0 0 0 0 0 0 0 0 0 0 0 0 0 0 0 0 127 0" result="hardAlpha"/>
<feOffset/>
<feGaussianBlur stdDeviation="2"/>
<feComposite in2="hardAlpha" operator="out"/>
<feColorMatrix type="matrix" values="0 0 0 0 0.94902 0 0 0 0 0.568627 0 0 0 0 0 0 0 0 1 0"/>
<feBlend mode="normal" in2="BackgroundImageFix" result="effect1_dropShadow_1_46"/>
<feBlend mode="normal" in="SourceGraphic" in2="effect1_dropShadow_1_46" result="shape"/>
</filter>
</defs>
</svg>
