<svg width="122" height="122" viewBox="0 0 122 122" fill="none" xmlns="http://www.w3.org/2000/svg">
<path fill-rule="evenodd" clip-rule="evenodd" d="M67.9784 0.591427C74.6525 1.39811 80.9924 3.28642 86.817 6.08018V9.92922H84.7558V6.19377C84.7558 6.04725 84.6241 5.92707 84.4611 5.92707H72.0991C72.0925 5.92707 72.0875 5.92872 72.0826 5.92872C72.0711 5.92872 72.0596 5.93037 72.048 5.93201C72.0398 5.93366 72.0316 5.93531 72.0233 5.93695C72.0135 5.94025 72.0036 5.94189 71.9937 5.94518C71.9855 5.94848 71.9772 5.95177 71.969 5.95506C71.9591 5.95835 71.9509 5.96329 71.9427 5.96823C71.9361 5.97152 71.9295 5.97646 71.9213 5.9814C71.913 5.98799 71.9048 5.99293 71.8982 5.99951C71.8916 6.00445 71.8867 6.01104 71.8801 6.01597C71.8735 6.02256 71.8669 6.02915 71.8604 6.03738C71.8554 6.04396 71.8505 6.05219 71.8455 6.05878C71.8406 6.06536 71.8357 6.07359 71.8324 6.08183C71.8274 6.09006 71.8241 6.09994 71.8208 6.10817C71.8192 6.11475 71.8159 6.11969 71.8143 6.12463L70.8907 9.32503L70.7178 9.92593H67.9784V0.588135V0.591427ZM91.853 8.79657C92.0258 8.90029 92.2003 9.004 92.3732 9.11101L89.4708 13.533H88.8781C88.8748 13.533 88.8715 13.533 88.8683 13.5346C88.865 13.5346 88.8617 13.5346 88.8584 13.5346L91.853 8.79822V8.79657ZM92.8572 9.41558C93.2309 9.651 93.5997 9.88971 93.9685 10.1317L91.6011 13.533H90.1556L92.8589 9.41558H92.8572ZM94.4459 10.4445C94.6616 10.5894 94.8739 10.7392 95.088 10.8857L93.17 13.5313H92.2958L94.4459 10.4445ZM95.5588 11.2117C95.9671 11.4998 96.3704 11.7945 96.7705 12.0908L95.6576 13.5313H93.8746L95.5588 11.21V11.2117ZM97.2248 12.4332C97.6002 12.718 97.9706 13.0045 98.3394 13.2975L96.0165 16.1374V14.0005L97.2265 12.4332H97.2248ZM98.7822 13.6499C99.7075 14.3989 100.61 15.176 101.487 15.9777L96.5466 21.3348H96.0148V17.033L98.7822 13.6499ZM101.902 16.3597C102.18 16.6181 102.458 16.8799 102.732 17.1433L98.6736 21.3348H97.3154L101.902 16.3597ZM103.133 17.5368C103.387 17.7853 103.637 18.0372 103.887 18.2908L100.799 21.3348H99.4572L103.135 17.5368H103.133ZM104.725 19.16C104.867 19.3082 105.007 19.458 105.147 19.6078V21.2673L103.743 22.5349V21.5998C103.743 21.4533 103.611 21.3331 103.448 21.3331H102.91V20.915L104.215 19.6506L104.724 19.1584L104.725 19.16ZM105.735 20.2548C105.814 20.3437 105.894 20.4309 105.973 20.5215L105.735 20.7372V20.2548ZM106.344 20.9397C106.979 21.6673 107.597 22.4131 108.197 23.1704L105.735 25.1822V21.4895L106.344 20.9397ZM108.543 23.6083C108.963 24.1499 109.375 24.6981 109.776 25.253V25.4768L108.285 26.598C108.285 26.598 108.285 26.598 108.283 26.5996L106.74 27.7586L105.735 28.5159V25.8999L108.541 23.6083H108.543ZM110.221 25.8703C110.548 26.3329 110.866 26.8021 111.18 27.2746L108.981 28.8172H106.255L107.116 28.1685L108.658 27.0095C108.658 27.0095 108.658 27.0095 108.66 27.0095L110.175 25.8703H110.219H110.221ZM111.483 27.7372C111.717 28.0945 111.946 28.455 112.172 28.8188H109.942L111.483 27.7372ZM112.501 29.3522C112.549 29.4312 112.596 29.5119 112.644 29.5926L108.999 31.9402H105.493L109.182 29.3522H112.501ZM112.926 30.0651C113.146 30.4388 113.363 30.8158 113.576 31.1961L112.349 31.9402H110.015L112.926 30.0651ZM113.843 31.6768C113.922 31.8233 114.001 31.9698 114.08 32.1164L113.011 32.7436V32.1806L113.841 31.6768H113.843ZM114.341 32.6004C114.592 33.0761 114.835 33.5585 115.074 34.0425V36.2667L113.352 37.1425H113.014V33.3791L114.343 32.6004H114.341ZM115.662 35.2723C115.749 35.46 115.835 35.6477 115.92 35.8353L115.662 35.967V35.2723ZM116.299 36.6898L116.389 36.8972L115.887 37.1409H114.554L115.443 36.6881H116.299V36.6898ZM116.717 37.6759C118.48 41.9431 119.768 46.4556 120.52 51.1492H99.6186C99.0489 48.8493 98.2851 46.6268 97.3384 44.5014V37.6776H103.871H113.428H115.96H116.715L116.717 37.6759ZM120.63 51.8587C120.815 53.1017 120.963 54.3562 121.071 55.6222H118.974V54.613V52.2539L120.63 51.8571V51.8587ZM118.385 55.6222H115.003L118.385 54.9488V55.6222ZM112.262 55.6222H107.544L118.385 53.1577V54.4023L112.262 55.6222ZM105.125 55.6222H104.9L116.035 52.9568L117.222 52.672L117.571 52.5881L118.385 52.3938V52.6062L105.125 55.6205V55.6222ZM102.593 55.6222H100.46C100.452 55.5629 100.443 55.5036 100.435 55.4427H103.342L102.595 55.6222H102.593ZM100.359 54.9093C100.297 54.4846 100.226 54.0615 100.15 53.6417H110.866L109.213 54.0368L105.572 54.9093H100.359ZM100.053 53.1083C99.9594 52.6292 99.8556 52.1534 99.747 51.6809H119.06L118.604 51.7912L115.884 52.4415L113.095 53.1099H100.053V53.1083ZM96.7491 43.2387C96.1119 41.9316 95.4073 40.6639 94.6369 39.4407L94.8624 39.2827L95.5407 38.8053L96.2585 38.2999L96.7491 37.9541V43.2404V43.2387ZM94.3389 38.9748C94.1644 38.7065 93.9866 38.4381 93.8055 38.1731L94.5233 37.6331H96.242L95.1801 38.3805L94.9315 38.555L94.3389 38.9715V38.9748ZM93.4894 37.7187C93.2178 37.3335 92.9412 36.9515 92.6564 36.5762L94.1232 35.3777V37.2413L93.4894 37.7171V37.7187ZM92.3172 36.135C92.2135 36 92.1065 35.8683 92.0012 35.7349L94.1249 33.924V34.6599L92.3189 36.135H92.3172ZM91.6505 35.3019C91.3311 34.9151 91.0051 34.5315 90.6726 34.1561L99.5988 25.8687H102.705L99.1543 28.8995L98.5814 29.3884L97.4125 30.3861L96.81 30.8997L95.4452 32.0653L95.2295 32.2481L94.2171 33.1124L93.4087 33.8022L93.2622 33.9273L92.3584 34.6994L91.6521 35.3019H91.6505ZM90.2972 33.7413C89.5449 32.9165 88.7579 32.1229 87.9414 31.364L92.9906 25.8687H98.7757L90.2972 33.7413ZM87.5249 30.9854C87.0063 30.5178 86.4762 30.0634 85.9345 29.6222L89.0263 25.8687H92.2234L87.5249 30.9854ZM85.4917 29.2683C85.2332 29.0641 84.9731 28.8633 84.7097 28.6657L88.5834 23.6478V25.5131L85.4917 29.2666V29.2683ZM84.252 28.3282C83.7417 27.9562 83.2231 27.5956 82.6946 27.2466L82.7934 27.105L82.907 26.9404L84.7097 24.3442C84.713 24.3393 84.7163 24.3343 84.7179 24.3277C84.7245 24.3179 84.7294 24.3096 84.7344 24.2997C84.7377 24.2915 84.741 24.2833 84.7426 24.2751C84.7459 24.2668 84.7492 24.2586 84.7509 24.2504C84.7525 24.2405 84.7541 24.229 84.7541 24.2191C84.7541 24.2125 84.7558 24.2076 84.7558 24.2026V23.1901L88.5818 17.5433V22.7177L84.2504 28.3282H84.252ZM82.2139 26.9371C81.4846 26.4712 80.7388 26.0267 79.9766 25.6069L80.6615 24.4693H83.9277L83.3778 25.2612L83.2396 25.462L82.4329 26.6227L82.367 26.7165L82.2139 26.9388V26.9371ZM79.4695 25.3353C78.9032 25.034 78.3303 24.7442 77.7492 24.4693H79.9914L79.4695 25.3353ZM76.5655 23.9359C75.2106 23.3498 73.8195 22.8345 72.3921 22.3966V6.46047H84.1664V23.8124V23.9343H76.5655V23.9359ZM71.8044 22.2238L71.7978 22.2221L71.8044 22.2057V22.2238ZM71.2348 22.0641C70.7524 21.9324 70.2651 21.8089 69.7761 21.6953V18.3698L71.8044 11.755V20.5577L71.2348 22.0657V22.0641ZM69.1884 21.5603C69.0666 21.534 68.9448 21.5093 68.8229 21.4846L69.1884 20.2894V21.5603ZM68.2467 21.3677C68.1776 21.3545 68.1068 21.343 68.0377 21.3298L68.5875 19.4234L69.1884 17.3392V18.2957L68.2467 21.3677ZM67.4582 21.2245C66.9132 21.1306 66.3667 21.0483 65.8152 20.9775V19.6226H67.9208L67.7759 20.1231L67.7084 20.3585V20.3602C67.7084 20.3602 67.7084 20.3602 67.7084 20.3618L67.4598 21.2228L67.4582 21.2245ZM121.068 66.0515C121.045 66.3149 121.019 66.575 120.992 66.8368H115.216L113.579 66.5009C113.576 66.5009 113.573 66.5009 113.569 66.4993L111.976 66.1716C111.956 66.1651 111.935 66.1618 111.913 66.1585L111.363 66.0449H121.024L121.067 66.0515H121.068ZM120.941 67.3685C120.935 67.4311 120.927 67.492 120.92 67.5545H118.714L117.812 67.3685H120.943H120.941ZM120.856 68.0879C120.806 68.511 120.75 68.9325 120.691 69.3523L119.634 69.1136L118.974 68.9638V68.0879H120.856ZM120.615 69.8857C120.592 70.0421 120.568 70.1985 120.543 70.3549H117.176L111.585 68.9275H116.393L116.844 69.0296L118.61 69.4297L119.493 69.6305L120.597 69.8808L120.617 69.8857H120.615ZM120.454 70.8899C120.029 73.4368 119.445 75.9309 118.712 78.3592H116.987H116.985H98.8827V73.0812C99.1148 72.3601 99.3272 71.6291 99.5181 70.8899H106.535H106.536H106.538H117.134C117.134 70.8899 117.133 70.8899 117.135 70.8899C117.135 70.8899 117.135 70.8899 117.137 70.8899H120.456H120.454ZM118.375 79.449C118.284 79.7306 118.19 80.0088 118.097 80.287L114.679 78.8926H115.148H116.928L118.375 79.4474V79.449ZM117.92 80.8006C117.805 81.1299 117.69 81.4592 117.57 81.7868L110.922 78.8942H113.243L117.92 80.8006ZM117.377 82.2938C117.267 82.5836 117.157 82.875 117.043 83.1631H116.324L107.165 78.8942H107.789H109.562L117.379 82.2938H117.377ZM116.826 83.6948C115.518 86.9051 113.945 89.9771 112.13 92.8845V83.6948H116.249C116.249 83.6948 116.249 83.6948 116.251 83.6948H116.826ZM111.541 93.8113C111.381 94.0566 111.222 94.3003 111.06 94.5423L106.61 91.3781V89.7005V88.4082L111.541 91.5707V93.813V93.8113ZM110.749 95C110.268 95.7029 109.775 96.396 109.266 97.0759L102.635 91.8983H106.316C106.337 91.8983 106.358 91.8967 106.378 91.8917L110.748 95H110.749ZM108.105 98.5823C107.993 98.7239 107.88 98.8671 107.764 99.007H103.3V97.0035V96.9393H106.084L106.984 97.6719L108.067 98.5527L108.104 98.5823H108.105ZM107.325 99.5404C106.867 100.092 106.401 100.634 105.926 101.167H103.3V99.5404H107.325ZM105.446 101.702C104.75 102.464 104.034 103.21 103.3 103.936V102.235V101.702H105.446ZM102.712 104.512C102.552 104.665 102.389 104.818 102.23 104.97H97.7089H91.0447C91.0447 104.97 91.0446 104.97 91.043 104.97H87.6286V102.902H89.7622C89.9252 102.902 90.0569 102.784 90.0569 102.635V99.7001H96.8264C96.8446 99.7001 96.8627 99.6985 96.8808 99.6952C96.8874 99.6935 96.8939 99.6919 96.9005 99.6903C96.912 99.687 96.9219 99.6853 96.9335 99.6804C96.94 99.6771 96.9466 99.6738 96.9548 99.6705C96.9647 99.6656 96.973 99.6623 96.9828 99.6573C96.9894 99.654 96.996 99.6491 97.0042 99.6441C97.0092 99.6409 97.0141 99.6376 97.0191 99.6343C97.0223 99.6326 97.024 99.6293 97.0273 99.6277C97.0355 99.6211 97.0421 99.6145 97.0487 99.6079C97.0553 99.6014 97.0602 99.5948 97.0652 99.5898C97.0717 99.5832 97.075 99.575 97.0816 99.5684C97.0866 99.5602 97.0915 99.5536 97.0948 99.5454C97.0997 99.5371 97.1014 99.5289 97.1047 99.5207C97.108 99.5124 97.1112 99.5042 97.1129 99.496C97.1145 99.4878 97.1162 99.4795 97.1178 99.4713C97.1195 99.4614 97.1195 99.4532 97.1211 99.4433C97.1211 99.44 97.1228 99.4367 97.1228 99.4334V96.2989H102.715V104.512H102.712ZM101.66 105.503C100.21 106.835 98.6933 108.096 97.1195 109.283V105.503H101.66ZM96.5301 109.724C96.1169 110.027 95.7004 110.324 95.2806 110.617L94.9744 110.194L94.9546 110.167V105.502H96.5301V109.723V109.724ZM94.8097 110.941L94.7653 110.972H93.896L90.1013 105.503H90.88L91.5023 106.364L92.1082 107.202L94.4179 110.398L94.4838 110.488L94.813 110.943L94.8097 110.941ZM93.9685 111.506C90.4273 113.84 86.6276 115.814 82.6206 117.375H82.3275V115.845V115.844V111.507H84.9023C84.9023 111.507 84.9023 111.507 84.904 111.507H87.3306C87.3306 111.507 87.3306 111.507 87.3323 111.507H93.9685V111.506ZM77.5434 119.095C74.45 119.992 71.2529 120.648 67.9767 121.044V111.707H77.5434V119.095ZM65.8152 111.517V104.716L65.9864 105.449V112.391L65.8991 111.949L65.8152 111.517ZM65.8152 102.137V101.898L65.932 102.367L66.2926 103.826L66.4572 104.492L66.6136 105.123L66.6251 105.169H66.5231L66.3403 104.382V104.381L66.1181 103.422V103.421C66.1181 103.421 66.1181 103.421 66.1181 103.419L65.9041 102.502C65.9041 102.502 65.9041 102.5 65.9024 102.5C65.9024 102.5 65.9024 102.499 65.9024 102.497L65.9008 102.489L65.8185 102.138L65.8152 102.137ZM66.1033 100.619C66.5346 100.559 66.9626 100.495 67.389 100.423V105.826L67.2787 105.385L67.2771 105.382L67.1223 104.756L66.8655 103.714L66.7931 103.421L66.5659 102.5L66.4473 102.018L66.1033 100.622V100.619ZM67.9784 100.317C68.902 100.146 69.814 99.9454 70.7129 99.7133L71.8192 102.721C71.8208 102.724 71.8225 102.728 71.8241 102.733C71.8274 102.739 71.8291 102.744 71.8324 102.749C71.8373 102.759 71.8422 102.767 71.8488 102.777C71.8521 102.782 71.8554 102.785 71.8587 102.79C71.8669 102.802 71.8768 102.812 71.8867 102.822C71.8883 102.823 71.89 102.825 71.8933 102.826C71.9048 102.838 71.918 102.848 71.9328 102.858C71.9361 102.859 71.941 102.861 71.946 102.864C71.9558 102.871 71.9674 102.876 71.9789 102.881C71.9855 102.884 71.9904 102.886 71.997 102.887C72.0085 102.891 72.0201 102.894 72.0316 102.897C72.0365 102.899 72.0415 102.901 72.048 102.901C72.0661 102.904 72.0843 102.905 72.1024 102.905H72.104H81.0813V107.974H78.9312H67.9833V100.321L67.9784 100.317ZM71.2792 99.5602C71.4554 99.5124 71.6299 99.4631 71.806 99.412V100.991L71.2792 99.5602ZM72.3938 99.2375C75.7736 98.2036 78.9625 96.7352 81.8962 94.8979H89.4659V102.367H81.585H72.3938V99.2375ZM82.7292 94.3645C82.991 94.1916 83.2511 94.0138 83.5079 93.836L83.9047 94.3645H82.7276H82.7292ZM83.9738 93.5068C84.8743 92.8614 85.7469 92.1815 86.5898 91.467L87.324 92.3L89.1465 94.3645H84.6159L83.9722 93.5068H83.9738ZM87.0178 91.0982C87.2977 90.8546 87.5759 90.6076 87.8508 90.3541L88.2756 90.8035L88.8419 91.4011C88.8419 91.4011 88.8419 91.4011 88.8436 91.4028L88.8551 91.416C88.8551 91.416 88.8567 91.4176 88.8584 91.4193L89.0329 91.6036H87.4656L87.0194 91.0982H87.0178ZM88.2608 89.9689C88.3958 89.8405 88.5291 89.7121 88.6608 89.5836L89.372 90.3014V91.1443L89.2897 91.0571C89.2897 91.0571 89.2897 91.0571 89.2881 91.0571L88.7217 90.4595C88.7217 90.4595 88.7217 90.4595 88.7217 90.4578L88.2591 89.9689H88.2608ZM89.0625 89.1885C89.1975 89.0535 89.3325 88.9152 89.4659 88.7769V89.5952L89.2848 89.4124L89.0625 89.1885ZM90.0552 88.1563C90.3038 87.888 90.5491 87.618 90.7911 87.343V90.9336L90.0552 90.1895V88.1563ZM91.3789 86.6582C92.5889 85.2193 93.7001 83.6948 94.7011 82.093H106.023V91.3633H91.3789V86.6565V86.6582ZM95.0303 81.5596C95.1242 81.4048 95.2147 81.2484 95.3069 81.0937H104.33L105.221 81.5596H95.0303ZM95.6131 80.5586C95.9852 79.9001 96.3408 79.2284 96.6766 78.5469H97.8751L98.4382 78.8531C98.4415 78.8547 98.4448 78.8564 98.4481 78.8564C98.4645 78.8646 98.4826 78.8728 98.5007 78.8778C98.5073 78.8794 98.5139 78.8811 98.5188 78.8827C98.5402 78.8876 98.5633 78.8909 98.588 78.8909H100.132L103.311 80.5586H95.6115H95.6131ZM97.1573 77.5344C97.5689 76.6355 97.9492 75.7202 98.2966 74.7867V78.1534L97.1573 77.5344ZM99.6515 70.3532C99.7667 69.8808 99.8721 69.405 99.9709 68.9259H100.106L104.752 70.3532H99.6515ZM100.084 68.3563C100.162 67.948 100.233 67.5381 100.297 67.1249H102.36L107.323 68.3925H100.203L100.084 68.3563ZM100.45 66.0827C100.453 66.0597 100.457 66.035 100.46 66.012H103.533L104.302 66.1865L104.699 66.277L105.715 66.5075L106.089 66.5915H102.44L100.45 66.0827ZM105.962 66.012H108.451V66.5766L107.315 66.3198L105.96 66.0136L105.962 66.012ZM43.0996 118.917L43.0321 118.896V118.886L43.9095 116.705H43.9655L43.7861 117.164L43.1243 118.856L43.1012 118.916L43.0996 118.917ZM42.4427 118.715C37.996 117.32 33.7716 115.429 29.8321 113.104H36.3349C36.3349 113.104 36.3349 113.104 36.3366 113.104H39.5732V116.44C39.5732 116.586 39.7049 116.706 39.8679 116.706H42.4427V118.715ZM28.9414 112.571C28.6813 112.411 28.4245 112.248 28.1677 112.085L28.2401 111.981L28.8344 111.144H32.2175L31.3088 112.571H28.9414ZM23.8 109.04C23.6617 108.933 23.5218 108.827 23.3835 108.719V108.702H24.0733L23.7984 109.04H23.8ZM22.5752 108.081C22.1784 107.762 21.7866 107.434 21.3981 107.105V106.903H22.5752V108.081ZM20.5437 106.369C17.7993 103.954 15.2788 101.29 13.0086 98.421V94.8962H25.6653V106.368H24.2577H20.5437V106.369ZM12.4208 97.6669C12.1673 97.336 11.9171 97.0035 11.6701 96.666L12.4208 96.1161V97.6669ZM11.3458 96.2182C11.0791 95.8478 10.8173 95.4741 10.5589 95.0987H12.4208V95.4313L11.3458 96.2182ZM10.195 94.5653C9.95797 94.2114 9.72419 93.8558 9.49536 93.4985H13.8235L12.5328 94.4238C12.5295 94.427 12.5262 94.4303 12.5213 94.4336C12.513 94.4402 12.5048 94.4468 12.4982 94.4534C12.4916 94.46 12.4867 94.4666 12.4801 94.4715C12.4735 94.4781 12.4686 94.4863 12.4636 94.4929C12.462 94.4962 12.4587 94.4995 12.457 94.5028C12.457 94.5028 12.4554 94.5044 12.4554 94.5061C12.4538 94.5094 12.4521 94.5126 12.4505 94.5159C12.4472 94.5242 12.4422 94.5324 12.4389 94.5406C12.4373 94.5439 12.4356 94.5472 12.434 94.5522C12.434 94.5554 12.4324 94.5571 12.4324 94.5604C12.4324 94.562 12.4324 94.5637 12.4307 94.567H10.1934L10.195 94.5653ZM9.0344 92.7643C4.96146 86.2021 2.10843 78.8053 0.784806 70.8883H9.33073V92.7643H9.03604H9.0344ZM0.695906 70.3549C0.679443 70.2528 0.661333 70.1507 0.646517 70.0487H10.7087L9.58097 70.3549H0.695906ZM0.570787 69.5153L0.559263 69.4346L1.92898 69.1416L5.81259 68.3118H17.1045L15.9439 68.6263H15.9423L12.6744 69.5136H0.570787V69.5153ZM16.553 66.0136H20.7807C20.7922 66.1009 20.8054 66.1898 20.8169 66.277H15.3183L15.9439 66.1437L16.553 66.0136ZM20.891 66.8121C20.9141 66.9635 20.9388 67.1133 20.9635 67.2631L19.0702 67.7768H8.30673L9.49536 67.5233L12.8225 66.8121H20.891ZM21.0507 67.7965C21.6862 71.4184 22.8057 74.874 24.34 78.0925V78.1715L21.8344 79.5231L21.8327 79.5248L20.947 80.0022C20.84 80.0598 20.789 80.1685 20.8071 80.2738V80.7858C20.8054 80.799 20.8038 80.8105 20.8038 80.8237C20.8038 80.8369 20.8054 80.8484 20.8071 80.8615V85.4103L19.4094 86.3223V68.241L21.0491 67.7949L21.0507 67.7965ZM24.61 78.6473C24.931 79.2943 25.2702 79.9314 25.6241 80.5586H21.3964V80.3825L22.1356 79.9841L22.1373 79.9824C22.1389 79.9824 22.1389 79.9808 22.1406 79.9808L22.1455 79.9775C22.1471 79.9775 22.1488 79.9758 22.1488 79.9758L24.6084 78.6489L24.61 78.6473ZM26.4753 81.9909C27.5124 83.6619 28.6698 85.2506 29.9341 86.7454V87.0747L28.9464 87.9126L28.8048 88.0312L27.7693 88.9103L27.6277 89.0305L26.6942 89.824L26.4753 90.01V81.9876V81.9909ZM30.4626 87.3578C30.5581 87.4665 30.6536 87.5735 30.7507 87.6805L30.433 87.962H29.7514L30.4297 87.3858L30.4626 87.3578ZM31.5047 88.4954C31.5952 88.5909 31.6874 88.6864 31.7796 88.7819L31.6331 88.9202C31.6315 88.9218 31.6315 88.9218 31.6298 88.9235L31.6282 88.9251L31.503 89.042C31.503 89.042 31.503 89.042 31.503 89.0437C31.503 89.0437 31.503 89.0437 31.5014 89.0437L30.5235 89.9623C30.5235 89.9623 30.5235 89.9623 30.5219 89.9623L30.5202 89.9639L30.4791 90.0018H28.9678L30.6717 88.4938H31.5047V88.4954ZM32.1714 89.1819C32.2752 89.2857 32.3805 89.3877 32.4842 89.4914V90.1417L30.8972 91.7222V90.3804L30.9301 90.3492C30.94 90.3409 30.9482 90.3327 30.9581 90.3245L31.913 89.4289C31.9212 89.4223 31.9278 89.4157 31.9344 89.4075L32.0513 89.2972L32.1698 89.1852L32.1714 89.1819ZM33.989 90.8974C34.1536 91.0423 34.3199 91.1855 34.4861 91.3287V93.8722L33.0736 95.5185V90.8463C33.123 90.8776 33.1806 90.8974 33.2465 90.8974H33.9906H33.989ZM35.0755 91.8242C35.3043 92.0136 35.5348 92.1996 35.767 92.3823L35.0755 93.1874V91.8242ZM36.2148 92.7297C36.2477 92.7544 36.2806 92.7807 36.3135 92.8054V93.5496L35.5661 94.46L35.4789 94.5653L35.0739 95.0592V94.055L36.2131 92.7281L36.2148 92.7297ZM37.1482 93.4261C37.5137 93.6895 37.8841 93.9463 38.2594 94.1966L34.1947 99.5684H32.1171L32.1764 99.496L33.016 98.4703L33.1378 98.3205L34.0367 97.2241L34.7627 96.3368L35.0162 96.0272L35.0409 95.996L35.9909 94.8353L36.0386 94.7777L36.8436 93.7949L36.9391 93.6796L37.1482 93.4244V93.4261ZM38.7352 94.511C38.9723 94.6658 39.2143 94.8189 39.4547 94.9687L36.1769 99.5684H34.9092L38.7352 94.511ZM39.942 95.2683C40.0325 95.321 40.1231 95.3753 40.212 95.428L39.6176 96.2923C39.6143 96.2972 39.6127 96.3038 39.6094 96.3088C39.6045 96.317 39.5995 96.3269 39.5946 96.3351C39.5913 96.3433 39.588 96.3516 39.5864 96.3598C39.5831 96.368 39.5814 96.3763 39.5798 96.3845C39.5781 96.3894 39.5781 96.396 39.5765 96.4009L36.6296 100.699V99.9125L39.9403 95.2667L39.942 95.2683ZM40.7075 95.7161C40.9758 95.8692 41.2458 96.019 41.5175 96.1672H40.398L40.7075 95.7161ZM42.5365 96.6989C45.085 97.9863 47.7882 99.0087 50.6116 99.7331V116.175H40.1626V98.0851V96.6989H42.5365ZM51.201 99.8812C51.4199 99.9339 51.6405 99.9849 51.8628 100.033V112.033L51.201 114.347V99.8812ZM52.4505 100.159C52.732 100.217 53.0152 100.271 53.3 100.326V106.998L52.5987 109.454L52.4505 109.973V100.161V100.159ZM53.8877 100.429C54.1479 100.474 54.4063 100.513 54.6664 100.553V102.211L54.0013 104.54L53.8877 104.937V100.429ZM0.313965 54.1257C0.381463 53.51 0.460485 52.8959 0.547739 52.2851L15.2772 55.6222H8.15527L0.313965 54.1257ZM0.623469 51.7517C0.755172 50.8808 0.903339 50.0149 1.07126 49.1572L6.45959 50.6372V51.4142C6.45959 51.4192 6.46124 51.4241 6.46124 51.4291C6.46124 51.4389 6.46288 51.4472 6.46453 51.4571C6.46617 51.4653 6.46782 51.4735 6.47111 51.4817C6.47441 51.49 6.47605 51.4982 6.47934 51.5064C6.48264 51.5147 6.48593 51.5229 6.49087 51.5295C6.49416 51.5377 6.4991 51.5443 6.50404 51.5509C6.50898 51.5575 6.51392 51.5657 6.5205 51.5723C6.52379 51.5756 6.52709 51.5789 6.52873 51.5838C6.52873 51.5838 6.52873 51.5838 6.53038 51.5838C6.53367 51.5871 6.53532 51.5888 6.53861 51.5904C6.5452 51.597 6.55178 51.6036 6.55837 51.6085C6.56495 51.6151 6.57318 51.62 6.57977 51.625C6.588 51.6299 6.59623 51.6348 6.60446 51.6398C6.61269 51.6431 6.62093 51.648 6.62916 51.6513C6.63904 51.6546 6.64891 51.6579 6.65879 51.6612C6.66373 51.6628 6.66867 51.6645 6.67525 51.6678L15.5504 53.966L16.1958 54.1339L16.5761 54.2327L20.8219 55.3324C20.8087 55.4279 20.7939 55.5234 20.7807 55.6205H17.7054L0.623469 51.7501V51.7517ZM1.17498 48.6287C1.38241 47.6113 1.61619 46.6038 1.87465 45.6061L6.45794 47.124V49.3893V50.0791L1.17498 48.6271V48.6287ZM2.00965 45.0826C2.50683 43.2289 3.08797 41.4097 3.75308 39.6317L6.45959 40.8039V45.8893V46.5577L2.0113 45.0842L2.00965 45.0826ZM3.94569 39.123C4.27495 38.2636 4.62232 37.4125 4.98945 36.5729L6.45794 37.2923V38.1846V40.2128L3.94569 39.1246V39.123ZM5.2084 36.0724C5.50144 35.4172 5.80766 34.7702 6.1221 34.1281L6.45794 34.3092V36.6865L5.20676 36.0724H5.2084ZM7.04896 32.3172C7.1642 32.1015 7.28109 31.8859 7.39798 31.6719H12.3369H15.2903V34.4031V43.4083C15.2903 43.5565 15.422 43.675 15.585 43.675H21.4705H24.1194V44.0125C23.0724 46.2827 22.2311 48.6682 21.6187 51.1443H7.04732V32.3139L7.04896 32.3172ZM7.69431 31.1385C7.88528 30.7977 8.07954 30.4602 8.2771 30.1227H11.7771L13.3098 31.1385H8.58825H7.69596H7.69431ZM8.59484 29.5893C8.82038 29.2139 9.05086 28.8419 9.28463 28.4715L10.9704 29.5893H8.59484ZM9.57767 28.0056C9.92834 27.4623 10.2889 26.9256 10.6544 26.3955L10.763 26.4729C10.7647 26.4729 10.7663 26.4745 10.7663 26.4745L12.4834 27.701C12.4834 27.701 12.485 27.701 12.485 27.7026L14.1626 28.9011C14.1626 28.9011 14.1626 28.9011 14.1643 28.9028L14.1774 28.9127C14.1774 28.9127 14.1791 28.9143 14.1807 28.9143L15.1257 29.5893H11.9648L9.57438 28.0056H9.57767ZM10.9688 25.9395C11.4791 25.2134 12.006 24.4989 12.5476 23.796L13.9651 24.9089V25.2036C13.9651 25.2069 13.9651 25.2101 13.9651 25.2134C13.9651 25.2167 13.9651 25.22 13.9651 25.225C13.9651 25.2315 13.9683 25.2365 13.9683 25.2431C13.97 25.2513 13.9716 25.2595 13.9733 25.2678C13.9733 25.2711 13.9733 25.2744 13.9749 25.276C13.9766 25.2826 13.9799 25.2875 13.9815 25.2925C13.9848 25.3007 13.9881 25.3089 13.9914 25.3172C13.993 25.3204 13.993 25.3221 13.9947 25.3254C13.998 25.3303 14.0013 25.3353 14.0046 25.3402C14.0095 25.3468 14.0144 25.355 14.0194 25.3616C14.021 25.3633 14.0227 25.3665 14.026 25.3682C14.0276 25.3715 14.0309 25.3731 14.0326 25.3748C14.0342 25.3764 14.0358 25.3781 14.0375 25.3797C14.0441 25.3863 14.0507 25.3945 14.0589 25.3995C14.0622 25.4028 14.0638 25.4044 14.0655 25.4061L14.1544 25.4752L15.6854 26.6655V29.3111L14.5314 28.4863C14.5314 28.4863 14.5314 28.4863 14.5297 28.4863C14.5297 28.4863 14.5297 28.4863 14.5297 28.4846L12.8522 27.2861L12.8472 27.2828C12.8423 27.2795 12.839 27.2762 12.834 27.273L11.1318 26.0563C11.1318 26.0563 11.1301 26.0563 11.1301 26.0547C11.1285 26.0547 11.1268 26.053 11.1252 26.0514L11.117 26.0448C11.1153 26.0448 11.1153 26.0432 11.1137 26.0432L10.9704 25.9411L10.9688 25.9395ZM12.8917 23.3597C13.244 22.9119 13.6012 22.4691 13.9651 22.0311V23.3218V24.201L12.8917 23.3581V23.3597ZM14.5528 21.3364C17.014 18.4669 19.737 15.8295 22.6871 13.4638H27.2112V19.1337H23.3111C23.1481 19.1337 23.0164 19.2522 23.0164 19.4004V24.4035V24.9369H14.5528V21.3381V21.3364ZM23.3638 12.9304C23.9186 12.4991 24.4816 12.076 25.0512 11.6628H31.531L32.5501 13.2103L33.3453 14.4187H28.7867L27.7478 13.049L27.7462 13.0473C27.7429 13.044 27.7396 13.0407 27.7363 13.0358C27.7281 13.0259 27.7199 13.016 27.71 13.0078C27.7067 13.0045 27.7034 13.0012 27.6985 12.9996C27.6952 12.9963 27.6919 12.9946 27.6886 12.9913C27.6803 12.9864 27.6738 12.9798 27.6655 12.9749C27.6573 12.9699 27.6491 12.9666 27.6408 12.9617C27.6326 12.9584 27.6244 12.9535 27.6161 12.9502C27.6063 12.9469 27.598 12.9452 27.5882 12.9419C27.5799 12.9403 27.5717 12.937 27.5618 12.9354C27.5486 12.9321 27.5338 12.9321 27.5207 12.9321C27.5157 12.9321 27.5108 12.9304 27.5058 12.9304H27.5025H23.3638ZM25.7953 11.1294C27.5964 9.86502 29.4682 8.69779 31.4059 7.63099V11.1294H25.7953ZM31.9936 7.31326C32.5139 7.03339 33.039 6.7601 33.5675 6.49505V13.7173L33.0539 12.9387L31.992 11.3253V7.3149L31.9936 7.31326ZM34.6425 5.97317C39.6292 3.60744 44.9895 1.90353 50.61 0.970076V8.92827H40.747H34.6425V5.97317ZM55.4221 17.9549V20.9759C55.2179 21.0022 55.0138 21.0318 54.8097 21.0615L51.1993 9.15875V1.68951L55.4221 17.9549ZM54.2269 21.152C53.8104 21.2179 53.3971 21.2903 52.9856 21.3693L48.8781 9.46332H50.6808L54.2269 21.152ZM52.4094 21.4862C52.2777 21.5142 52.146 21.5406 52.0143 21.5685L51.1862 19.3164C51.1845 19.3131 51.1829 19.3098 51.1812 19.3082C51.1779 19.2983 51.173 19.2901 51.1681 19.2802C51.1648 19.2736 51.1598 19.2654 51.1549 19.2588C51.1499 19.2506 51.1434 19.244 51.1384 19.2374C51.1318 19.2308 51.1269 19.2242 51.1203 19.2176C51.1137 19.211 51.1071 19.2061 51.1006 19.1995C51.094 19.1929 51.0857 19.188 51.0792 19.1831C51.0709 19.1781 51.0627 19.1732 51.0545 19.1699C51.0462 19.1649 51.038 19.1617 51.0298 19.1584C51.0215 19.1551 51.0117 19.1518 51.0034 19.1485C50.9935 19.1452 50.9853 19.1419 50.9754 19.1402C50.9672 19.1386 50.9573 19.137 50.9491 19.137C50.9376 19.1353 50.9277 19.1337 50.9162 19.1337C50.9129 19.1337 50.9096 19.1337 50.9063 19.1337H48.9258L44.9286 9.46332H48.2607L52.4094 21.4862ZM51.4413 21.6986C51.3607 21.7167 51.2817 21.7365 51.201 21.7546V21.045L51.4413 21.6986ZM50.6116 21.9027C45.8555 23.1226 41.4401 25.192 37.5351 27.9381H23.6058V19.6687H36.9671H40.3453H42.3472H45.6233H48.7184H50.6083V21.9027H50.6116ZM36.7942 28.4715C35.9201 29.1168 35.0722 29.7967 34.254 30.5096L32.3377 28.4715H36.7942ZM33.8309 30.8833C33.2613 31.392 32.7081 31.9172 32.1682 32.4571L27.9717 28.4715H31.564L33.8293 30.8833H33.8309ZM31.3796 33.2737C31.1112 33.5585 30.8462 33.8466 30.5861 34.138L29.5884 33.2737H31.3812H31.3796ZM30.2189 34.5595C30.0527 34.7521 29.888 34.9463 29.725 35.1423H27.496L26.4983 34.3668L25.3657 33.4877L25.0874 33.2704L25.0496 33.2408L24.8619 33.0959L24.7845 33.0366H28.4574L29.4337 33.8828L30.2173 34.5611L30.2189 34.5595ZM29.2888 35.6757C29.1472 35.8518 29.0073 36.0296 28.8673 36.2091L28.6072 36.0066L28.1825 35.6757H29.2888ZM28.5298 36.6486C28.2664 36.9993 28.008 37.3532 27.7577 37.7121V36.0477L28.5084 36.6305L28.5315 36.6486H28.5298ZM27.3313 38.3278C27.2194 38.4941 27.1058 38.662 26.9955 38.83L26.9774 38.8168L26.2563 38.3278H27.3313ZM26.6959 39.2942C26.4357 39.7041 26.1839 40.1174 25.9386 40.5372L22.6789 38.5056V36.563L23.8478 37.3582L25.1961 38.2752L26.495 39.1576L26.6959 39.2926V39.2942ZM25.6636 41.0129C25.2636 41.7176 24.8849 42.437 24.526 43.1663L24.5211 43.1647C24.5112 43.1614 24.503 43.1597 24.4931 43.1564C24.4832 43.1548 24.475 43.1515 24.4651 43.1498C24.4536 43.1482 24.4437 43.1465 24.4322 43.1465C24.4256 43.1465 24.419 43.1449 24.4141 43.1449H22.6773V39.1526L25.662 41.0113L25.6636 41.0129ZM21.4919 51.6826C21.3438 52.3214 21.2104 52.9651 21.0935 53.6153H16.316L15.7085 53.4589L14.0556 53.0309L11.7096 52.4234L9.2978 51.7978L8.8566 51.6826H21.4919ZM20.9997 54.1487C20.9635 54.3661 20.9272 54.5834 20.8943 54.8007L20.4218 54.6789L18.3755 54.1487H20.998H20.9997ZM30.0428 16.0798L30.3523 16.4897L31.0717 17.4413H35.3307L34.6244 16.3695L33.6959 14.9587H29.19L30.0411 16.0831L30.0428 16.0798ZM35.1331 16.0946L35.5562 16.7383V11.8192L34.6541 10.2832L34.6195 10.2239L34.1585 9.43863V14.6113L35.1315 16.0913C35.1315 16.0913 35.1315 16.093 35.1331 16.093V16.0946ZM31.0981 18.4159L30.675 17.8578L30.6733 17.8561L29.5966 16.4337L28.5875 15.1002L27.7989 14.0598V19.1353H31.643L31.103 18.4225L31.0964 18.4142L31.0981 18.4159ZM41.1997 9.46497L45.8192 19.1353H48.2969L44.2997 9.46497H41.1981H41.1997ZM31.5903 18.1212L32.2291 18.9641L32.3575 19.1337H36.4485L35.6846 17.9714H31.4784L31.5903 18.1195V18.1212ZM34.8401 9.46497L35.1743 10.0329L36.111 11.6266L37.0379 13.2037L37.9203 14.7068L38.7583 16.1341L39.5534 17.4857L40.3041 18.7632L40.5231 19.1337H41.8747L36.595 9.46332H34.8401V9.46497ZM36.1456 17.6322L37.0313 18.9773C37.0313 18.9773 37.0313 18.9773 37.0313 18.9789L37.135 19.1353H37.3672V14.8994L36.1456 12.8201V17.6322ZM43.6247 19.1353H45.1788L40.5593 9.46497H37.2536L42.5332 19.1353H43.6247ZM37.9565 19.1353H39.8564L37.9565 15.9003V19.1353ZM25.9912 34.6747L24.7434 33.7034L23.8 32.9708L22.7991 32.1921L22.3727 31.8612V34.0853L23.6519 34.999C23.6601 35.004 23.6683 35.0106 23.6766 35.0155L25.0413 35.9901C25.0413 35.9901 25.0413 35.9901 25.043 35.9901L26.3403 36.917C26.36 36.9268 26.3781 36.94 26.3929 36.9548L27.17 37.5096V35.5884L25.9929 34.6731L25.9912 34.6747ZM22.0912 36.163L21.0211 35.4353L19.5312 34.4228L18.7689 33.9042L17.2181 32.849L16.4296 32.3139L15.8813 31.9419V34.2697L22.0928 38.1402V36.1646L22.0912 36.163ZM23.9317 36.7474L25.4727 37.7944H26.6135L26.0011 37.3565C26.0011 37.3565 25.9995 37.3565 25.9995 37.3549C25.9995 37.3549 25.9978 37.3549 25.9962 37.3532L24.6759 36.4099L23.3078 35.4336L21.971 34.4788H20.593L20.9322 34.7093L22.5653 35.8205L23.9334 36.7507L23.9317 36.7474ZM15.8813 43.1465H20.3494L15.8813 40.8681V43.1465ZM19.9395 29.9696L18.55 28.8896L17.8536 28.348L17.3844 27.9825L16.2814 27.1248V29.7342L17.7367 30.773C17.7499 30.7812 17.7614 30.7894 17.7729 30.7993L19.3007 31.8908C19.3007 31.8908 19.3023 31.8908 19.304 31.8925L20.7857 32.951C20.7906 32.9543 20.7939 32.9576 20.7988 32.9609L20.8038 32.9642L21.785 33.6655V31.4035L21.2894 31.0183L21.2795 31.01L19.9411 29.9696H19.9395ZM26.1131 31.0002L24.9985 30.0338H20.9272L22.0912 30.9393L22.5159 31.2702L23.6815 32.1773L24.0997 32.5032H27.8433L27.2655 32.0028L26.1114 31.0018L26.1131 31.0002ZM22.0928 43.1465V38.7872L15.8813 34.9167V40.2556L21.5512 43.1465H22.0928ZM23.0197 27.5676V25.4736H15.0582L15.9999 26.2045L17.4931 27.3651L18.9352 28.4846L19.3139 28.7793L20.2424 29.502H24.3845L23.6683 28.8814L23.6552 28.8715L23.1135 28.4023L23.1119 28.4007C23.1036 28.3924 23.0954 28.3842 23.0872 28.3743C23.0822 28.3694 23.0773 28.3645 23.074 28.3595C23.0674 28.3513 23.0641 28.343 23.0592 28.3348C23.0559 28.3282 23.0493 28.3216 23.046 28.3151C23.0427 28.3085 23.0411 28.3002 23.0378 28.2937C23.0345 28.2838 23.0312 28.2756 23.0279 28.2657C23.0263 28.2591 23.0263 28.2525 23.0246 28.2476C23.023 28.236 23.0213 28.2262 23.0213 28.213C23.0213 28.213 23.0213 28.2113 23.0213 28.2097V27.5693L23.0197 27.5676ZM14.3091 31.1418H15.5867C15.5899 31.1418 15.5916 31.1418 15.5932 31.1418C15.6048 31.1418 15.6146 31.1434 15.6245 31.145C15.6344 31.1467 15.6426 31.1467 15.6509 31.1483C15.6607 31.15 15.669 31.1533 15.6788 31.1549C15.6887 31.1582 15.697 31.1615 15.7068 31.1648C15.7151 31.1681 15.7217 31.1714 15.7282 31.1763C15.7381 31.1813 15.748 31.1862 15.7562 31.1928C15.7579 31.1944 15.7595 31.1944 15.7628 31.1961L17.5293 32.3962L17.5704 32.4242L18.359 32.9593L19.1213 33.4778L19.2513 33.5651L19.8061 33.9421H21.2219L20.4383 33.3824H20.4366L18.9402 32.3123C18.9402 32.3123 18.9385 32.3106 18.9369 32.3106L17.391 31.2076C17.391 31.2076 17.391 31.2076 17.3894 31.206C17.3894 31.206 17.3894 31.206 17.3877 31.206L15.8764 30.126H12.7748L14.3075 31.1418H14.3091ZM24.047 28.4731L25.2949 29.5547L25.3179 29.5745L26.3436 30.4635L28.9727 32.742H31.6545L27.1618 28.4731H24.047ZM96.6882 21.8715H95.7251C95.5621 21.8715 95.4304 21.7529 95.4304 21.6048V14.068H93.3347H91.769H89.6436H89.1777V25.3386H103.16V23.1803V21.8715H96.6914H96.6882ZM67.3923 2.05828L66.877 4.71869V6.43743L67.3923 3.97127V2.05828ZM69.3448 14.7002L69.6527 13.6334L69.707 13.4457L70.1499 11.913L70.2322 11.6282L70.5664 10.4659H67.9257L66.9462 14.7002H69.3465H69.3448ZM68.0772 19.0925L68.171 18.7698L68.2303 18.5624L68.6237 17.196L68.7044 16.9177L68.9497 16.0666L69.1884 15.2369H66.8194L65.9255 19.0958H68.0755L68.0772 19.0925ZM67.3923 6.84077L66.877 9.30692V12.3987L67.3923 10.1729V6.84077ZM88.5851 14.7907L84.7591 20.7487V22.1744L88.5851 16.5276V14.7907ZM84.7591 13.7437L86.6309 10.4676H84.7591V13.7437ZM102.809 31.415H102.807L102.106 31.9419H104.536L108.225 29.3539H105.55L104.195 30.3729L102.812 31.4134L102.809 31.415ZM66.2893 7.7627L65.8629 9.96873V11.3039L66.2893 9.26083V7.76434V7.7627ZM66.2893 12.127L65.8629 14.1701V16.7844L66.2893 14.9405V12.1254V12.127ZM103.891 35.2377H100.802L98.1402 37.1046H100.993L103.892 35.2377H103.891ZM105.03 36.3901L106.347 35.59L106.926 35.2377H104.905L102.006 37.1046H103.85L105.028 36.3901H105.03ZM108.454 35.567V34.9529L108.061 35.1933L106.676 36.0345L105.358 36.8346L104.844 37.1458H108.454V35.5686V35.567ZM97.9113 34.4031L98.5979 33.8861L99.8211 32.9658C99.8227 32.9658 99.8243 32.9642 99.8243 32.9642C99.8243 32.9642 99.8243 32.9642 99.826 32.9626L99.8276 32.9609L100.993 32.0851V29.777L97.9081 32.2958V34.4047L97.9113 34.4031ZM112.428 33.7264L110.588 34.8064V37.1458H112.428V33.7281V33.7264ZM94.7159 36.8034L95.246 36.4066L95.2477 36.405L95.2493 36.4033C95.2509 36.4033 95.2526 36.4017 95.2526 36.4017L96.3095 35.6065C96.3095 35.6065 96.3095 35.6065 96.3111 35.6049L97.3236 34.8443V32.7732L94.7175 34.9002V36.8017L94.7159 36.8034ZM99.8392 35.2377H97.722L96.6865 36.0164C96.6865 36.0164 96.6865 36.0164 96.6849 36.0164L95.6213 36.8149C95.6213 36.8149 95.6197 36.8149 95.6197 36.8165L95.6181 36.8182C95.6181 36.8198 95.6164 36.8198 95.6148 36.8215L95.2378 37.1046H97.1771L99.8392 35.2377ZM97.3236 31.201L96.7013 31.7328L95.8535 32.4555L94.7175 33.4235V34.1808L97.3236 32.0538V31.1994V31.201ZM100.997 28.0665L100.218 28.7299L99.8112 29.0773L97.9113 30.6989V31.5747L100.997 29.0559V28.0665ZM112.428 32.5378L111.806 32.9165L111.027 33.3889L110.589 33.6556V34.1693L112.43 33.0893V32.5378H112.428ZM109.044 37.1425H110V35.1488L109.044 35.7102V37.1425ZM110.13 33.2902L111.475 32.4736H109.192L105.735 34.701H107.807L109.182 33.8664L109.491 33.6787L110.129 33.2918L110.13 33.2902ZM110 34.0112L109.819 34.1199L109.044 34.5924V35.0748L110 34.5134V34.0129V34.0112ZM103.738 25.6596C103.736 25.6695 103.731 25.6777 103.728 25.6859C103.724 25.6942 103.723 25.7024 103.719 25.709C103.716 25.7172 103.711 25.7238 103.706 25.7304C103.701 25.7386 103.696 25.7468 103.691 25.7534C103.687 25.76 103.682 25.7649 103.675 25.7699C103.668 25.7781 103.662 25.7864 103.654 25.7929C103.652 25.7946 103.652 25.7946 103.65 25.7962L103.415 25.9971L102.819 26.5058L101.584 27.5594V28.5702L105.148 25.6612V22.0196L103.744 23.2873V25.602C103.744 25.6036 103.744 25.6053 103.744 25.6053C103.744 25.6069 103.744 25.6086 103.744 25.6086C103.744 25.6184 103.743 25.6267 103.741 25.6349C103.739 25.6415 103.739 25.6497 103.738 25.6563V25.6596ZM71.2611 10.1663L70.8018 11.7615L70.7787 11.8406L70.1992 13.8507L69.8404 15.0937L69.7811 15.2994V16.3761L71.8093 9.7613V8.2714L71.3451 9.88312L71.2627 10.1679L71.2611 10.1663ZM100.226 33.3527C100.211 33.3675 100.195 33.3791 100.177 33.3906L98.9765 34.2928L98.4349 34.6994H100.603L103.779 32.472H101.4L100.229 33.3511L100.226 33.3527ZM101.586 31.6373L102.411 31.0183C102.424 31.0051 102.439 30.9952 102.455 30.9854L103.818 29.9614L105.152 28.9604V26.3823L101.588 29.293V31.6389L101.586 31.6373ZM101.563 34.701H104.719L108.176 32.4736H104.737L101.561 34.701H101.563ZM43.0354 117.332L43.2856 116.708H43.0354V117.332ZM33.7766 108.705H30.5696L30.2025 109.224L29.5785 110.105L29.218 110.613H32.5633L33.7782 108.705H33.7766ZM32.2455 108.172H36.0452V100.102H31.6825L31.3713 100.48L31.1145 100.793L29.7679 102.438L29.6938 102.528L28.8986 103.498L28.5068 103.976L28.4953 103.989L27.4746 105.233L27.2589 105.498L26.1954 106.797C26.1921 106.801 26.1888 106.804 26.1855 106.807C26.1756 106.819 26.1658 106.829 26.1542 106.837C26.1476 106.842 26.1411 106.847 26.1361 106.85C26.1262 106.858 26.1147 106.865 26.1016 106.87C26.095 106.873 26.0884 106.876 26.0818 106.88C26.0686 106.886 26.0538 106.89 26.039 106.893C26.0324 106.894 26.0275 106.896 26.0225 106.898C26.0011 106.903 25.9814 106.904 25.9583 106.904H23.1629V108.172H30.3984H32.2406H32.2455ZM16.2007 89.0749L15.6311 89.4453L14.7108 90.0462L14.2235 90.3623H25.8892V81.092H21.4014V85.5486C21.4014 85.5551 21.3997 85.5617 21.3997 85.5667C21.3981 85.5765 21.3981 85.5864 21.3964 85.5963C21.3948 85.6045 21.3915 85.6128 21.3899 85.621C21.3866 85.6292 21.3849 85.6375 21.3816 85.6457C21.3783 85.6539 21.3734 85.6622 21.3684 85.6687C21.3635 85.677 21.3602 85.6852 21.3553 85.6918C21.3503 85.6984 21.3438 85.7066 21.3372 85.7132C21.3306 85.7198 21.3256 85.7264 21.3191 85.7313C21.3108 85.7379 21.3026 85.7461 21.2927 85.7527C21.2878 85.756 21.2845 85.7609 21.2795 85.7642L19.2925 87.0599L16.2024 89.0749H16.2007ZM16.525 91.5641L17.4552 90.8974H13.4053L13.3065 90.9616L12.3813 91.5641H16.5234H16.525ZM16.1151 69.1383H16.1118L13.0118 69.9795V90.4957L13.1386 90.4134L14.3668 89.6133L15.287 89.014L15.8566 88.6436L18.8249 86.7092V68.404L16.1168 69.1399L16.1151 69.1383ZM25.0347 92.7379H18.3458L16.1826 94.3661H23.1942L25.0347 92.7379ZM27.9685 102.334L26.2563 104.328V105.831L27.9685 103.742V102.336V102.334ZM26.8111 93.4508C26.8144 93.4475 26.8193 93.4426 26.8226 93.4393L27.0284 93.245C27.0284 93.245 27.0284 93.245 27.0301 93.245L27.57 92.7379H25.8777L24.0371 94.3661H25.8381L26.8111 93.4524V93.4508ZM27.9685 93.1314L27.4597 93.6088C27.4532 93.6138 27.4482 93.6203 27.4416 93.6253L27.2375 93.8163V93.8179L26.2563 94.7382V96.3417L27.9685 94.6378V93.1298V93.1314ZM15.5504 92.2605L15.7743 92.1008L15.7809 92.0975H11.5648L10.2345 92.9635H14.5709L15.5521 92.2605H15.5504ZM15.2607 94.3645L17.4239 92.7363H15.8352L14.8541 93.4393L13.5634 94.3645H15.259H15.2607ZM9.92175 92.5091L12.4241 90.8793V70.1392L9.92175 70.8175V92.5075V92.5091ZM27.9701 95.4313L26.2579 97.1335V103.457L27.9701 101.463V95.4313ZM29.8337 88.4938H29.1274L28.1216 89.3482L27.3527 90.0018H28.1281L29.8337 88.4938ZM17.7054 91.3979L17.4815 91.5575L16.6139 92.1798L16.5827 92.2029H18.1351L19.8736 90.8957H18.4068L17.7054 91.3979ZM30.9038 98.0505L32.4908 96.2018V90.932L30.9038 92.5124V98.0505ZM27.5272 90.5352H26.7271L26.388 90.8233C26.3814 90.8282 26.3748 90.8315 26.3699 90.8365C26.3633 90.8414 26.3551 90.848 26.3485 90.8529C26.3403 90.8579 26.3304 90.8628 26.3205 90.8661C26.3139 90.8694 26.3057 90.8727 26.2991 90.876C26.2876 90.8809 26.2777 90.8826 26.2662 90.8858C26.2596 90.8875 26.253 90.8891 26.2448 90.8908C26.2267 90.8941 26.2069 90.8957 26.1888 90.8957H20.7972L19.0587 92.2029H25.6422L27.5289 90.5352H27.5272ZM39.5798 104.035V103.589L39.5715 103.602L39.5238 103.681L39.1122 104.367H39.5781V104.035H39.5798ZM39.5798 105.956V104.902H38.7945L38.4949 105.403L38.0882 106.083L38.0158 106.205L37.6108 106.881L37.4379 107.168H39.1534L39.5814 106.392V105.953L39.5798 105.956ZM39.5798 101.956L36.6362 106.707V107.387L37.0906 106.629L37.1383 106.55L37.4956 105.953L37.568 105.831L37.7096 105.594L38.3483 104.529L38.3599 104.511L38.7188 103.91L39.0069 103.427L39.5798 102.471V101.956ZM28.2253 92.1255C28.2253 92.1255 28.2269 92.1255 28.2269 92.1239L29.2476 91.1657L29.2493 91.1641L29.2509 91.1624L29.4172 91.006L29.9144 90.5385H28.3669L26.4802 92.2062H28.138L28.222 92.1272L28.2253 92.1255ZM31.9953 112.573H36.1604L36.9506 111.145H32.904L31.9953 112.573ZM39.5798 111.84V111.145H37.6092L36.8189 112.573H39.5798V111.84ZM34.4598 108.705L33.2448 110.613H37.247L38.8571 107.706H37.1169L37.0379 107.836L36.6 108.567C36.5983 108.57 36.5967 108.572 36.5934 108.574C36.5819 108.59 36.5687 108.607 36.5555 108.621C36.5539 108.623 36.5522 108.625 36.5522 108.626C36.5522 108.626 36.5506 108.626 36.5506 108.628C36.5341 108.643 36.516 108.656 36.4946 108.668C36.493 108.668 36.4913 108.671 36.488 108.671C36.4847 108.672 36.4814 108.672 36.4782 108.674C36.4617 108.682 36.4452 108.687 36.4288 108.692C36.4255 108.694 36.4222 108.695 36.4172 108.695C36.4156 108.695 36.414 108.695 36.4107 108.695C36.3876 108.7 36.3646 108.704 36.3399 108.704H34.4565L34.4598 108.705ZM39.5798 99.3346V97.4184L36.6362 101.712V105.619L39.5798 100.867V99.3346ZM39.5798 110.273V107.706H39.5139L37.9039 110.613H39.5798V110.273ZM31.3006 99.6771L31.5903 99.3231L31.6084 99.3017L31.7072 99.1799L32.4892 98.225V97.0743L30.9022 98.9231V100.164L31.0092 100.034L31.3006 99.6787V99.6771ZM33.0786 97.5056L33.579 96.8948L33.6564 96.801L34.2968 96.0207L34.4911 95.7836V94.7448L33.0786 96.3911V97.5089V97.5056ZM29.3941 102.005L30.3144 100.882V99.6079L28.5595 101.651V103.024L29.297 102.123L29.3941 102.005ZM30.3144 93.1018L28.5595 94.8485V100.783L30.3144 98.7403V93.1034V93.1018ZM30.3144 90.9336L29.8469 91.3732C29.8419 91.3781 29.8386 91.3814 29.8337 91.3863L29.6822 91.5279C29.6757 91.5361 29.6674 91.5427 29.6592 91.5493L28.6615 92.4861C28.6533 92.4959 28.6451 92.5042 28.6352 92.5108L28.5595 92.5815V94.055L30.3144 92.3083V90.932V90.9336ZM116.992 68.5143L118.393 68.8304V68.0353L116.857 67.7192H116.855L116.84 67.7159L115.495 67.4393V68.1752L116.51 68.404L116.995 68.5143H116.992ZM115.011 70.3565L109.421 68.9292H101.948L106.594 70.3565H115.011ZM101.318 78.8942L102.849 79.6976L104.355 80.4878L106.472 81.5991C106.475 81.6007 106.477 81.6024 106.48 81.604C106.49 81.609 106.497 81.6156 106.505 81.6205C106.512 81.6254 106.52 81.6304 106.526 81.637C106.533 81.6435 106.54 81.6501 106.546 81.6551C106.553 81.6616 106.559 81.6682 106.564 81.6748C106.569 81.6814 106.574 81.6896 106.579 81.6962C106.584 81.7028 106.589 81.711 106.592 81.7193C106.596 81.7275 106.599 81.7357 106.602 81.744C106.605 81.7522 106.609 81.7604 106.61 81.7687C106.612 81.7769 106.614 81.7851 106.615 81.7917C106.617 81.8016 106.619 81.8115 106.619 81.8213C106.619 81.8246 106.619 81.8263 106.619 81.8296V84.1294L111.549 86.9479V83.5878L102.2 78.8959H101.318V78.8942ZM98.5929 91.9L98.9535 92.2062H100.264L100.196 92.1519L99.8869 91.9H98.5946H98.5929ZM115.043 83.1631L105.886 78.8942H103.417L111.921 83.1631H115.044H115.043ZM106.619 86.0853V87.7562L111.549 90.9188V87.5801L106.619 84.7616V86.0869V86.0853ZM81.6723 105.833V108.241C81.6723 108.388 81.5406 108.508 81.3776 108.508H81.0286L82.2304 110.976H84.4381L81.6706 105.833H81.6723ZM78.3566 108.508L81.7464 116.249V115.896L78.4159 108.508H78.3566ZM79.7725 108.508H79.0514L81.7447 114.486V111.298L80.3849 108.508H79.7708H79.7725ZM76.4338 108.775L76.3235 108.508H67.6919C67.6738 108.508 67.6541 108.506 67.636 108.503C67.631 108.501 67.6244 108.5 67.6195 108.5C67.608 108.496 67.5965 108.493 67.5849 108.49C67.5783 108.486 67.5718 108.485 67.5668 108.481C67.5619 108.478 67.5553 108.478 67.5504 108.475C67.5454 108.472 67.5421 108.47 67.5372 108.467C67.5306 108.463 67.5257 108.46 67.5191 108.457C67.5092 108.45 67.501 108.444 67.4927 108.437C67.4878 108.434 67.4829 108.429 67.4796 108.425C67.4697 108.417 67.4631 108.409 67.4565 108.399C67.4532 108.396 67.4499 108.391 67.4466 108.388C67.4384 108.376 67.4302 108.363 67.4252 108.35C67.4236 108.348 67.4219 108.346 67.4219 108.343C67.4154 108.328 67.4088 108.314 67.4055 108.299V108.294L67.2376 107.617L67.0532 106.866L66.7667 105.706H66.6581L66.8227 106.414C66.8243 106.422 66.826 106.429 66.8276 106.437L67.0729 107.49L67.0762 107.504L67.3363 108.623C67.3363 108.625 67.3363 108.625 67.3363 108.626L67.6063 109.78C67.6063 109.784 67.608 109.787 67.608 109.79L67.9306 111.173H77.4232L76.9128 109.932L76.4354 108.771L76.4338 108.775ZM67.0301 109.899V109.897V109.896L66.7601 108.737C66.7601 108.737 66.7601 108.735 66.7601 108.733L66.5856 107.979V115.422L66.8276 116.669L67.0746 117.938L67.3396 119.296L67.3989 119.602V111.473L67.0318 109.902L67.0301 109.899ZM100.091 93.1775L101.087 94.027L101.158 94.0879H102.579L102.314 93.8722L101.525 93.2318L100.919 92.7396H99.5774L100.088 93.1759L100.091 93.1775ZM102.129 94.916L102.574 95.2946L102.98 95.642L103.216 95.8429C103.217 95.8429 103.217 95.8445 103.219 95.8461C103.227 95.8527 103.234 95.861 103.242 95.8692C103.247 95.8758 103.252 95.8807 103.257 95.8857C103.263 95.8939 103.267 95.9021 103.272 95.9103C103.277 95.9169 103.282 95.9252 103.285 95.9318C103.288 95.9383 103.291 95.9482 103.293 95.9548C103.296 95.963 103.3 95.9713 103.301 95.9811C103.303 95.9877 103.303 95.996 103.305 96.0025C103.306 96.0124 103.308 96.0223 103.308 96.0338C103.308 96.0355 103.308 96.0371 103.308 96.0371V96.4108H105.435L104.974 96.0355L104.039 95.2749L103.237 94.6229H101.787L102.131 94.916H102.129ZM95.2015 97.3031L96.1087 98.2629L96.5367 98.7156V96.1408L95.6707 95.293L95.6691 95.2913C95.6691 95.2913 95.6691 95.2897 95.6674 95.2897L94.7603 94.404C94.7603 94.404 94.7603 94.4024 94.7587 94.4024L94.4014 94.0533V96.4569L95.1999 97.3015L95.2015 97.3031ZM90.0635 96.824V99.1717H96.1926L95.6642 98.6119C95.6642 98.6119 95.6642 98.6119 95.6625 98.6119L94.7554 97.6521L93.9751 96.8257H90.0651L90.0635 96.824ZM108.453 67.1314H104.539L109.503 68.3991H114.045L113.451 68.2641L112.303 68.004L111.818 67.8937L110.227 67.5331L108.681 67.1825L108.451 67.1298L108.453 67.1314ZM111.961 67.3767L112.446 67.487L113.594 67.7472L114.906 68.0451V67.3224L113.459 67.0244H113.457H113.456C113.456 67.0244 113.454 67.0244 113.452 67.0244L111.823 66.6902L111.816 66.6886C111.816 66.6886 111.816 66.6886 111.814 66.6886H111.811C111.811 66.6886 111.811 66.6886 111.809 66.6886L110.234 66.3643H110.232H110.231L110.222 66.3626L109.049 66.1223V66.7215L110.372 67.0211L111.962 67.3817L111.961 67.3767ZM93.0515 95.8494L92.258 95.0098L91.5188 94.2278C91.5073 94.218 91.4974 94.2064 91.4875 94.1949L90.7845 93.4508L90.103 92.7314C90.103 92.7314 90.103 92.7297 90.1013 92.7297L89.5482 92.1436H87.9463L88.1653 92.3906L88.8007 93.11L89.4724 93.8706L90.0025 94.4715C90.0042 94.4748 90.0058 94.4781 90.0091 94.4797C90.0157 94.4879 90.0223 94.4962 90.0272 94.5044C90.0322 94.511 90.0371 94.5176 90.0404 94.5258C90.0453 94.534 90.0486 94.5423 90.0519 94.5505C90.0552 94.5587 90.0585 94.567 90.0602 94.5752C90.0618 94.5834 90.0634 94.5917 90.0651 94.5999C90.0667 94.6098 90.0684 94.618 90.0684 94.6279C90.0684 94.6312 90.07 94.6345 90.07 94.6378V96.2923H93.4746L93.0581 95.8527C93.0581 95.8527 93.0581 95.8527 93.0581 95.8511L93.0515 95.8494ZM87.0458 104.262V102.907H86.5305V103.47L87.0458 104.262ZM86.8532 110.977L82.1645 102.907H81.6739V104.618L85.0966 110.977H86.8532ZM90.7994 110.977L87.2236 105.485C87.217 105.484 87.2137 105.48 87.2071 105.477C87.2005 105.474 87.194 105.47 87.189 105.467C87.1726 105.457 87.1561 105.447 87.1413 105.436C87.138 105.434 87.1347 105.433 87.133 105.429C87.1166 105.414 87.1018 105.398 87.0886 105.38C87.087 105.378 87.0853 105.377 87.0853 105.375L85.4802 102.905H82.828L87.515 110.976H90.7961L90.7994 110.977ZM92.2596 91.9592L92.2003 91.9033H91.094C91.0726 91.9033 91.0529 91.9016 91.0348 91.8983C91.0331 91.8983 91.0315 91.8967 91.0315 91.8967C91.0134 91.8934 90.9953 91.8885 90.9788 91.8802H90.9771L90.9755 91.8786C90.9706 91.8769 90.9673 91.8736 90.964 91.872C90.9508 91.8654 90.9393 91.8605 90.9277 91.8539C90.9212 91.8506 90.9162 91.8456 90.9113 91.8407C90.9014 91.8341 90.8915 91.8259 90.8817 91.8177C90.88 91.816 90.8784 91.8144 90.8767 91.8127L90.4783 91.411L90.1063 91.0357L89.9729 90.9007V91.7716L90.5491 92.3807L90.5508 92.3823L91.2323 93.1018L91.9485 93.8591C91.9485 93.8591 91.9485 93.8591 91.9485 93.8607C91.9485 93.8607 91.9485 93.8607 91.9501 93.8624L92.7058 94.6608L93.4993 95.4988C93.4993 95.4988 93.4993 95.4988 93.4993 95.5004L93.8137 95.833V93.4771L93.0597 92.7412L93.0581 92.7396C93.0581 92.7396 93.0581 92.7396 93.0581 92.7379C93.0581 92.7379 93.0564 92.7379 93.0548 92.7363L92.2794 91.979C92.2711 91.9724 92.2629 91.9642 92.2563 91.9576L92.2596 91.9592ZM98.6374 92.6704L98.0266 92.1502L97.7352 91.9033H93.0021L93.4746 92.3642C93.4828 92.3708 93.4911 92.3791 93.4993 92.3873L94.2352 93.1067H99.1477L98.6357 92.6704H98.6374ZM93.2112 110.977L89.4165 105.508H87.9233L91.4842 110.977H93.2112ZM92.9297 107.359L93.901 108.702L94.3767 109.359V105.508H91.5929L92.6086 106.914L92.9297 107.359ZM101.688 95.2716L100.845 94.5522C100.845 94.5522 100.845 94.5522 100.843 94.5522L100.045 93.8722L99.775 93.6418H94.7834L95.1834 94.0336C95.1884 94.0385 95.1933 94.0434 95.1983 94.0484L96.0872 94.9176C96.0988 94.9275 96.1087 94.9374 96.1185 94.9489L96.9631 95.7754H102.272L101.686 95.2765L101.688 95.2716Z" fill="white"/>
<path fill-rule="evenodd" clip-rule="evenodd" d="M64.1741 32.0475C67.363 32.4327 70.3922 33.3349 73.1727 34.67V36.5089H72.1883V34.7244C72.1883 34.6536 72.1257 34.5976 72.0467 34.5976H66.1414C66.1381 34.5976 66.1365 34.5976 66.1332 34.5976C66.1282 34.5976 66.1217 34.5976 66.1167 34.5992C66.1134 34.5992 66.1085 34.6009 66.1052 34.6025C66.1003 34.6042 66.0953 34.6058 66.0904 34.6058C66.0871 34.6075 66.0822 34.6091 66.0789 34.6108C66.0739 34.6124 66.069 34.6141 66.0657 34.6174C66.0624 34.619 66.0591 34.6223 66.0558 34.6239C66.0525 34.6272 66.0476 34.6305 66.0443 34.6322C66.041 34.6355 66.0393 34.6388 66.0361 34.6404C66.0328 34.6437 66.0295 34.647 66.0262 34.6503C66.0229 34.6536 66.0212 34.6569 66.0196 34.6602C66.0179 34.6634 66.0147 34.6667 66.013 34.6717C66.0114 34.675 66.0097 34.6799 66.0081 34.6849C66.0081 34.6881 66.0048 34.6898 66.0048 34.6931L65.5636 36.2225L65.4813 36.5106H64.1725V32.0491L64.1741 32.0475ZM75.5796 35.9673C75.6619 36.0167 75.7459 36.0661 75.8282 36.1171L74.442 38.2293H74.1589C74.1572 38.2293 74.1556 38.2293 74.1539 38.2293C74.1523 38.2293 74.1506 38.2293 74.149 38.2293L75.5796 35.9673ZM76.0587 36.262C76.2365 36.374 76.4143 36.4875 76.5905 36.6028L75.4595 38.2277H74.768L76.0587 36.2604V36.262ZM76.8176 36.7542C76.9214 36.8234 77.0218 36.8942 77.1239 36.965L76.2069 38.2293H75.7904L76.816 36.7542H76.8176ZM77.3494 37.1197C77.5453 37.258 77.7379 37.3979 77.9289 37.5395L77.3971 38.2277H76.5444L77.3478 37.1181L77.3494 37.1197ZM78.1462 37.7042C78.324 37.8408 78.5018 37.9774 78.678 38.1174L77.5684 39.4739V38.4532L78.1462 37.7042ZM78.8903 38.2869C79.3316 38.6442 79.7629 39.0163 80.1827 39.3982L77.8235 41.9582H77.57V39.902L78.892 38.2869H78.8903ZM80.3802 39.5809C80.5136 39.7044 80.6469 39.8295 80.777 39.9563L78.8377 41.9582H78.189L80.3802 39.5809ZM80.968 40.144C81.0898 40.2625 81.2083 40.3827 81.3285 40.5045L79.8534 41.9598H79.2114L80.968 40.1456V40.144ZM81.7286 40.9194C81.7961 40.9902 81.8635 41.061 81.9294 41.1334V41.9253L81.2594 42.5311V42.085C81.2594 42.0142 81.1968 41.9582 81.1178 41.9582H80.861V41.7573L81.4849 41.1532L81.7286 40.9177V40.9194ZM82.2109 41.4429C82.2488 41.4857 82.2866 41.5269 82.3245 41.5697L82.2109 41.6734V41.4429ZM82.5023 41.7705C82.8052 42.1179 83.1016 42.4735 83.388 42.8357L82.2109 43.7955V42.0323L82.5023 41.7689V41.7705ZM83.5526 43.0447C83.7535 43.3032 83.9494 43.565 84.142 43.83V43.937L83.4292 44.4721L82.6933 45.0252L82.2126 45.3874V44.1379L83.5543 43.0431L83.5526 43.0447ZM84.3544 44.1247C84.5108 44.347 84.6623 44.5709 84.8121 44.7964L83.7617 45.5339H82.4595L82.8711 45.2244L83.6086 44.6713L84.333 44.1264H84.3544V44.1247ZM84.9586 45.017C85.0705 45.1882 85.1792 45.3594 85.2878 45.5339H84.2227L84.9586 45.017ZM85.4442 45.7875C85.4673 45.8253 85.4903 45.8632 85.5134 45.9027L83.7716 47.0238H82.0973L83.8589 45.7875H85.4442ZM85.6484 46.1283C85.7537 46.3077 85.8575 46.4872 85.9595 46.6682L85.3734 47.0238H84.2573L85.6484 46.1283ZM86.0863 46.8987C86.1242 46.9679 86.162 47.0387 86.1999 47.1078L85.6895 47.4074V47.1391L86.0863 46.8987ZM86.3234 47.3399C86.4435 47.5671 86.5588 47.7976 86.674 48.0281V49.0916L85.8509 49.5098H85.6895V47.712L86.3234 47.3399ZM86.9539 48.6158C86.9951 48.7047 87.0379 48.7953 87.0774 48.8842L86.9539 48.9467V48.6142V48.6158ZM87.2585 49.2941L87.3013 49.3929L87.0609 49.5098H86.4238L86.8485 49.2941H87.2568H87.2585ZM87.4593 49.7649C88.3006 51.803 88.9163 53.9597 89.2768 56.2003H79.292C79.0204 55.1022 78.6549 54.0404 78.2038 53.0246V49.7649H81.3236H85.8887H87.0988H87.4593ZM89.3279 56.5394C89.4151 57.1338 89.4875 57.733 89.5386 58.3388H88.5376V57.8565V56.7304L89.3295 56.5411L89.3279 56.5394ZM88.2545 58.3388H86.6395L88.2545 58.0162V58.3388ZM85.329 58.3388H83.0752L88.2545 57.1617V57.7561L85.329 58.3388ZM81.9195 58.3388H81.8125L87.1317 57.0646L87.698 56.9296L87.8643 56.8901L88.2528 56.7963V56.8983L81.9195 58.3388ZM80.7095 58.3388H79.6888C79.6855 58.3109 79.6806 58.2812 79.6773 58.2532H81.0667L80.7095 58.3388ZM79.6427 57.9981C79.6131 57.7956 79.5801 57.5947 79.5423 57.3922H84.6606L83.8704 57.5815L82.1303 57.9981H79.6411H79.6427ZM79.4962 57.137C79.4517 56.9082 79.4023 56.681 79.3497 56.4555H88.5755L88.3582 56.5082L87.0593 56.8193L85.7258 57.1387H79.4962V57.137ZM77.9174 52.4237C77.6128 51.7981 77.277 51.1939 76.9082 50.6095L77.0152 50.5337L77.3395 50.3049L77.682 50.0629L77.9157 49.8983V52.4237H77.9174ZM76.7666 50.3872C76.6827 50.2588 76.5987 50.1304 76.5114 50.0053L76.8555 49.7468H77.677L77.17 50.1041L77.0514 50.188L76.7683 50.3872H76.7666ZM76.36 49.7863C76.2299 49.6019 76.0982 49.4209 75.9632 49.2414L76.6645 48.6685V49.5591L76.3616 49.7863H76.36ZM75.8002 49.0307C75.7509 48.9665 75.6998 48.9023 75.6488 48.8397L76.6629 47.9738V48.3261L75.8002 49.0307ZM75.4809 48.6323C75.3294 48.4479 75.173 48.2635 75.015 48.0841L79.2789 44.1247H80.7638L79.0681 45.5718L78.7949 45.8056L78.2368 46.283L77.9487 46.5283L77.2967 47.0848L77.193 47.172L76.709 47.5852L76.3221 47.9145L76.2513 47.9754L75.82 48.3442L75.4825 48.6323H75.4809ZM74.8339 47.8865C74.475 47.493 74.0996 47.1144 73.7078 46.7506L76.1196 44.1247H78.8838L74.8339 47.8865ZM73.5102 46.5695C73.2633 46.3456 73.0098 46.1283 72.7496 45.9192L74.2264 44.1264H75.7541L73.5102 46.5695ZM72.5389 45.7496C72.4155 45.6525 72.292 45.557 72.1652 45.4615L74.0157 43.0645V43.9568L72.5389 45.7496ZM71.9463 45.3018C71.7026 45.124 71.4557 44.9512 71.2021 44.7849L71.2499 44.7174L71.3042 44.6384L72.1652 43.3987C72.1669 43.3971 72.1685 43.3938 72.1685 43.3921C72.1718 43.3872 72.1734 43.3822 72.1751 43.3789C72.1767 43.3756 72.1784 43.3707 72.18 43.3674C72.18 43.3641 72.1833 43.3592 72.1833 43.3559C72.185 43.351 72.185 43.346 72.185 43.3411C72.185 43.3378 72.185 43.3345 72.185 43.3328V42.8488L74.0124 40.1522V42.6249L71.943 45.3051L71.9463 45.3018ZM70.9733 44.6367C70.6243 44.4145 70.2687 44.2021 69.9049 44.0012L70.2325 43.458H71.7932L71.5297 43.8366L71.4639 43.9321L71.0787 44.4853L71.0474 44.5297L70.9749 44.6367H70.9733ZM69.6628 43.8712C69.3929 43.728 69.1196 43.5897 68.8413 43.458H69.9131L69.6628 43.8712ZM68.2767 43.2028C67.6297 42.9229 66.9646 42.6776 66.283 42.4685V34.8561H71.9067V43.1452V43.2044H68.2767V43.2028ZM66.0015 42.3846H65.9982L66.0015 42.378V42.3862V42.3846ZM65.7298 42.3088C65.4994 42.2463 65.2672 42.187 65.0335 42.1311V40.5424L66.0015 37.3815V41.5861L65.7298 42.3056V42.3088ZM64.7519 42.0685C64.6943 42.0553 64.6351 42.0438 64.5774 42.0323L64.7519 41.461V42.0685ZM64.3009 41.9763C64.2679 41.9697 64.235 41.9648 64.2004 41.9582L64.4638 41.0478L64.7519 40.0534V40.5094L64.3009 41.9763ZM63.9255 41.9072C63.6654 41.8627 63.4036 41.8232 63.1402 41.7886V41.1416H64.1461L64.077 41.3803L64.044 41.4923V41.4939L63.9255 41.9055V41.9072ZM89.5353 63.3222C89.5254 63.4473 89.5122 63.5724 89.4991 63.6959H86.7399L85.9579 63.5362C85.9562 63.5362 85.9546 63.5362 85.9529 63.5362L85.1924 63.3798C85.1825 63.3765 85.1726 63.3749 85.1627 63.3732L84.8993 63.3189H89.5139L89.5336 63.3222H89.5353ZM89.4744 63.9511C89.4711 63.9807 89.4678 64.0103 89.4645 64.04H88.4092L87.9779 63.9511H89.4744ZM89.4332 64.2951C89.4085 64.4976 89.3838 64.6985 89.3542 64.8993L88.8504 64.7841L88.5343 64.7117V64.2935H89.4332V64.2951ZM89.318 65.1529C89.3065 65.2286 89.2949 65.3027 89.2834 65.3784H87.675L85.0047 64.6968H87.3013L87.5169 64.7462L88.3615 64.9372L88.7829 65.0327L89.3097 65.1512L89.3196 65.1529H89.318ZM89.2406 65.6319C89.0365 66.8485 88.7582 68.0405 88.4092 69.2011H87.5844H78.9364V66.679C79.0467 66.3349 79.1488 65.9842 79.2394 65.6319H82.5912H87.6519H89.2373H89.2406ZM88.2479 69.7213C88.2034 69.8563 88.1606 69.988 88.1145 70.1214L86.4814 69.4546H86.7053H87.5564L88.2479 69.7197V69.7213ZM88.0306 70.3667C87.9762 70.5231 87.9203 70.6811 87.8626 70.8375L84.6869 69.4563H85.7965L88.0306 70.3667ZM87.7705 71.0795C87.7178 71.2178 87.6651 71.3561 87.6108 71.4944H87.2667L82.8925 69.4546H83.1905H84.0383L87.7721 71.0779L87.7705 71.0795ZM87.507 71.7496C86.8831 73.2823 86.1307 74.7508 85.2631 76.1402V71.7496H87.2321H87.507ZM84.9833 76.5831C84.9075 76.7 84.8302 76.8169 84.7528 76.9321L82.6274 75.4208V74.6191V74.0017L84.9833 75.513V76.5847V76.5831ZM84.6046 77.1494C84.3758 77.4853 84.1387 77.8162 83.8967 78.1421L80.7293 75.6678H82.4875C82.4974 75.6678 82.5072 75.6661 82.5171 75.6645L84.6046 77.1494ZM83.3403 78.8616C83.2876 78.9291 83.2333 78.9966 83.1773 79.0641H81.0437V78.1076V78.0763H82.3739L82.8036 78.427L83.3222 78.8468L83.3386 78.8616H83.3403ZM82.9682 79.3192C82.7493 79.5826 82.527 79.8411 82.2998 80.0963H81.0453V79.3192H82.9682ZM82.071 80.3515C81.7384 80.7153 81.396 81.0709 81.0453 81.4183V80.6066V80.3515H82.071ZM80.7655 81.6932C80.6881 81.7673 80.6124 81.8397 80.535 81.9122H78.375H75.1911H73.5596V80.9244H74.5787C74.6561 80.9244 74.7203 80.8668 74.7203 80.796V79.395H77.9536C77.9618 79.395 77.9717 79.395 77.9799 79.3917C77.9832 79.3917 77.9865 79.39 77.9898 79.39C77.9948 79.3884 77.9997 79.3867 78.0063 79.3851C78.0096 79.3834 78.0129 79.3818 78.0162 79.3802C78.0211 79.3785 78.0244 79.3769 78.0293 79.3736C78.0326 79.3719 78.0359 79.3686 78.0392 79.367C78.0425 79.3653 78.0441 79.3637 78.0458 79.362C78.0474 79.3604 78.0474 79.3588 78.0491 79.3588C78.0524 79.3555 78.0557 79.3522 78.059 79.3489C78.0622 79.3456 78.0655 79.3423 78.0672 79.339C78.0705 79.3357 78.0721 79.3324 78.0738 79.3275C78.0771 79.3242 78.0787 79.3209 78.0804 79.3176C78.082 79.3143 78.0837 79.3094 78.0853 79.3061C78.0869 79.3028 78.0886 79.2978 78.0902 79.2945C78.0902 79.2913 78.0919 79.2863 78.0919 79.283C78.0919 79.2781 78.0935 79.2731 78.0935 79.2699C78.0935 79.2682 78.0935 79.2666 78.0935 79.2649V77.7684H80.7655V81.6916V81.6932ZM80.2633 82.1673C79.5703 82.8045 78.8459 83.407 78.0935 83.9733V82.1673H80.2633ZM77.8137 84.1841C77.6161 84.3289 77.4169 84.4705 77.216 84.6104L77.0695 84.4079L77.0597 84.3948V82.1673H77.812V84.1841H77.8137ZM76.9922 84.7652L76.9708 84.78H76.5559L74.7433 82.1673H75.1154L75.4134 82.5789L75.7031 82.979L76.8061 84.5051L76.8374 84.5479L76.9938 84.7652H76.9922ZM76.5905 85.0335C74.8981 86.1481 73.0839 87.0931 71.1692 87.8372H71.0293V87.1062V85.0335H72.2591H73.418H76.5872H76.5905ZM68.7442 88.6587C67.2658 89.0867 65.7397 89.3995 64.1741 89.5905V85.129H68.7442V88.6587ZM63.1402 85.0385V81.7903L63.2225 82.141V85.4583L63.1814 85.2459L63.1402 85.0401V85.0385ZM63.1402 80.5573V80.4437L63.1962 80.6676L63.3691 81.3656L63.4481 81.685L63.5238 81.9862L63.5287 82.0076H63.481L63.3938 81.6323L63.2867 81.1746L63.1847 80.7367C63.1847 80.7367 63.1847 80.7367 63.1847 80.7351L63.183 80.7318L63.1435 80.5638L63.1402 80.5573ZM63.2785 79.8312C63.4843 79.8033 63.6884 79.772 63.8926 79.7374V82.3188L63.8399 82.1081V82.1064L63.7658 81.8068L63.6423 81.3096L63.6078 81.1697L63.4991 80.7301L63.4431 80.4996L63.2785 79.8329V79.8312ZM64.1741 79.688C64.6153 79.6057 65.0516 79.5102 65.4813 79.3983L66.0097 80.8355C66.0097 80.8371 66.0114 80.8388 66.013 80.8404C66.0147 80.8437 66.0163 80.8454 66.0163 80.8487C66.0196 80.8536 66.0212 80.8585 66.0245 80.8618C66.0262 80.8635 66.0278 80.8651 66.0295 80.8684C66.0328 80.8733 66.0377 80.8783 66.0426 80.8832C66.0426 80.8832 66.0443 80.8849 66.0459 80.8865C66.0525 80.8915 66.0591 80.8964 66.0657 80.9013C66.0673 80.903 66.069 80.903 66.0723 80.9046C66.0772 80.9079 66.0822 80.9096 66.0887 80.9129C66.092 80.9129 66.0937 80.9145 66.097 80.9161C66.1035 80.9178 66.1085 80.9194 66.1134 80.9211C66.1167 80.9211 66.1184 80.9227 66.12 80.9227C66.1299 80.9244 66.1381 80.926 66.1464 80.926H70.435V83.3477H69.4077H64.1774V79.6913L64.1741 79.688ZM65.7512 79.3258C65.8352 79.3028 65.9192 79.2781 66.0031 79.255V80.009L65.7512 79.3258ZM66.2846 79.1727C67.8997 78.6788 69.4225 77.9775 70.8251 77.1H74.4404V80.6676H70.6753H66.2846V79.1727ZM71.2219 76.8449C71.347 76.7625 71.4721 76.6769 71.594 76.5913L71.7833 76.8449H71.2202H71.2219ZM71.8162 76.4349C72.2459 76.1271 72.664 75.8027 73.0657 75.4603L73.4164 75.8571L74.2873 76.8432H72.1224L71.8162 76.4333V76.4349ZM73.2699 75.2842C73.4049 75.1673 73.5366 75.0488 73.6666 74.9286L73.8691 75.1426L74.1391 75.429L74.1441 75.4356C74.1441 75.4356 74.1441 75.4373 74.1457 75.4373L74.2297 75.5245H73.4806L73.2682 75.2825L73.2699 75.2842ZM73.8642 74.7442C73.9284 74.6833 73.9926 74.6224 74.0552 74.5598L74.3943 74.9039V75.3072L74.3548 75.2661L74.0848 74.9813L73.8642 74.7475V74.7442ZM74.2478 74.3721C74.312 74.3079 74.3762 74.2421 74.4404 74.1762V74.568L74.3531 74.4808L74.2478 74.3738V74.3721ZM74.7219 73.8799C74.8405 73.7515 74.9573 73.6231 75.0726 73.4914V75.2068L74.7219 74.8512V73.8799ZM75.3541 73.1637C75.9319 72.4772 76.4621 71.7479 76.9411 70.9824H82.3492V75.4109H75.3541V73.1621V73.1637ZM77.0992 70.7289C77.1436 70.6548 77.1864 70.5807 77.2309 70.5066H81.5425L81.9673 70.7289H77.0992ZM77.3774 70.2514C77.5552 69.937 77.7248 69.616 77.8861 69.29H78.459L78.7273 69.4365C78.729 69.4365 78.7306 69.4382 78.7323 69.4382C78.7405 69.4415 78.7488 69.4448 78.757 69.448C78.7603 69.448 78.7636 69.4497 78.7669 69.4513C78.7767 69.453 78.7883 69.4546 78.7998 69.4546H79.5373L81.0552 70.2514H77.3774ZM78.1149 68.806C78.3125 68.3763 78.4936 67.94 78.6582 67.4939V69.1023L78.1149 68.806ZM79.3069 65.3768C79.3628 65.1512 79.4122 64.924 79.46 64.6952H79.5258L81.745 65.3768H79.3085H79.3069ZM79.5126 64.4219C79.5505 64.2276 79.5834 64.0301 79.6147 63.8342H80.5992L82.9715 64.44H79.5703L79.5126 64.4219ZM79.6871 63.3353C79.6888 63.3238 79.6904 63.3139 79.6921 63.3008H81.1606L81.5277 63.3847L81.7187 63.4275L82.2043 63.5378L82.3821 63.579H80.6387L79.6871 63.3353ZM82.3196 63.3008H83.5082V63.5708L82.9666 63.4473L82.3196 63.3008ZM52.2895 88.5747L52.2566 88.5648V88.5599L52.6764 87.5178H52.7027L52.6171 87.7368L52.301 88.5451L52.2911 88.5731L52.2895 88.5747ZM51.9767 88.4776C49.853 87.8108 47.8346 86.9087 45.9512 85.7974H49.0578H50.6037V87.3894C50.6037 87.4602 50.6662 87.5178 50.7453 87.5178H51.975V88.4776H51.9767ZM45.5265 85.5422C45.403 85.4665 45.2796 85.3891 45.1577 85.3101L45.1923 85.2607L45.4771 84.8607H47.0921L46.6575 85.5422H45.5265ZM43.0702 83.8564C43.0044 83.8054 42.9385 83.7544 42.8727 83.7033V83.6951H43.2019L43.0702 83.8564ZM42.4858 83.3988C42.2965 83.2457 42.1088 83.0893 41.9228 82.9329V82.8357H42.4858V83.3988ZM41.5161 82.5806C40.2057 81.4265 39.0006 80.1556 37.9173 78.7842V77.1H43.9642V82.5806H43.2908H41.5161ZM37.6358 78.4237C37.5156 78.2656 37.3954 78.1059 37.2769 77.9462L37.6358 77.6828V78.4237ZM37.1222 77.7322C36.9954 77.5544 36.8686 77.3766 36.7468 77.1972H37.6358V77.3552L37.1222 77.7322ZM36.5706 76.942C36.4587 76.7724 36.3467 76.6029 36.2364 76.4316H38.3042L37.6885 76.8728C37.6868 76.8745 37.6852 76.8761 37.6835 76.8778C37.6802 76.8811 37.677 76.8844 37.672 76.8877C37.6687 76.891 37.6671 76.8942 37.6638 76.8975C37.6605 76.9008 37.6572 76.9041 37.6556 76.9074C37.6556 76.9091 37.6539 76.9107 37.6523 76.9124V76.914C37.6523 76.9156 37.6506 76.9173 37.6506 76.9189C37.649 76.9222 37.6473 76.9272 37.644 76.9305C37.644 76.9321 37.6424 76.9338 37.6424 76.9354C37.6424 76.9371 37.6424 76.9387 37.6407 76.9387C37.6407 76.9387 37.6407 76.9403 37.6407 76.942H36.5723H36.5706ZM36.0175 76.081C34.0716 72.9464 32.7084 69.4118 32.0763 65.6303H36.1591V76.081H36.0175ZM32.0351 65.3751C32.0269 65.3257 32.0186 65.278 32.0104 65.2286H36.8176L36.2792 65.3751H32.0351ZM31.9758 64.9734L31.9692 64.9356L32.6228 64.7956L34.4782 64.3989H39.8731L39.3183 64.5487L37.7576 64.9718H31.9758V64.9734ZM39.6114 63.3008H41.6297C41.6347 63.3436 41.6412 63.3847 41.6478 63.4275H39.0203L39.32 63.3633L39.6114 63.3008ZM41.684 63.6827C41.6939 63.7552 41.7071 63.8259 41.7186 63.8984L40.8148 64.1437H35.6734L36.2414 64.0219L37.8317 63.6811H41.6857L41.684 63.6827ZM41.7598 64.1536C42.0627 65.8838 42.5977 67.5351 43.332 69.0727V69.1106L42.1351 69.7559L41.712 69.9847C41.661 70.0127 41.6363 70.0638 41.6462 70.1148V70.3601C41.6445 70.3667 41.6445 70.3716 41.6445 70.3782C41.6445 70.3848 41.6445 70.3914 41.6462 70.3963V72.5678L40.9778 73.0024V64.3643L41.7614 64.1519L41.7598 64.1536ZM43.4604 69.3377C43.6135 69.6472 43.7765 69.9518 43.9461 70.2514H41.926V70.1675L42.28 69.9765C42.28 69.9765 42.28 69.9765 42.2816 69.9749L42.2849 69.9732H42.2866L43.4604 69.3394V69.3377ZM44.351 70.9347C44.8466 71.7331 45.3997 72.4921 46.0039 73.2065V73.3629L45.5314 73.763L45.4639 73.819L44.97 74.2404L44.9025 74.298L44.4564 74.6767L44.351 74.7656V70.933V70.9347ZM46.2558 73.4979C46.3019 73.549 46.348 73.6017 46.3941 73.651L46.2426 73.786H45.9167L46.241 73.5111L46.2575 73.4979H46.2558ZM46.753 74.0412C46.7958 74.0873 46.8402 74.1318 46.8847 74.1779L46.8155 74.2437L46.8139 74.2454L46.8123 74.247L46.753 74.303L46.2854 74.7409C46.2854 74.7409 46.2854 74.7409 46.2838 74.7409L46.264 74.759H45.5413L46.3546 74.0396H46.753V74.0412ZM47.0724 74.3688C47.1218 74.4182 47.1728 74.4676 47.2222 74.5154V74.8265L46.4649 75.5805V74.9384L46.4813 74.9236C46.4863 74.9203 46.4912 74.9154 46.4945 74.9121L46.9505 74.4841C46.9538 74.4808 46.9571 74.4775 46.9604 74.4742L47.0164 74.4215L47.074 74.3688H47.0724ZM47.94 75.1887C48.019 75.2578 48.098 75.327 48.177 75.3945V76.6094L47.5021 77.3947V75.1623C47.5251 75.1788 47.5531 75.187 47.5844 75.187H47.94V75.1887ZM48.4585 75.6315C48.5672 75.7221 48.6775 75.8093 48.7895 75.8982L48.4585 76.2835V75.6332V75.6315ZM49.0035 76.0629C49.0199 76.076 49.0348 76.0876 49.0512 76.0991V76.4547L48.694 76.8893L48.6528 76.9387L48.4602 77.1741V76.695L49.0051 76.0612L49.0035 76.0629ZM49.4496 76.3954C49.6241 76.5205 49.8019 76.644 49.9814 76.7642L48.0387 79.3308H47.046L47.074 79.2962L47.4741 78.8056L47.5333 78.7332L47.963 78.2096L48.3104 77.7849L48.4306 77.6384L48.4421 77.6236L48.8965 77.0704L48.9195 77.0424L49.3047 76.5732L49.3508 76.5172L49.4496 76.3954ZM50.2086 76.914C50.3222 76.9881 50.4374 77.0605 50.5526 77.133L48.987 79.3291H48.3812L50.2086 76.914ZM50.7848 77.2762C50.8276 77.3025 50.8704 77.3272 50.9132 77.3519L50.63 77.7651C50.6284 77.7684 50.6267 77.7701 50.6267 77.7734C50.6234 77.7767 50.6218 77.7816 50.6201 77.7865C50.6185 77.7898 50.6168 77.7948 50.6168 77.7981C50.6152 77.8014 50.6136 77.8063 50.6136 77.8096C50.6136 77.8129 50.6119 77.8162 50.6119 77.8178L49.2043 79.8708V79.4954L50.7864 77.2762H50.7848ZM51.1502 77.4902C51.2787 77.5626 51.4071 77.6351 51.5371 77.7059H51.0021L51.1486 77.4902H51.1502ZM52.0244 77.9594C53.241 78.5735 54.5334 79.0624 55.8817 79.4081V87.2626H50.8901V78.6212V77.9594H52.0244ZM56.1632 79.4789C56.2686 79.5036 56.3723 79.5283 56.4793 79.5514V85.2838L56.1632 86.3901V79.4806V79.4789ZM56.7608 79.6106C56.8958 79.6386 57.0308 79.665 57.1658 79.6897V82.8769L56.8316 84.0507L56.7608 84.2976V79.6106ZM57.4473 79.7407C57.5708 79.7621 57.6943 79.7819 57.8194 79.8V80.5918L57.5017 81.7047L57.4473 81.8941V79.7407ZM31.854 57.6211C31.8869 57.3264 31.9248 57.0333 31.966 56.7419L39.0022 58.3372H35.601L31.8556 57.6227L31.854 57.6211ZM32.0005 56.4868C32.0631 56.0702 32.1355 55.657 32.2145 55.2471L34.7894 55.955V56.3271C34.7894 56.3287 34.7894 56.332 34.7894 56.3337C34.7894 56.3386 34.7893 56.3435 34.791 56.3468C34.791 56.3501 34.7926 56.3551 34.7943 56.3583C34.7959 56.3633 34.7976 56.3666 34.7976 56.3715C34.7992 56.3748 34.8009 56.3797 34.8042 56.383C34.8058 56.3863 34.8075 56.3896 34.8108 56.3929C34.814 56.3962 34.8157 56.3995 34.819 56.4028C34.8206 56.4044 34.8206 56.4061 34.8223 56.4094C34.8239 56.411 34.8256 56.411 34.8256 56.4127C34.8289 56.416 34.8322 56.4193 34.8354 56.4209C34.8387 56.4242 34.842 56.4275 34.8453 56.4291C34.8486 56.4308 34.8536 56.4341 34.8568 56.4357C34.8601 56.4374 34.8651 56.439 34.8684 56.4423C34.8733 56.444 34.8783 56.4456 34.8815 56.4472C34.8848 56.4472 34.8865 56.4489 34.8898 56.4505L39.129 57.5486L39.4385 57.6293L39.6196 57.677L41.6478 58.2022C41.6412 58.2483 41.6347 58.2927 41.6297 58.3405H40.1612L32.0005 56.4917V56.4868ZM32.2639 54.9936C32.3644 54.5079 32.4747 54.0272 32.5981 53.5498L34.7877 54.2758V55.3574V55.6867L32.2639 54.9936ZM32.6623 53.2995C32.8994 52.4138 33.1776 51.5446 33.4954 50.6951L34.7877 51.2548V53.6831V54.0025L32.6623 53.2979V53.2995ZM33.5876 50.4514C33.7456 50.0415 33.9102 49.6349 34.0864 49.2332L34.7877 49.5772V50.0036V50.9717L33.5876 50.4514ZM34.1901 48.9945C34.33 48.6817 34.4766 48.3722 34.6264 48.0659L34.7877 48.1532V49.2891L34.1901 48.9961V48.9945ZM35.0692 47.2016C35.1235 47.0979 35.1795 46.9959 35.2355 46.8938H37.5946H39.0055V48.1993V52.5011C39.0055 52.5719 39.0681 52.6295 39.1471 52.6295H41.959H43.225V52.7908C42.7245 53.8757 42.3228 55.015 42.0298 56.1987H35.0692V47.2033V47.2016ZM35.3771 46.6386C35.4676 46.4756 35.5615 46.3143 35.6553 46.153H37.3263L38.0589 46.6386H35.8035H35.3771ZM35.8084 45.8994C35.9154 45.72 36.0257 45.5422 36.1377 45.366L36.9427 45.8994H35.8084ZM36.2776 45.1421C36.4455 44.882 36.6167 44.6268 36.7929 44.3733L36.8456 44.4095C36.8456 44.4095 36.8472 44.4095 36.8472 44.4112L37.6671 44.9973L38.4688 45.5702L38.4754 45.5751C38.4754 45.5751 38.4771 45.5751 38.4771 45.5767L38.9281 45.8994H37.4185L36.276 45.1421H36.2776ZM36.9427 44.156C37.1864 43.8086 37.4382 43.4678 37.6967 43.132L38.3733 43.6638V43.8037C38.3733 43.8053 38.3733 43.807 38.3733 43.8086C38.3733 43.8103 38.3733 43.8119 38.3733 43.8136C38.3733 43.8169 38.375 43.8202 38.375 43.8218C38.375 43.8251 38.3766 43.83 38.3783 43.8333C38.3783 43.835 38.3783 43.8366 38.3783 43.8366C38.3783 43.8399 38.3799 43.8416 38.3816 43.8448C38.3832 43.8481 38.3849 43.8531 38.3865 43.8564C38.3865 43.858 38.3882 43.8597 38.3882 43.8597C38.3898 43.863 38.3914 43.8646 38.3931 43.8662C38.3964 43.8695 38.398 43.8728 38.3997 43.8761C38.4013 43.8778 38.4013 43.8794 38.403 43.8794C38.4046 43.8811 38.4063 43.8811 38.4063 43.8827C38.4063 43.8827 38.4079 43.8844 38.4079 43.886C38.4112 43.8893 38.4145 43.8926 38.4178 43.8959C38.4194 43.8959 38.4194 43.8975 38.4211 43.8992L38.4639 43.9321L39.1948 44.5001V45.7644L38.6433 45.371L37.8416 44.798L37.8383 44.7964C37.8366 44.7948 37.835 44.7931 37.8317 44.7915L37.0184 44.2103C37.0184 44.2103 37.0168 44.2103 37.0151 44.2087L37.0119 44.2054C37.0119 44.2054 37.0118 44.2054 37.0102 44.2054L36.9411 44.156H36.9427ZM37.8613 42.9229C38.0293 42.7089 38.2005 42.4982 38.375 42.2891V42.9048V43.3246L37.8613 42.9213V42.9229ZM38.6565 41.9565C39.832 40.5868 41.1325 39.3258 42.5418 38.1948H44.7033V40.9029H42.8397C42.7607 40.9029 42.6982 40.9589 42.6982 41.0297V43.4201V43.6753H38.6549V41.9565H38.6565ZM42.8644 37.9412C43.1295 37.7354 43.3978 37.5329 43.6711 37.3354H46.7678L47.2535 38.0746L47.6338 38.6524H45.4557L44.9602 37.9972C44.9585 37.9956 44.9569 37.9939 44.9552 37.9923C44.9519 37.9873 44.947 37.9824 44.9421 37.9791C44.9404 37.9774 44.9388 37.9758 44.9371 37.9758C44.9355 37.9742 44.9338 37.9725 44.9322 37.9725C44.9289 37.9692 44.9256 37.9676 44.9207 37.9643C44.9174 37.9626 44.9124 37.961 44.9075 37.9577C44.9042 37.956 44.8993 37.9544 44.896 37.9528C44.891 37.9511 44.8861 37.9495 44.8828 37.9495C44.8795 37.9478 44.8746 37.9462 44.8696 37.9462C44.863 37.9445 44.8565 37.9445 44.8499 37.9445C44.8482 37.9445 44.8449 37.9445 44.8433 37.9445H42.8661L42.8644 37.9412ZM44.0251 37.0802C44.8861 36.476 45.78 35.9179 46.7052 35.4092V37.0802H44.0251ZM46.9868 35.2561C47.2354 35.1228 47.4856 34.9911 47.7391 34.8643V38.3149L47.4938 37.9429L46.9868 37.1724V35.2561ZM48.2528 34.6157C50.635 33.4863 53.1949 32.6714 55.8817 32.2253V36.0266H51.17H48.2544V34.6141L48.2528 34.6157ZM58.1799 40.3399V41.7837C58.0828 41.7969 57.984 41.81 57.8869 41.8248L56.1632 36.1385V32.5694L58.1799 40.3399ZM57.6087 41.8676C57.4111 41.8989 57.2119 41.9335 57.016 41.9714L55.0536 36.2834H55.9146L57.6087 41.8676ZM56.7411 42.0273C56.6785 42.0405 56.6143 42.052 56.5517 42.0668L56.155 40.9902C56.155 40.9885 56.1533 40.9869 56.1533 40.9869C56.1517 40.9819 56.15 40.9786 56.1468 40.9737C56.1451 40.9704 56.1435 40.9671 56.1402 40.9638C56.1369 40.9605 56.1352 40.9572 56.1319 40.9539C56.1286 40.9507 56.1254 40.9474 56.1237 40.9441C56.1204 40.9408 56.1171 40.9391 56.1138 40.9358C56.1105 40.9325 56.1072 40.9293 56.104 40.9276C56.1007 40.9243 56.0957 40.9227 56.0924 40.921C56.0891 40.9194 56.0842 40.9161 56.0809 40.9144C56.0776 40.9128 56.0727 40.9111 56.0677 40.9095C56.0628 40.9079 56.0578 40.9062 56.0546 40.9062C56.0513 40.9062 56.0463 40.9046 56.0414 40.9046C56.0365 40.9046 56.0315 40.9029 56.0249 40.9029C56.0233 40.9029 56.0216 40.9029 56.02 40.9029H55.0734L53.1637 36.2834H54.7556L56.7378 42.0273H56.7411ZM56.2785 42.1294C56.2406 42.1393 56.2011 42.1475 56.1632 42.1557V41.8166L56.2785 42.1294ZM55.8817 42.2265C53.6098 42.8093 51.5009 43.7971 49.634 45.1092H42.9797V41.1581H49.3624H50.9774H51.9339H53.4979H54.9762H55.8784V42.2249L55.8817 42.2265ZM49.2801 45.3644C48.8619 45.6722 48.4569 45.9966 48.0667 46.3373L47.1514 45.3644H49.2801ZM47.8642 46.5151C47.5926 46.7588 47.3275 47.009 47.0691 47.2675L45.0655 45.3644H46.781L47.8642 46.5151ZM46.6921 47.6577C46.5637 47.7943 46.4369 47.931 46.3134 48.0709L45.836 47.6577H46.6921ZM46.1389 48.2717C46.0599 48.3639 45.9809 48.4561 45.9035 48.55H44.8383L44.3609 48.1795L43.8193 47.7597L43.6859 47.656L43.6678 47.6412L43.5789 47.5721L43.5427 47.5441H45.2977L45.7636 47.9474L46.1389 48.2717ZM45.6944 48.8051C45.6269 48.8891 45.5594 48.9747 45.4936 49.0587L45.3701 48.9632L45.166 48.8051H45.6944ZM45.3322 49.2694C45.2055 49.4357 45.0836 49.6052 44.9635 49.7765V48.9813L45.3224 49.2595L45.3339 49.2677L45.3322 49.2694ZM44.7593 50.0711C44.705 50.1502 44.6523 50.2308 44.5996 50.3115L44.5898 50.3049L44.2457 50.0711H44.7593ZM44.4564 50.5321C44.3329 50.728 44.2127 50.9256 44.0942 51.1264L42.5368 50.1567V49.2282L43.0949 49.6069L43.7403 50.0448L44.3609 50.4679L44.4564 50.5337V50.5321ZM43.9642 51.3536C43.7732 51.6894 43.5921 52.0335 43.4209 52.3825H43.4176C43.4127 52.3809 43.4094 52.3792 43.4044 52.3792C43.3995 52.3792 43.3962 52.3776 43.3912 52.376C43.3863 52.376 43.3814 52.3743 43.3748 52.3743C43.3715 52.3743 43.3682 52.3727 43.3666 52.3727H42.5368V50.4646L43.9625 51.3536H43.9642ZM41.9705 56.4505C41.8997 56.7551 41.8355 57.063 41.7795 57.3741H39.4978L39.208 57.2984L38.4178 57.0942L37.2967 56.8045L36.1443 56.5065L35.9335 56.4522H41.9688L41.9705 56.4505ZM41.7351 57.6276C41.7186 57.7314 41.7005 57.8351 41.6857 57.9388L41.4601 57.8812L40.4822 57.6276H41.7351ZM46.055 39.441L46.2031 39.6369L46.5472 40.0913H48.582L48.2445 39.5793L47.8 38.9043H45.6467L46.0533 39.441H46.055ZM48.4865 39.4476L48.689 39.7554V37.4062L48.2577 36.6736L48.2412 36.6456L48.0206 36.2702V38.743L48.4849 39.4492L48.4865 39.4476ZM46.5587 40.5572L46.3562 40.2905V40.2888L45.8409 39.6089L45.3586 38.9718L44.9832 38.4746V40.8996H46.8205L46.562 40.5588L46.5587 40.5555V40.5572ZM51.384 36.2818L53.5917 40.9013H54.7754L52.8657 36.2818H51.384ZM46.7941 40.4173L47.1004 40.8206L47.1613 40.9013H49.1154L48.7499 40.3448H46.7415L46.7941 40.4156V40.4173ZM48.3466 36.2818L48.5063 36.5534L48.9541 37.314L49.3969 38.068L49.82 38.7858L50.2201 39.4673L50.5987 40.1127L50.9576 40.7235L51.0613 40.9013H51.7083L49.1862 36.2818H48.3482H48.3466ZM48.9705 40.1835L49.3936 40.8255L49.443 40.9013H49.555V38.8763L48.9705 37.8836V40.1818V40.1835ZM52.543 40.9013H53.2855L51.0778 36.2818H49.499L52.0211 40.9013H52.543ZM49.8349 40.9013H50.742L49.8349 39.3554V40.9013ZM44.1189 48.3244L43.523 47.8602L43.0719 47.5095L42.5928 47.1374L42.3887 46.9794V48.0413L42.9994 48.4775C43.0044 48.4808 43.0077 48.4841 43.011 48.4858L43.6629 48.9517L44.2835 49.3945C44.2934 49.3995 44.3017 49.406 44.3082 49.4126L44.6787 49.6777V48.7607L44.1156 48.3228L44.1189 48.3244ZM42.2553 49.0356L41.7433 48.6882L41.0321 48.2042L40.6683 47.9573L39.9274 47.4535L39.5521 47.1984L39.2903 47.0205V48.1318L42.257 49.9806V49.0373L42.2553 49.0356ZM43.1344 49.3138L43.8703 49.8143H44.4152L44.1238 49.6052H44.1222L43.4917 49.1542L42.8381 48.6882L42.1993 48.2322H41.5425L41.7038 48.3425L42.4841 48.8726L43.1377 49.3171L43.1344 49.3138ZM39.2887 52.371H41.4223L39.2887 51.2828V52.371ZM41.2264 46.0772L40.5629 45.5603L40.2304 45.3002L40.0065 45.1257L39.4796 44.7157V45.962L40.1744 46.4592C40.181 46.4625 40.1859 46.4674 40.1908 46.4723L40.9218 46.9942C40.9218 46.9942 40.9218 46.9942 40.9235 46.9959L41.6314 47.5013C41.633 47.5029 41.6346 47.5046 41.6379 47.5046L41.6412 47.5062L42.1104 47.8404V46.7604L41.8734 46.5761L41.8684 46.5728L41.2297 46.0756L41.2264 46.0772ZM44.1749 46.5695L43.6415 46.1085H41.6972L42.2537 46.5398L42.4578 46.6979L43.0142 47.1309L43.2151 47.2873H45.003L44.7264 47.0485L44.1749 46.5695ZM42.2537 52.371V50.2884L39.287 48.4397V50.9898L41.9952 52.3694H42.2537V52.371ZM42.6965 44.9281V43.9272H38.8936L39.343 44.2762L40.0559 44.8293L40.744 45.3644L40.9251 45.5043L41.3696 45.85H43.3484L43.006 45.5537L42.9994 45.5488L42.741 45.3249C42.741 45.3249 42.741 45.3249 42.7393 45.3232C42.736 45.3199 42.7311 45.315 42.7278 45.3101C42.7261 45.3084 42.7229 45.3051 42.7212 45.3035C42.7179 45.3002 42.7163 45.2952 42.7146 45.2903C42.713 45.287 42.7113 45.2837 42.708 45.2804C42.7064 45.2771 42.7064 45.2738 42.7047 45.2705C42.7031 45.2656 42.7014 45.2623 42.6998 45.2574C42.6998 45.2541 42.6998 45.2508 42.6982 45.2475C42.6982 45.2426 42.6965 45.2376 42.6965 45.231C42.6965 45.231 42.6965 45.231 42.6965 45.2294V44.9232V44.9281ZM38.5347 46.6353H39.1454C39.1471 46.6353 39.1471 46.6353 39.1487 46.6353C39.1537 46.6353 39.1586 46.6353 39.1636 46.637C39.1685 46.637 39.1718 46.637 39.1767 46.6386C39.18 46.6386 39.185 46.6403 39.1899 46.6419C39.1948 46.6435 39.1998 46.6452 39.2031 46.6468C39.2064 46.6485 39.2097 46.6501 39.2129 46.6518C39.2179 46.6534 39.2228 46.6567 39.2261 46.6584C39.2261 46.6584 39.2278 46.66 39.2294 46.66L40.074 47.2329L40.0937 47.2461L40.4707 47.5029L40.8346 47.7499L40.8971 47.7927L41.1622 47.9721H41.8388L41.4651 47.7054L40.7489 47.1951C40.7489 47.1951 40.7489 47.1951 40.7473 47.1951L40.0098 46.6682L39.287 46.153H37.8054L38.538 46.6386L38.5347 46.6353ZM43.1871 45.3611L43.7831 45.878L43.7946 45.8879L44.2852 46.3126L45.5413 47.4008H46.8221L44.6754 45.3611H43.1888H43.1871ZM77.8877 42.2068H77.4268C77.3494 42.2068 77.2868 42.1492 77.2868 42.0784V38.4779H76.2859H75.5385H74.5227H74.3005V43.863H80.9795V42.8324V42.2068H77.8894H77.8877ZM63.8926 32.7422L63.6456 34.0132V34.8347L63.8926 33.6559V32.7422ZM64.8244 38.7808L64.9709 38.2721L64.9956 38.1832L65.208 37.4506L65.2475 37.314L65.4072 36.7592H64.1461L63.6769 38.7808H64.8227H64.8244ZM64.2185 40.8799L64.263 40.7268L64.291 40.628L64.4787 39.976L64.5165 39.8427L64.6334 39.4361L64.747 39.0393H63.616L63.1896 40.8832H64.2153L64.2185 40.8799ZM63.8909 35.0273L63.644 36.206V37.6828L63.8909 36.6192V35.0273ZM74.0157 38.8253L72.1883 41.6717V42.3533L74.0157 39.6567V38.8269V38.8253ZM72.1883 38.3248L73.0822 36.7592H72.1883V38.3248ZM80.8116 46.767L80.4774 47.0189H81.638L83.3995 45.7825H82.122L81.475 46.2698L80.8149 46.767H80.8116ZM63.3658 35.4685L63.1616 36.5221V37.1592L63.3658 36.183V35.4685ZM63.3658 37.5543L63.1616 38.5306V39.7801L63.3658 38.8994V37.5543ZM81.3285 48.5944H79.8534L78.5808 49.4867H79.944L81.3285 48.5944ZM81.8734 49.1459L82.5023 48.764L82.7789 48.5961H81.8125L80.428 49.4884H81.3088L81.8718 49.1476L81.8734 49.1459ZM83.5098 48.7525V48.4578L83.3222 48.573L82.6604 48.9747L82.0315 49.3566L81.7862 49.5048H83.5115V48.7508L83.5098 48.7525ZM78.4738 48.196L78.8014 47.9491L79.3859 47.5095H79.3875L79.944 47.0913V45.9883L78.4705 47.1918V48.1993L78.4738 48.196ZM85.408 47.8733L84.5289 48.3903V49.5081H85.408V47.875V47.8733ZM76.9477 49.3435L77.2012 49.1542C77.2012 49.1542 77.2029 49.1542 77.2029 49.1525L77.7067 48.7739L78.1907 48.41V47.4206L76.9461 48.438V49.3451L76.9477 49.3435ZM79.3941 48.5961H78.3833L77.8894 48.9681L77.3823 49.3501C77.3823 49.3501 77.3823 49.3501 77.3807 49.3501L77.379 49.3517L77.1996 49.4867H78.1265L79.3974 48.5944L79.3941 48.5961ZM78.1923 46.6682L77.8943 46.9218L77.4893 47.2675L76.9477 47.7301V48.0923L78.1923 47.0749V46.6666V46.6682ZM79.9473 45.1718L79.5752 45.4878L79.3809 45.6541L78.4738 46.4279V46.846L79.9473 45.6426V45.1701V45.1718ZM85.408 47.3087L85.11 47.4897L84.738 47.7153L84.5289 47.8421V48.0874L85.408 47.5721V47.3087ZM83.7914 49.5081H84.2474V48.5565L83.7914 48.8249V49.5098V49.5081ZM84.3099 47.6675L84.952 47.2774H83.8605L82.2093 48.3409H83.1987L83.8556 47.9425L84.0037 47.8519L84.3083 47.6675H84.3099ZM84.2474 48.0116L84.1618 48.0643L83.7914 48.2898V48.5187L84.2474 48.2503V48.0116ZM81.2561 44.0226C81.2544 44.0276 81.2528 44.0309 81.2511 44.0358C81.2495 44.0391 81.2495 44.044 81.2478 44.0473C81.2462 44.0506 81.2445 44.0539 81.2412 44.0572C81.238 44.0605 81.2363 44.0654 81.2347 44.0687C81.2314 44.072 81.2297 44.0753 81.2281 44.077C81.2248 44.0803 81.2215 44.0852 81.2166 44.0885C81.2166 44.0885 81.2166 44.0885 81.2149 44.0901L81.103 44.1856L80.8181 44.4293L80.2288 44.933V45.4171L81.931 44.0276V42.2874L81.261 42.8933V43.9996V44.0012V44.0029C81.261 44.0062 81.2594 44.0111 81.2594 44.0161C81.2594 44.0194 81.2594 44.0226 81.2577 44.0259L81.2561 44.0226ZM65.7414 36.6209L65.5208 37.3831L65.5109 37.421L65.2327 38.3808L65.0615 38.9735L65.0335 39.0722V39.5859L66.0015 36.425V35.7138L65.7792 36.4843L65.7397 36.6209H65.7414ZM79.5785 47.6972C79.5719 47.7038 79.5637 47.7103 79.5538 47.7153L78.9809 48.1466L78.7208 48.3409H79.7563L81.2742 47.2774H80.1382L79.5785 47.6972ZM80.2288 46.8773L80.6222 46.581C80.6288 46.5744 80.6354 46.5695 80.6436 46.5645L81.2956 46.0756L81.931 45.5965V44.3651L80.2288 45.7545V46.8757V46.8773ZM80.2173 48.3409H81.7253L83.3765 47.2774H81.7335L80.2156 48.3409H80.2173ZM52.2582 87.8158L52.3784 87.5178H52.2582V87.8158ZM47.8346 83.6951H46.3019L46.1274 83.942L45.8294 84.3618L45.6566 84.6055H47.2535L47.8346 83.6951ZM47.1036 83.4399H48.9179V79.5843H46.8337L46.6855 79.7654L46.5637 79.9152L45.92 80.7005L45.8854 80.7433L45.5051 81.2059L45.3191 81.4347L45.3141 81.4413L44.8268 82.0356L44.7231 82.1608L44.2144 82.7814C44.2128 82.7831 44.2111 82.7847 44.2095 82.7863C44.2045 82.7913 44.1996 82.7962 44.1946 82.7995C44.1913 82.8028 44.1881 82.8045 44.1864 82.8061C44.1815 82.8094 44.1749 82.8127 44.1699 82.816C44.1667 82.8176 44.1634 82.8193 44.1601 82.8209C44.1535 82.8242 44.1469 82.8259 44.1387 82.8275C44.1354 82.8275 44.1337 82.8291 44.1304 82.8291C44.1206 82.8308 44.1107 82.8324 44.1008 82.8324H42.764V83.4383H46.2212H47.102L47.1036 83.4399ZM39.4385 74.3178L39.1669 74.4956L38.7273 74.782L38.4952 74.9335H44.0679V70.505H41.9228V72.6336C41.9228 72.6369 41.9228 72.6386 41.9228 72.6419C41.9228 72.6468 41.9228 72.6517 41.9211 72.6567C41.9211 72.66 41.9195 72.6649 41.9178 72.6682C41.9162 72.6715 41.9145 72.6764 41.9145 72.6797C41.9129 72.683 41.9112 72.688 41.9079 72.6913C41.9046 72.6945 41.903 72.6978 41.9014 72.7011C41.8981 72.7044 41.8948 72.7077 41.8931 72.711C41.8898 72.7143 41.8882 72.7176 41.8849 72.7209C41.8816 72.7242 41.8767 72.7275 41.8717 72.7308C41.8684 72.7324 41.8668 72.7341 41.8651 72.7357L40.9169 73.3547L39.4401 74.3162L39.4385 74.3178ZM39.5932 75.5064L40.0377 75.187H38.1033L38.0556 75.2183L37.6144 75.5064H39.5932ZM39.3973 64.7923H39.3957L37.9157 65.194V74.9944L37.9766 74.9549L38.5627 74.573L39.0022 74.2865L39.2739 74.1087L40.6913 73.1851V64.44L39.3973 64.7907V64.7923ZM43.6579 76.0662H40.4625L39.4286 76.8432H42.7788L43.6579 76.0662ZM45.0589 80.6511L44.2407 81.6027V82.3204L45.0589 81.3228V80.6511ZM44.5058 76.4069C44.5074 76.4053 44.5091 76.4037 44.5107 76.4004L44.6095 76.3082L44.8663 76.0662H44.058L43.1789 76.8432H44.0399L44.5058 76.4069ZM45.0589 76.2538L44.8153 76.4827C44.812 76.486 44.8104 76.4876 44.8071 76.4909L44.7099 76.5814L44.2407 77.021V77.7882L45.0589 76.9749V76.2555V76.2538ZM39.1257 75.8373L39.2327 75.7616L39.236 75.7599H37.2209L36.5855 76.1732H38.6565L39.1257 75.8373ZM38.9874 76.8416L40.0213 76.0645H39.2623L38.7931 76.4004L38.1774 76.8416H38.9874ZM36.4373 75.9559L37.6325 75.1772V65.2697L36.4373 65.5941V75.9559ZM45.0589 77.3519L44.2407 78.1652V81.1861L45.0589 80.2346V77.3519ZM45.9479 74.0379H45.6105L45.1297 74.4462L44.7626 74.759H45.133L45.9463 74.0396L45.9479 74.0379ZM40.1546 75.4241L40.0476 75.5015L39.6328 75.7978L39.6179 75.8093H40.3588L41.1885 75.1854H40.4872L40.153 75.4258L40.1546 75.4241ZM46.4599 78.6015L47.2172 77.719V75.2019L46.4599 75.9559V78.6015ZM44.8466 75.0125H44.4646L44.3017 75.1508C44.2984 75.1541 44.2951 75.1541 44.2918 75.1574C44.2885 75.1607 44.2852 75.1623 44.2819 75.1656C44.277 75.1689 44.2737 75.1706 44.2687 75.1722C44.2654 75.1739 44.2621 75.1755 44.2588 75.1772C44.2539 75.1788 44.2473 75.1805 44.2424 75.1821C44.2391 75.1821 44.2358 75.1837 44.2325 75.1854C44.2226 75.187 44.2144 75.1887 44.2045 75.1887H41.6297L40.8 75.8126H43.9444L44.8449 75.0158L44.8466 75.0125ZM50.6037 81.4611V81.2487L50.6004 81.2553L50.5773 81.2932L50.3814 81.6224H50.6037V81.4627V81.4611ZM50.6037 82.3781V81.8743H50.2283L50.0851 82.113L49.8908 82.439L49.8563 82.4982L49.662 82.8209L49.5797 82.9576H50.3995L50.6053 82.5871V82.3781H50.6037ZM50.6037 80.4667L49.1977 82.737V83.0613L49.415 82.6991L49.4381 82.6612L49.6093 82.3764L49.6439 82.3188L49.7114 82.2068L50.0159 81.6981L50.0225 81.6883L50.1937 81.4018L50.332 81.173L50.6053 80.7169V80.47L50.6037 80.4667ZM45.1791 75.7698L45.6664 75.3122C45.6664 75.3122 45.6664 75.3122 45.6681 75.3122L45.7471 75.2364L45.9842 75.0142H45.245L44.3445 75.811H45.1363L45.1775 75.7731L45.1791 75.7698ZM46.9802 85.5373H48.9705L49.3475 84.8557H47.4148L46.9802 85.5373ZM50.6037 85.1866V84.8557H49.662L49.285 85.5373H50.6037V85.1866ZM48.1573 83.6885L47.5778 84.5989H49.4891L50.2579 83.2094H49.4266L49.3887 83.272L49.1796 83.621C49.1796 83.6227 49.178 83.6227 49.1763 83.6243C49.1714 83.6325 49.1648 83.6408 49.1582 83.6474C49.1582 83.6474 49.1582 83.649 49.1566 83.649C49.1483 83.6556 49.1401 83.6622 49.1302 83.6671C49.1302 83.6671 49.1286 83.6688 49.1269 83.6688C49.1253 83.6704 49.1237 83.6704 49.122 83.6704C49.1154 83.6737 49.1055 83.677 49.099 83.6803C49.0973 83.6803 49.0957 83.6819 49.094 83.6819C49.0924 83.6819 49.0907 83.6819 49.0907 83.6819C49.0792 83.6836 49.0693 83.6852 49.0562 83.6852H48.1573V83.6885ZM50.6037 79.2106V78.2952L49.1977 80.3465V82.2118L50.6037 79.9415V79.2089V79.2106ZM50.6037 84.4359V83.2094H50.5724L49.8036 84.5989H50.6037V84.4359ZM46.6493 79.3736L46.7876 79.204L46.7958 79.1941L46.8435 79.1349L47.2172 78.6788V78.129L46.4599 79.0114V79.6041L46.511 79.5415L46.6493 79.3719V79.3736ZM47.4988 78.3364L47.7375 78.0434L47.7737 77.9989L48.0799 77.6269L48.1721 77.5133V77.0177L47.4971 77.803V78.3381L47.4988 78.3364ZM45.7389 80.4848L46.1784 79.9481V79.339L45.3405 80.3153V80.9705L45.6928 80.5408L45.7389 80.4832V80.4848ZM46.1784 76.2324L45.3405 77.0671V79.902L46.1784 78.9258V76.2324ZM46.1784 75.1969L45.9545 75.4076C45.9529 75.4093 45.9512 75.4109 45.9479 75.4126L45.8755 75.4801C45.8722 75.4834 45.8689 75.4867 45.864 75.49L45.3882 75.9378C45.3849 75.941 45.38 75.946 45.375 75.9493L45.3388 75.9838V76.6885L46.1768 75.8538V75.1969H46.1784ZM87.5861 64.4861L88.2545 64.6376V64.2573L87.5202 64.1075L87.5136 64.1058L86.8716 63.9741V64.3248L87.3556 64.4351L87.5877 64.4878L87.5861 64.4861ZM86.6395 65.3669L83.9692 64.6853H80.3983L82.6175 65.3669H86.6395ZM80.0971 69.4448L80.8297 69.8283L81.5491 70.2053L82.5599 70.7355C82.5616 70.7355 82.5632 70.7371 82.5632 70.7371C82.5665 70.7404 82.5715 70.742 82.5748 70.7453C82.578 70.747 82.5813 70.7503 82.5846 70.7519C82.5879 70.7552 82.5912 70.7585 82.5945 70.7618C82.5978 70.7651 82.6011 70.7684 82.6027 70.7717C82.606 70.775 82.6077 70.7783 82.6093 70.7816C82.611 70.7848 82.6143 70.7881 82.6159 70.7931C82.6176 70.7964 82.6192 70.8013 82.6208 70.8046C82.6225 70.8079 82.6241 70.8128 82.6241 70.8161C82.6258 70.8194 82.6258 70.8244 82.6274 70.8276C82.6274 70.8326 82.6291 70.8375 82.6291 70.8425C82.6291 70.8441 82.6291 70.8458 82.6291 70.8458V71.9438L84.9849 73.2905V71.6854L80.5185 69.4448H80.0971ZM78.7949 75.6579L78.9677 75.8044H79.5933L79.562 75.7781L79.4139 75.6579H78.7965H78.7949ZM86.6526 71.4845L82.2784 69.4448H81.098L85.1594 71.4845H86.6526ZM82.6291 72.8806V73.679L84.9849 75.1903V73.5951L82.6291 72.2484V72.8806ZM70.7115 82.3139V83.4646C70.7115 83.5354 70.649 83.5914 70.5716 83.5914H70.4053L70.9799 84.7701H72.0352L70.7132 82.3139H70.7115ZM69.1278 83.5914L70.7461 87.2906V87.121L69.1558 83.5914H69.1278ZM69.8044 83.5914H69.4604L70.7478 86.4477V84.9249L70.0975 83.5914H69.8044ZM68.2092 83.7198L68.1565 83.5914H64.0325C64.0243 83.5914 64.0144 83.5914 64.0062 83.5897C64.0029 83.5897 64.0012 83.5881 63.9979 83.5881C63.9914 83.5864 63.9864 83.5848 63.9815 83.5831C63.9782 83.5831 63.9749 83.5815 63.9716 83.5799C63.9683 83.5782 63.9667 83.5782 63.9634 83.5766C63.9617 83.5749 63.9601 83.5733 63.9568 83.5733C63.9535 83.5716 63.9502 83.57 63.9486 83.5683C63.9453 83.565 63.9403 83.5617 63.9354 83.5585C63.9337 83.5568 63.9304 83.5552 63.9288 83.5519C63.9255 83.5486 63.9206 83.5436 63.9173 83.5387C63.9156 83.5371 63.914 83.5354 63.9123 83.5321C63.909 83.5272 63.9057 83.5206 63.9025 83.514C63.9025 83.5124 63.9008 83.5124 63.9008 83.5107C63.8975 83.5041 63.8942 83.4975 63.8926 83.4893V83.4877L63.8136 83.165L63.7247 82.8061L63.588 82.2513H63.5353L63.6144 82.5888C63.6144 82.5921 63.616 82.5954 63.6176 82.6003L63.7345 83.1041L63.7362 83.1107L63.8613 83.6457C63.8613 83.6457 63.8613 83.6457 63.8613 83.6474L63.9897 84.1989C63.9897 84.2005 63.9897 84.2022 63.9897 84.2038L64.1428 84.864H68.6784L68.4347 84.2713L68.2059 83.7181L68.2092 83.7198ZM63.7164 84.2565C63.7164 84.2565 63.7164 84.2565 63.7164 84.2548L63.588 83.7017C63.588 83.7017 63.588 83.7017 63.588 83.7L63.504 83.3395V86.8938L63.6193 87.4898L63.7378 88.0957L63.8646 88.7443L63.8926 88.8908V85.0072L63.7181 84.2565H63.7164ZM79.5093 76.2687L79.9851 76.6736L80.0197 76.7033H80.698L80.5712 76.5996L80.1942 76.2933L79.9045 76.0579H79.264L79.5077 76.267L79.5093 76.2687ZM80.4823 77.0984L80.6947 77.2795L80.8889 77.4458L81.0009 77.5412C81.0009 77.5412 81.0025 77.5412 81.0025 77.5429C81.0075 77.5462 81.0108 77.5495 81.0141 77.5544C81.0173 77.5577 81.019 77.5594 81.0206 77.5626C81.0239 77.5659 81.0256 77.5709 81.0272 77.5742C81.0289 77.5775 81.0322 77.5808 81.0338 77.584C81.0355 77.5873 81.0371 77.5906 81.0388 77.5956C81.0404 77.5989 81.042 77.6038 81.042 77.6087C81.042 77.612 81.0437 77.6153 81.0437 77.6186C81.0437 77.6236 81.0453 77.6285 81.0453 77.6334V77.6351V77.8129H82.0627L81.8421 77.6334L81.3944 77.2712L81.0108 76.9601H80.3177L80.4823 77.1V77.0984ZM77.1716 78.2376L77.6062 78.6969L77.8104 78.9126V77.6828L77.3955 77.2778L76.9625 76.8547L76.7913 76.6885V77.8376L77.1732 78.2409L77.1716 78.2376ZM74.717 78.0088V79.1299H77.6457L77.3939 78.8632L76.9592 78.4039L76.5872 78.0088H74.7186H74.717ZM83.5016 63.8243H81.6331L84.0037 64.4301H86.1736L85.8887 64.3659L85.3405 64.2408L85.1084 64.1881L84.3495 64.0153L83.6119 63.8473L83.5016 63.8227V63.8243ZM85.1775 63.9412L85.4097 63.9939L85.9579 64.1173L86.5835 64.2589V63.9148L85.892 63.7733C85.892 63.7733 85.892 63.7733 85.8904 63.7733C85.8904 63.7733 85.8904 63.7733 85.8887 63.7733L85.11 63.6136H85.1067H85.1051L84.3528 63.4588C84.3528 63.4588 84.3527 63.4588 84.3511 63.4588H84.3478L83.7881 63.3436V63.63L84.4202 63.7733L85.1792 63.9461L85.1775 63.9412ZM76.1443 77.5429L75.7657 77.1412L75.4117 76.7675C75.4051 76.7625 75.4018 76.7576 75.3952 76.751L75.0594 76.3954L74.7334 76.0513L74.4684 75.7715H73.7029L73.8066 75.89L74.1095 76.2341L74.4305 76.5963L74.684 76.8827C74.6857 76.8844 74.6857 76.886 74.6873 76.8877C74.6906 76.891 74.6939 76.8942 74.6956 76.8992C74.6972 76.9025 74.6989 76.9058 74.7022 76.9091C74.7038 76.9124 74.7055 76.9173 74.7071 76.9206C74.7087 76.9239 74.7104 76.9288 74.7104 76.9321C74.712 76.9354 74.712 76.9403 74.7137 76.9436C74.7137 76.9486 74.7153 76.9535 74.7153 76.9568C74.7153 76.9585 74.7153 76.9601 74.7153 76.9618V77.752H76.3419L76.1427 77.5412L76.1443 77.5429ZM73.2748 81.5615V80.9145H73.0295V81.1828L73.2748 81.5615ZM73.1826 84.7685L70.9437 80.9129H70.7082V81.7294L72.343 84.7685H73.181H73.1826ZM75.0676 84.7685L73.3588 82.1459C73.3555 82.1443 73.3538 82.1426 73.3506 82.1426C73.3473 82.141 73.344 82.1393 73.3423 82.1393C73.3341 82.1344 73.3259 82.1295 73.3209 82.1245C73.3193 82.1229 73.3176 82.1229 73.3176 82.1212C73.3094 82.1147 73.3028 82.1064 73.2962 82.0982C73.2962 82.0965 73.2946 82.0965 73.2946 82.0949L72.5274 80.9145H71.2598L73.4987 84.7701H75.066L75.0676 84.7685ZM75.7657 75.6842L75.7377 75.6562H75.2092C75.1993 75.6562 75.1895 75.6562 75.1812 75.6529H75.1796C75.1714 75.6513 75.1631 75.6496 75.1549 75.6464C75.1549 75.6464 75.1549 75.6464 75.1532 75.6464C75.1532 75.6464 75.1532 75.6464 75.1516 75.6464C75.15 75.6447 75.1483 75.6447 75.1467 75.6431C75.1401 75.6398 75.1351 75.6381 75.1302 75.6348C75.1269 75.6332 75.1253 75.6315 75.122 75.6282C75.117 75.625 75.1121 75.6217 75.1071 75.6167C75.1071 75.6167 75.1055 75.6151 75.1039 75.6151L74.9129 75.4225L74.7351 75.243L74.6709 75.1788V75.5953L74.9458 75.8867C74.9458 75.8867 74.9458 75.8867 74.9475 75.8867L75.2734 76.2308L75.6159 76.593C75.6159 76.593 75.6159 76.593 75.6159 76.5946L75.9764 76.9766L76.355 77.3766L76.5048 77.5363V76.4102L76.1443 76.0596L75.7739 75.6974C75.7706 75.6941 75.7673 75.6908 75.764 75.6875L75.7657 75.6842ZM78.813 76.0234L78.5216 75.7748L78.3833 75.6562H76.1229L76.3485 75.8768C76.3518 75.8801 76.3567 75.8834 76.36 75.8884L76.7123 76.2324H79.0583L78.8146 76.0234H78.813ZM76.22 84.7685L74.4075 82.1558H73.6946L75.3952 84.7685H76.22ZM76.085 83.0399L76.5493 83.6819L76.7765 83.9964V82.1558H75.4463L75.9319 82.8275L76.085 83.0399ZM80.2683 77.2663L79.8649 76.9222L79.483 76.5963L79.3546 76.486H76.9691L77.1601 76.6736C77.1634 76.6753 77.165 76.6786 77.1667 76.6802L77.5914 77.0951C77.598 77.1 77.6013 77.105 77.6062 77.1099L78.0096 77.5034H80.5465L80.2666 77.2647L80.2683 77.2663Z" fill="white"/>
</svg>
