<svg width="72" height="69" viewBox="0 0 72 69" fill="none" xmlns="http://www.w3.org/2000/svg">
<path fill-rule="evenodd" clip-rule="evenodd" d="M36.3519 17.0793C36.3519 15.3837 37.4733 14.8294 38.8408 15.8402L52.3853 25.8885C53.7528 26.8993 53.5285 28.122 51.8929 28.6003L39.3058 32.274C37.6702 32.7522 36.3354 31.7577 36.3354 30.0621L36.3519 17.0738V17.0793Z" fill="white"/>
<path fill-rule="evenodd" clip-rule="evenodd" d="M38.6932 37.4798C37.7195 36.0885 38.2556 34.5669 39.8912 34.0887L52.4674 30.415C54.103 29.9367 54.9728 30.8497 54.4039 32.4475L48.9445 47.7019C48.3756 49.2997 47.1065 49.4681 46.1328 48.0769L38.6878 37.4798H38.6932Z" fill="white"/>
<path fill-rule="evenodd" clip-rule="evenodd" d="M33.4799 38.491C34.5028 37.1378 36.1439 37.1704 37.1176 38.5562L44.5627 49.1588C45.5364 50.55 44.9401 51.664 43.2388 51.6423L26.8007 51.4304C25.0939 51.4086 24.5414 50.2837 25.5644 48.9305L33.4799 38.491Z" fill="white"/>
<path fill-rule="evenodd" clip-rule="evenodd" d="M31.921 15.7422C33.3105 14.7585 34.4428 15.34 34.4428 17.0356L34.4264 30.0239C34.4264 31.7194 33.0971 32.665 31.4834 32.1325L18.9455 27.9914C17.3263 27.4588 17.1403 26.2143 18.5298 25.2307L31.9265 15.7422H31.921Z" fill="white"/>
<path fill-rule="evenodd" clip-rule="evenodd" d="M16.3143 31.7467C15.8055 30.1327 16.7081 29.2469 18.3273 29.7794L30.8707 33.9259C32.4899 34.4585 32.9713 36.0019 31.9483 37.355L24.0274 47.8055C23.0044 49.1587 21.7463 48.9413 21.2375 47.3272L16.3197 31.7413L16.3143 31.7467Z" fill="white"/>
<path fill-rule="evenodd" clip-rule="evenodd" d="M40.1046 14.4164C38.737 13.4056 38.9777 12.2589 40.6406 11.8785L52.1063 9.22647C53.7638 8.84062 55.1861 9.91121 55.2627 11.6013L55.7824 23.0734C55.859 24.7635 54.8032 25.3179 53.4411 24.307L40.1046 14.4109V14.4164Z" fill="white"/>
<path fill-rule="evenodd" clip-rule="evenodd" d="M56.1652 33.187C56.7341 31.5893 57.9431 31.4643 58.8402 32.899L64.852 42.5016C65.7546 43.9417 65.1803 45.5829 63.572 46.159L52.6697 50.0501C51.0669 50.6207 50.219 49.7838 50.7934 48.1915L56.1598 33.187H56.1652Z" fill="white"/>
<path fill-rule="evenodd" clip-rule="evenodd" d="M25.7779 55.6853C24.7057 54.3702 25.2254 53.3105 26.9266 53.3322L43.0913 53.5387C44.7926 53.5605 45.3068 54.6473 44.2237 55.957L37.0138 64.6902C35.9362 65.9999 34.1748 65.9945 33.1026 64.6793L25.7779 55.6799V55.6853Z" fill="white"/>
<path fill-rule="evenodd" clip-rule="evenodd" d="M16.0572 11.4926C16.183 9.80247 17.6381 8.75362 19.2956 9.15577L30.1432 11.8023C31.8007 12.2045 32.0195 13.3403 30.63 14.3239L17.5451 23.5896C16.1557 24.5733 15.1273 23.9972 15.2531 22.3071L16.0627 11.4926H16.0572Z" fill="white"/>
<path fill-rule="evenodd" clip-rule="evenodd" d="M12.0749 32.3013C12.9392 30.8449 14.066 30.9699 14.5748 32.5893L19.3613 47.7514C19.87 49.3654 18.9948 50.1697 17.4139 49.5339L7.71505 45.6429C6.13414 45.007 5.54882 43.2952 6.41312 41.8387L12.0694 32.3013H12.0749Z" fill="white"/>
<path fill-rule="evenodd" clip-rule="evenodd" d="M36.6855 3.90041C36.7511 2.21029 38.1023 1.33535 39.6887 1.95488L49.9454 5.97636C51.5318 6.60133 51.4716 7.42193 49.8087 7.80234L39.4261 10.2044C37.7686 10.5902 36.4612 9.51962 36.5323 7.82407L36.6909 3.89497L36.6855 3.90041Z" fill="white"/>
<path fill-rule="evenodd" clip-rule="evenodd" d="M57.2538 13.313C57.1772 11.6229 57.9813 11.324 59.0371 12.65L65.9679 21.3506C67.0237 22.6766 66.5587 24.171 64.9286 24.671L60.8259 25.9318C59.1957 26.4318 57.8008 25.4536 57.7242 23.7635L57.2483 13.313H57.2538Z" fill="white"/>
<path fill-rule="evenodd" clip-rule="evenodd" d="M60.071 31.2681C59.1684 29.8335 59.7647 28.2466 61.3948 27.7466L65.492 26.4913C67.1222 25.9913 68.353 26.9641 68.2272 28.6542L67.4176 39.5665C67.2917 41.2567 66.4548 41.4632 65.5522 40.023L60.071 31.2681Z" fill="white"/>
<path fill-rule="evenodd" clip-rule="evenodd" d="M51.5047 55.6253C50.5091 54.2504 51.0069 52.6581 52.6151 52.0821L62.6695 48.4899C64.2723 47.9193 64.8248 48.6095 63.9003 50.0333L57.7846 59.3968C56.8601 60.8152 55.2846 60.8533 54.289 59.4784L51.5047 55.6253Z" fill="white"/>
<path fill-rule="evenodd" clip-rule="evenodd" d="M46.171 56.5983C47.2541 55.2886 48.9499 55.343 49.9455 56.7179L52.7244 60.5655C53.72 61.9404 53.1729 63.3805 51.5154 63.7718L40.5913 66.3206C38.9338 66.7064 38.4579 65.951 39.541 64.6413L46.1764 56.5983H46.171Z" fill="white"/>
<path fill-rule="evenodd" clip-rule="evenodd" d="M20.1709 56.4893C21.1118 55.0763 22.7583 55.0003 23.8305 56.3154L30.4769 64.4779C31.549 65.7931 31.0841 66.4995 29.443 66.0485L19.2245 63.2226C17.5834 62.7661 17.009 61.239 17.9499 59.8315L20.1763 56.4893H20.1709Z" fill="white"/>
<path fill-rule="evenodd" clip-rule="evenodd" d="M32.0031 1.94927C33.595 1.34605 34.8422 2.23187 34.7765 3.92741L34.6234 7.83478C34.5577 9.52489 33.1464 10.5792 31.4944 10.177L21.6315 7.76956C19.974 7.36741 19.9247 6.54138 21.5166 5.93816L32.0086 1.94927H32.0031Z" fill="white"/>
<path fill-rule="evenodd" clip-rule="evenodd" d="M12.2936 12.5956C13.3657 11.275 14.137 11.5793 14.0112 13.2694L13.2837 23.008C13.1579 24.6981 11.7192 25.6817 10.0836 25.1926L6.59899 24.1546C4.96885 23.671 4.50388 22.1928 5.57605 20.8722L12.2936 12.5956Z" fill="white"/>
<path fill-rule="evenodd" clip-rule="evenodd" d="M3.25667 28.1491C3.14179 26.459 4.37807 25.4753 6.01369 25.9644L9.5092 27.0079C11.1393 27.4915 11.7684 29.0838 10.9041 30.5457L5.773 39.1919C4.90869 40.6483 4.10456 40.4635 3.98968 38.7734L3.25667 28.16V28.1491Z" fill="white"/>
<path fill-rule="evenodd" clip-rule="evenodd" d="M7.4469 49.5387C6.54977 48.0986 7.10227 47.441 8.68318 48.0769L17.4849 51.6092C19.0658 52.2451 19.5909 53.9189 18.65 55.3318L16.451 58.636C15.5101 60.0489 14.0058 60.0272 13.1086 58.5871L7.45237 49.5387H7.4469Z" fill="white"/>
<path fill-rule="evenodd" clip-rule="evenodd" d="M69.83 32.8716C69.9558 31.1815 70.4263 31.138 70.8803 32.7684L70.9405 32.9912C71.3945 34.6215 71.1921 37.0779 70.4974 38.4528C69.7972 39.8223 69.3322 39.5614 69.4526 37.8767L69.8245 32.8716H69.83Z" fill="white"/>
<path fill-rule="evenodd" clip-rule="evenodd" d="M66.1374 50.0985C67.0674 48.6801 67.3737 48.8268 66.8212 50.43L65.935 53.0005C65.3825 54.6037 63.818 56.7448 62.4559 57.7611L62.363 57.8263C61.0009 58.8425 60.6453 58.5165 61.5752 57.0926L66.1429 50.0931L66.1374 50.0985Z" fill="white"/>
<path fill-rule="evenodd" clip-rule="evenodd" d="M48.7692 66.3583C50.4322 65.9725 50.7495 66.4072 49.4804 67.3311C48.2113 68.2549 45.7879 68.8473 44.0976 68.6571L43.6873 68.6082C41.997 68.418 41.9697 67.9397 43.6272 67.5539L48.7692 66.3529V66.3583Z" fill="white"/>
<path fill-rule="evenodd" clip-rule="evenodd" d="M22.3644 66.9673C21.1063 66.1195 21.4235 65.7989 23.0646 66.2554L26.6914 67.2608C28.3325 67.7173 28.5458 68.1846 27.1619 68.2987C25.7779 68.4129 23.6171 67.8205 22.3644 66.9727V66.9673Z" fill="white"/>
<path fill-rule="evenodd" clip-rule="evenodd" d="M62.0731 13.4054C61.0174 12.0794 61.3018 11.6989 62.7077 12.563C64.1135 13.4271 65.6616 15.3672 66.143 16.8725C66.6244 18.3779 66.154 18.5246 65.0927 17.1986L62.0677 13.4054H62.0731Z" fill="white"/>
<path fill-rule="evenodd" clip-rule="evenodd" d="M44.5463 0.927605C46.0233 1.01999 48.102 1.83516 49.1632 2.74271C50.2244 3.65026 49.7977 3.88394 48.2114 3.25898L44.7377 1.89494C43.1514 1.27541 43.0638 0.835219 44.5408 0.927605H44.5463Z" fill="white"/>
<path fill-rule="evenodd" clip-rule="evenodd" d="M22.8456 2.65575C23.8686 1.86232 25.7886 1.12867 27.1124 1.03629C28.4362 0.938466 28.2174 1.35692 26.6256 1.96558L23.8795 3.00899C22.2876 3.61221 21.8227 3.45461 22.8456 2.66118V2.65575Z" fill="white"/>
<path fill-rule="evenodd" clip-rule="evenodd" d="M6.55523 15.7421C7.02567 14.6661 8.13614 13.2966 9.02779 12.6988C9.91398 12.1011 9.76628 12.688 8.69957 14.0031L7.64928 15.3019C6.57711 16.6225 6.09025 16.8182 6.5607 15.7421H6.55523Z" fill="white"/>
<path fill-rule="evenodd" clip-rule="evenodd" d="M1.1013 37.2409C0.532387 35.9583 0.379219 33.7248 0.756668 32.2792C1.13412 30.8336 1.53892 31.0347 1.65379 32.7248L1.91637 36.5018C2.03124 38.1919 1.66473 38.5234 1.1013 37.2409Z" fill="white"/>
<path fill-rule="evenodd" clip-rule="evenodd" d="M8.02131 57.5059C6.59357 56.582 5.29712 54.4463 5.13848 52.7616L5.06189 51.9355C4.90326 50.2509 5.51593 50.0444 6.41305 51.4845L10.007 57.2287C10.9042 58.6688 10.472 59.0873 9.04426 58.1634L8.02131 57.5059Z" fill="white"/>
</svg>
